<svg width="17" height="16" viewBox="0 0 17 16" fill="none" xmlns="http://www.w3.org/2000/svg">
<g clip-path="url(#clip0_392_7895)">
<path d="M4.62345 0.701165C4.67611 0.512823 4.92138 0.433942 5.07586 0.588422L12.3017 7.81425C12.4031 7.9157 12.4032 8.08944 12.3017 8.19115L4.62345 0.701165ZM4.62345 0.701165C4.63251 0.723169 4.64271 0.748042 4.65396 0.77566C4.70447 0.899649 4.77631 1.07909 4.86244 1.30284C5.03457 1.75004 5.26436 2.3758 5.49519 3.0907C5.95209 4.50576 6.43137 6.32448 6.44552 7.80169C6.46041 9.35631 5.98128 11.2749 5.51752 12.7695C5.28329 13.5243 5.04836 14.1852 4.87194 14.6576C4.78367 14.894 4.7099 15.0835 4.65799 15.2145C4.64488 15.2476 4.63317 15.2769 4.62296 15.3023C4.67458 15.4919 4.92089 15.5718 5.07586 15.417C5.07587 15.4169 5.07589 15.4169 5.0759 15.4169L12.3016 8.19122L4.62345 0.701165Z" fill="white" stroke="#FF6B00"/>
</g>
<defs>
<clipPath id="clip0_392_7895">
<rect width="16" height="16" fill="white" transform="matrix(1 0 0 -1 0.5 16)"/>
</clipPath>
</defs>
</svg>
