<svg width="24" height="18" viewBox="0 0 24 18" fill="none" xmlns="http://www.w3.org/2000/svg">
<path fill-rule="evenodd" clip-rule="evenodd" d="M1.19003 0.094941C0.818669 0.222472 0.527598 0.449176 0.290634 0.795581C0.0502854 1.14674 -0.0244147 1.44241 0.00667271 1.91903C0.0489877 2.56715 0.408157 3.09747 1.00012 3.38564L1.31951 3.54114H12.0111H22.7027L23.0221 3.38564C23.3729 3.21488 23.6717 2.92094 23.8708 2.55082C23.9794 2.34889 24 2.22584 24 1.7792C24 1.33256 23.9794 1.2095 23.8708 1.00757C23.6717 0.637453 23.3729 0.343515 23.0221 0.172746L22.7027 0.0172475L12.0957 0.00477403C1.93612 -0.00714009 1.47619 -0.00333654 1.19003 0.094941ZM1.19003 7.2546C0.818669 7.38213 0.527598 7.60884 0.290634 7.95524C0.0502854 8.3064 -0.0244147 8.60207 0.00667271 9.07869C0.0489877 9.72681 0.408157 10.2571 1.00012 10.5453L1.31951 10.7008H12.0111H22.7027L23.0221 10.5453C23.3729 10.3745 23.6717 10.0806 23.8708 9.71048C23.9794 9.50855 24 9.3855 24 8.93886C24 8.49222 23.9794 8.36916 23.8708 8.16724C23.6717 7.79711 23.3729 7.50318 23.0221 7.33241L22.7027 7.17691L12.0957 7.16443C1.93612 7.15252 1.47619 7.15633 1.19003 7.2546ZM1.19003 14.4143C0.818669 14.5418 0.527598 14.7685 0.290634 15.1149C0.0502854 15.4661 -0.0244147 15.7617 0.00667271 16.2384C0.0489877 16.8865 0.408157 17.4168 1.00012 17.705L1.31951 17.8605H12.0111H22.7027L23.0221 17.705C23.3729 17.5342 23.6717 17.2403 23.8708 16.8701C23.9794 16.6682 24 16.5452 24 16.0985C24 15.6519 23.9794 15.5288 23.8708 15.3269C23.6717 14.9568 23.3729 14.6628 23.0221 14.4921L22.7027 14.3366L12.0957 14.3241C1.93612 14.3122 1.47619 14.316 1.19003 14.4143Z" fill="white"/>
</svg>
