<svg width="61" height="60" viewBox="0 0 61 60" fill="none" xmlns="http://www.w3.org/2000/svg">
<g clip-path="url(#clip0_50_18636)">
<path d="M39.8104 40.7746V35.1719H21.1897V40.7746C21.1897 41.7347 20.5293 42.5686 19.5947 42.7886L6.79371 45.8007C4.92457 46.2404 3.60352 47.9083 3.60352 49.8284V57.9305C3.60352 59.0732 4.52977 59.9995 5.67246 59.9995H55.3276C56.4703 59.9995 57.3966 59.0732 57.3966 57.9305V49.8284C57.3966 47.9082 56.0755 46.2404 54.2064 45.8005L41.4054 42.7885C40.4709 42.5686 39.8104 41.7347 39.8104 40.7746Z" fill="#E6AF78"/>
<path d="M54.2064 45.802L41.4054 42.7901C41.212 42.7446 41.0343 42.6674 40.8679 42.5738L30.5 48.6217L20.5364 42.2812C20.2785 42.5241 19.9582 42.7047 19.5947 42.7902L6.79371 45.802C4.92457 46.2418 3.60352 47.9096 3.60352 49.8299V57.932C3.60352 59.0747 4.52977 60.0009 5.67246 60.0009H55.3276C56.4703 60.0009 57.3966 59.0747 57.3966 57.932V49.8299C57.3966 47.9098 56.0755 46.2418 54.2064 45.802Z" fill="#D7DEED"/>
<path d="M32.5695 51.7227H28.4316V59.9986H32.5695V51.7227Z" fill="#C3CCE0"/>
<path d="M12.9141 44.361V59.9999H22.2244L19.1211 42.9004L12.9141 44.361Z" fill="#5B5D6E"/>
<path d="M48.0857 44.361V59.9999H38.7754L41.8786 42.9004L48.0857 44.361Z" fill="#5B5D6E"/>
<path d="M21.1904 40.7746C21.1904 41.4692 20.8418 42.0938 20.2969 42.4717C32.5697 48.6202 39.8111 36.462 39.8111 36.462V35.1719H21.1904V40.7746Z" fill="#D29B6E"/>
<path d="M17.0508 11.3789L17.9522 31.2114C18.0363 33.0641 18.9448 34.7823 20.4285 35.895L24.7059 39.103C25.7804 39.9088 27.0871 40.3444 28.43 40.3444H32.5679C33.9109 40.3444 35.2177 39.9088 36.292 39.103L40.5694 35.895C42.0531 34.7822 42.9615 33.0641 43.0457 31.2114L43.9472 11.3789H17.0508Z" fill="#F0C087"/>
<path d="M17.0508 11.3789L17.9522 31.2113C18.0363 33.0641 18.9448 34.7822 20.4286 35.895L24.7059 39.103C25.7804 39.9089 27.0871 40.3444 28.43 40.3444H30.4991C27.3956 39.3098 25.3267 31.0341 25.3267 31.0341V19.7436C25.3267 18.9659 25.9199 18.3265 26.694 18.2515C32.4887 17.6902 39.0363 16.235 43.9474 12.8013V11.3789H17.0508Z" fill="#E6AF78"/>
<path d="M14.9824 10.3448V11.3794L16.017 22.7586H18.0859L20.1548 16.5517C20.1548 16.5517 33.6032 16.5517 40.8445 12.4138L42.9135 22.7586H44.9824L46.017 11.3794V10.3448C46.017 4.63148 41.3855 0 35.6721 0H25.3273C19.6139 0 14.9824 4.63148 14.9824 10.3448Z" fill="#5A4146"/>
<path d="M45.9518 24.3834L44.7834 29.0564C44.645 29.6101 44.1476 29.9984 43.5769 29.9984C42.9496 29.9984 42.4206 29.5313 42.3428 28.9089L41.7453 24.1295C41.5857 22.8515 42.5824 21.7227 43.8703 21.7227H43.8743C45.2674 21.7227 46.2896 23.032 45.9518 24.3834Z" fill="#F0C087"/>
<path d="M15.0474 24.3834L16.2158 29.0564C16.3542 29.6101 16.8516 29.9984 17.4223 29.9984C18.0496 29.9984 18.5786 29.5313 18.6564 28.9089L19.2538 24.1295C19.4135 22.8515 18.4168 21.7227 17.1289 21.7227H17.1249C15.7318 21.7227 14.7096 23.032 15.0474 24.3834Z" fill="#E6AF78"/>
<path d="M11.1981 53.2872L4.49461 47.2656C3.93293 47.9768 3.60352 48.8719 3.60352 49.8302V57.9321C3.60352 59.0748 4.52977 60.0011 5.67246 60.0011H12.9138V57.1352C12.9139 55.667 12.2902 54.2683 11.1981 53.2872Z" fill="#C3CCE0"/>
<path d="M49.8017 53.2872L56.5052 47.2656C57.0668 47.9768 57.3962 48.8719 57.3962 49.8302V57.9321C57.3962 59.0748 56.47 60.0011 55.3273 60.0011H48.0859V57.1352C48.0858 55.667 48.7096 54.2683 49.8017 53.2872Z" fill="#C3CCE0"/>
<path d="M21.044 40.1093L30.4997 48.6195C30.4997 48.6195 27.8515 49.9562 24.5838 52.6507C23.9097 53.2065 22.8899 52.9814 22.5284 52.186L18.0859 42.4125L19.4913 40.3045C19.8412 39.7797 20.5752 39.6874 21.044 40.1093Z" fill="#E4EAF6"/>
<path d="M39.9557 40.1093L30.5 48.6195C30.5 48.6195 33.1482 49.9562 36.416 52.6507C37.09 53.2065 38.1098 52.9814 38.4713 52.186L42.9138 42.4125L41.5085 40.3045C41.1586 39.7797 40.4245 39.6874 39.9557 40.1093Z" fill="#E4EAF6"/>
<path d="M37.3787 47.0746L30.5005 49.6539L23.6223 47.0746C22.946 46.821 22.2246 47.3209 22.2246 48.0433V53.3336C22.2246 54.0558 22.946 54.5559 23.6223 54.3021L30.5005 51.7229L37.3787 54.302C38.055 54.5557 38.7764 54.0557 38.7764 53.3335V48.0433C38.7764 47.3209 38.055 46.821 37.3787 47.0746Z" fill="#5B5D6E"/>
<path d="M34.6384 49.6562H30.5005H26.3627C25.7914 49.6562 25.3281 50.1195 25.3281 50.6908C25.3281 51.2621 25.7914 51.7253 26.3627 51.7253H30.5005H34.6384C35.2097 51.7253 35.673 51.2621 35.673 50.6908C35.673 50.1195 35.2097 49.6562 34.6384 49.6562Z" fill="#515262"/>
<path d="M31.5351 48.6211H29.4662C28.8949 48.6211 28.4316 49.0843 28.4316 49.6556V51.7246C28.4316 52.2959 28.8949 52.7591 29.4662 52.7591H31.5351C32.1064 52.7591 32.5696 52.2959 32.5696 51.7246V49.6556C32.5695 49.0842 32.1064 48.6211 31.5351 48.6211Z" fill="#65687A"/>
<path d="M30.4994 57.9323C31.0707 57.9323 31.5339 57.4692 31.5339 56.8978C31.5339 56.3265 31.0707 55.8633 30.4994 55.8633C29.928 55.8633 29.4648 56.3265 29.4648 56.8978C29.4648 57.4692 29.928 57.9323 30.4994 57.9323Z" fill="#959CB3"/>
</g>
<defs>
<clipPath id="clip0_50_18636">
<rect width="60" height="60" fill="white" transform="translate(0.5)"/>
</clipPath>
</defs>
</svg>
