<svg width="61" height="60" viewBox="0 0 61 60" fill="none" xmlns="http://www.w3.org/2000/svg">
<g clip-path="url(#clip0_50_18539)">
<path d="M54.3579 12.2072L28.457 0.284829C26.8924 -0.439309 25.0432 0.246035 24.332 1.81069L19.8062 11.6383H7.93548C6.21565 11.6383 4.83203 13.0348 4.83203 14.7417V56.8969C4.83203 58.6167 6.22858 60.0004 7.93548 60.0004H36.3838C38.1036 60.0004 39.4872 58.6038 39.4872 56.8969V51.9185L55.8708 16.3322C56.595 14.7676 55.9096 12.9314 54.3579 12.2072Z" fill="#E8F8FC"/>
<path d="M54.3584 12.2072C55.923 12.9314 56.5954 14.7676 55.8842 16.3322L39.4877 51.9184V14.7417C39.4877 13.0219 38.0911 11.6383 36.3842 11.6383H19.8066L24.3325 1.81069C25.0566 0.246035 26.8928 -0.439309 28.4575 0.284829L54.3584 12.2072Z" fill="#FE4F60"/>
<path d="M39.4872 14.7421V56.8973C39.4872 58.6171 38.1036 60.0007 36.3838 60.0007H7.93548C6.21565 60.0007 4.83203 58.6171 4.83203 56.8973V56.1214C4.83203 54.3111 6.00876 52.7076 7.72858 52.1775C24.4613 46.9663 32.4139 31.8111 29.5044 16.5913C29.0131 14.0309 30.9527 11.6387 33.5648 11.6387H36.3967C38.1036 11.6387 39.4872 13.0223 39.4872 14.7421Z" fill="#CAF1FC"/>
<path d="M10.3919 20.4301C9.82294 20.4301 9.35742 19.9646 9.35742 19.3956V17.5853C9.35742 17.0163 9.82294 16.5508 10.3919 16.5508C10.9609 16.5508 11.4264 17.0163 11.4264 17.5853V19.3956C11.4264 19.9646 10.9738 20.4301 10.3919 20.4301Z" fill="white"/>
<path d="M33.9271 55.0863C33.3581 55.0863 32.8926 54.6208 32.8926 54.0519V52.2415C32.8926 51.6725 33.3581 51.207 33.9271 51.207C34.496 51.207 34.9615 51.6725 34.9615 52.2415V54.0519C34.9615 54.6208 34.509 55.0863 33.9271 55.0863Z" fill="white"/>
<path d="M29.8019 36.5686C29.3752 31.1376 24.7588 27.9824 22.1467 27.9824C19.5346 27.9824 14.9183 31.1376 14.4915 36.5686C14.22 40.0471 18.2545 42.1807 20.9312 39.9436L21.1381 39.7626V42.4393C21.1381 42.9566 21.526 43.3833 22.0174 43.4609C22.0691 43.4609 22.1209 43.4738 22.1726 43.4738C22.7415 43.4738 23.2071 43.0083 23.2071 42.4393V39.7626L23.3752 39.9178C25.8967 42.1678 30.0605 40.0341 29.8019 36.5686Z" fill="#585966"/>
<path d="M24.4355 40.5514C26.1424 38.185 27.5649 35.4436 28.5476 32.4824C29.2071 33.6333 29.6726 35.004 29.789 36.5557C30.0088 39.4523 27.1252 41.5859 24.4355 40.5514Z" fill="#42434D"/>
<path d="M23.2072 42.1289V42.4393C23.2072 43.0082 22.7417 43.4737 22.1728 43.4737C22.121 43.4737 22.0693 43.4737 22.0176 43.4608C22.4184 43.047 22.8193 42.5944 23.2072 42.1289Z" fill="#42434D"/>
<path d="M42.7334 11.8318V44.8836L39.4877 51.931V14.7413C39.4877 13.0215 38.0911 11.6379 36.3842 11.6379H19.8066L21.4101 8.14648H39.048C41.0911 8.14648 42.7334 9.80166 42.7334 11.8318Z" fill="#E84857"/>
</g>
<defs>
<clipPath id="clip0_50_18539">
<rect width="60" height="60" fill="white" transform="translate(0.5)"/>
</clipPath>
</defs>
</svg>
