<svg width="61" height="60" viewBox="0 0 61 60" fill="none" xmlns="http://www.w3.org/2000/svg">
<g clip-path="url(#clip0_50_18527)">
<path d="M60.466 28.5645C60.4625 28.4895 60.459 28.4133 60.4543 28.3383C60.4531 28.2938 60.4496 28.2492 60.4473 28.2035C60.4297 27.9047 60.4074 27.6059 60.3816 27.307C60.3512 26.9648 60.3148 26.6238 60.2738 26.284C60.2586 26.1621 60.2434 26.0391 60.2258 25.9172C60.2094 25.7953 60.193 25.6734 60.1742 25.5527C60.1367 25.2984 60.0969 25.0441 60.0523 24.7922C60.0336 24.682 60.0137 24.5719 59.9926 24.4629C59.9703 24.3422 59.948 24.2215 59.9234 24.102C59.9 23.9812 59.8754 23.8617 59.8496 23.7422C59.8027 23.5184 59.7535 23.2957 59.7008 23.0742C59.6703 22.9477 59.6398 22.8211 59.6094 22.6945C59.3984 21.8484 59.1512 21.0141 58.8676 20.1926C58.8277 20.0754 58.7867 19.9594 58.7445 19.8434C58.6262 19.5105 58.5008 19.1789 58.3684 18.8508C58.3238 18.7383 58.2781 18.6258 58.2313 18.5133C58.1914 18.416 58.1504 18.3199 58.1094 18.2227C58.0637 18.1148 58.0168 18.007 57.9688 17.9004C57.9266 17.8043 57.8844 17.7094 57.841 17.6145C57.807 17.5383 57.7719 17.4633 57.7367 17.3871C57.725 17.359 57.7109 17.332 57.698 17.3039C57.6605 17.2242 57.623 17.1434 57.5844 17.0637C57.4977 16.8797 57.4074 16.698 57.316 16.5176C57.2633 16.4109 57.2082 16.3055 57.1531 16.1988C57.0277 15.9562 56.8977 15.7148 56.7641 15.4758C56.7301 15.4125 56.6961 15.3504 56.6598 15.2883C56.6316 15.2367 56.6023 15.1863 56.573 15.1359H56.5719C56.5309 15.0633 56.491 14.9906 56.4488 14.9191C56.3844 14.8102 56.3211 14.7023 56.2566 14.5957C56.0305 14.2184 55.7949 13.8457 55.5512 13.4777C55.4258 13.2891 55.3004 13.1027 55.1703 12.9164C55.0848 12.7922 54.998 12.6703 54.9102 12.5484C54.8375 12.4465 54.7637 12.3445 54.6887 12.2438C54.657 12.1992 54.6242 12.1559 54.5914 12.1125C54.4707 11.9496 54.3477 11.7891 54.2234 11.6297C54.0723 11.4352 53.9176 11.2418 53.7605 11.0496C53.7207 11.0016 53.6809 10.9523 53.6398 10.9031C53.2766 10.4637 52.9004 10.0348 52.5102 9.61406C52.4551 9.55547 52.4 9.4957 52.3438 9.43594L52.3332 9.42539C52.2547 9.34219 52.1762 9.25898 52.0953 9.17695C51.9699 9.0457 51.8422 8.91563 51.7133 8.78672C51.6207 8.69414 51.5281 8.60273 51.4344 8.5125C51.3793 8.45742 51.323 8.40352 51.2668 8.34961C51.1824 8.26758 51.0969 8.18672 51.0102 8.10586C50.907 8.00859 50.8027 7.9125 50.6984 7.81758C50.5836 7.71211 50.4676 7.60898 50.3516 7.50586C50.2273 7.3957 50.1031 7.28672 49.9766 7.18008C49.8957 7.10859 49.8125 7.03945 49.7293 6.97031C49.632 6.88828 49.5336 6.80742 49.4352 6.72656C49.3367 6.6457 49.2383 6.56602 49.1387 6.4875C49.0578 6.42305 48.9758 6.35859 48.8937 6.29414C48.807 6.22734 48.7203 6.15938 48.6324 6.09375C48.5762 6.05039 48.5199 6.0082 48.4637 5.96602C48.3957 5.91445 48.3277 5.86289 48.2586 5.8125C48.2246 5.78789 48.1906 5.76328 48.1566 5.7375C48.0887 5.68945 48.0219 5.64023 47.9527 5.59102C47.8414 5.51016 47.7301 5.43164 47.6164 5.35313C47.4102 5.20781 47.2016 5.06719 46.9906 4.92773C46.8699 4.84805 46.7492 4.76953 46.6273 4.69219C46.5172 4.62188 46.407 4.55156 46.2969 4.48359C46.2687 4.46484 46.2383 4.44609 46.209 4.42852C46.1187 4.37227 46.0273 4.31836 45.9371 4.26328C45.9008 4.24102 45.8645 4.21992 45.8281 4.19766C45.7168 4.13086 45.6055 4.06523 45.493 4.00078C45.3688 3.92812 45.2445 3.85781 45.118 3.7875C45.0605 3.75469 45.0031 3.72305 44.9445 3.69141C44.6164 3.50977 44.2848 3.33516 43.9484 3.16758C43.8688 3.12656 43.7891 3.08672 43.7082 3.04805C43.6285 3.0082 43.5488 2.96953 43.468 2.93086C43.3871 2.89219 43.3074 2.85352 43.2266 2.81602C43.1457 2.77734 43.0648 2.73984 42.984 2.70352C42.5434 2.50195 42.098 2.31094 41.6492 2.13164C41.5367 2.08594 41.423 2.04141 41.3094 1.99805C41.1957 1.95469 41.082 1.91133 40.9684 1.86914C40.8816 1.83633 40.7949 1.80469 40.707 1.77305C40.5523 1.7168 40.3977 1.66289 40.2418 1.61016C40.1398 1.575 40.0379 1.54102 39.9359 1.50703C39.2785 1.28906 38.6129 1.0957 37.9402 0.924609C37.8512 0.902344 37.7609 0.880078 37.6707 0.857813C37.5687 0.833203 37.468 0.808594 37.3648 0.785156C37.2793 0.764062 37.1938 0.745313 37.107 0.725391C36.991 0.699609 36.875 0.675 36.7578 0.650391C36.677 0.632812 36.5961 0.616406 36.5141 0.6C36.452 0.587109 36.391 0.575391 36.3289 0.563672C35.6961 0.438281 35.0586 0.335156 34.4152 0.251953C34.3285 0.240234 34.2406 0.229687 34.1527 0.219141C33.8738 0.185156 33.5949 0.155859 33.3148 0.130078C33.3125 0.128906 33.3113 0.128906 33.3102 0.130078C33.2129 0.119531 33.1145 0.111328 33.016 0.104297C32.7641 0.0820312 32.5109 0.0644531 32.2578 0.0515625C32.198 0.046875 32.1371 0.0433594 32.0773 0.0410156C32.0176 0.0375 31.9578 0.0351562 31.8969 0.0328125C31.8746 0.0316406 31.8535 0.0304687 31.8312 0.0304687C31.693 0.0234375 31.5547 0.01875 31.4164 0.0140625C31.3977 0.0128906 31.3777 0.0128906 31.3578 0.0128906C31.2172 0.00820312 31.0766 0.0046875 30.9348 0.00351562C30.7906 0.00117187 30.6453 0 30.5 0C29.9117 0 29.3258 0.0164062 28.7422 0.0515625C24.5727 0.289453 20.5637 1.3793 16.9168 3.23555C16.8137 3.28828 16.7117 3.34102 16.6098 3.39492C16.3027 3.5543 15.9969 3.7207 15.6957 3.89297C15.0793 4.24336 14.4746 4.61602 13.8828 5.01094C13.5945 5.2043 13.3098 5.40234 13.0273 5.60508C11.709 6.55313 10.4574 7.61602 9.28672 8.78672C8.06797 10.0055 6.96641 11.3121 5.98906 12.6902C5.77461 12.9914 5.56719 13.2961 5.36445 13.6043C4.71992 14.5887 4.13633 15.6059 3.61602 16.6535C1.81602 20.2699 0.764844 24.2355 0.544531 28.3559C0.515234 28.902 0.5 29.4492 0.5 30C0.5 30.627 0.51875 31.2504 0.557422 31.8715C0.576172 32.1902 0.600781 32.5078 0.63125 32.8254C0.944141 36.2074 1.8207 39.4699 3.21289 42.5051C3.37461 42.8566 3.54219 43.2047 3.71797 43.5492C4.24648 44.5922 4.83828 45.6059 5.48984 46.5855C6.58672 48.232 7.85586 49.7824 9.28672 51.2133C10.7633 52.6898 12.3676 53.9941 14.0727 55.1133C15.0559 55.7602 16.073 56.3461 17.1207 56.8676C17.416 57.0152 17.7137 57.1582 18.0137 57.2953C21.0629 58.6922 24.343 59.5676 27.7414 59.8746C28.0988 59.9086 28.4574 59.9344 28.8172 59.9531C29.375 59.9848 29.9363 60 30.5 60C30.6863 60 30.8715 59.9988 31.0566 59.9941C31.1539 59.993 31.2512 59.9906 31.3473 59.9871C31.3566 59.9883 31.366 59.9883 31.3754 59.9871C31.4117 59.9859 31.448 59.9859 31.4844 59.9836C31.4902 59.9836 31.4973 59.9836 31.5031 59.9824C31.6273 59.9789 31.7516 59.9742 31.8758 59.9684C32.0105 59.9625 32.1453 59.9555 32.2789 59.9473C32.2965 59.9473 32.3141 59.9461 32.3328 59.9449C32.4688 59.9367 32.6047 59.9285 32.7395 59.918C32.9867 59.8992 33.234 59.8781 33.4801 59.8547C33.609 59.8418 33.7391 59.8289 33.868 59.8137C33.9957 59.7996 34.1234 59.7844 34.25 59.7691C34.3613 59.7562 34.4715 59.741 34.5828 59.7258C34.659 59.7164 34.734 59.7059 34.8102 59.6941C34.8629 59.6871 34.9156 59.6789 34.9684 59.6707C35.0832 59.6543 35.198 59.6367 35.3117 59.618C35.3984 59.6051 35.484 59.591 35.5695 59.5758C35.634 59.5652 35.6996 59.5535 35.7641 59.5418C35.7758 59.5406 35.7875 59.5383 35.7992 59.5359C35.866 59.5242 35.9328 59.5125 35.9984 59.4996C36.023 59.4961 36.0477 59.4914 36.0723 59.4855C36.1379 59.4738 36.2023 59.4621 36.2668 59.448C36.2809 59.4469 36.2949 59.4445 36.309 59.4398C36.3605 59.4305 36.4121 59.4211 36.4625 59.4105C36.5621 59.3906 36.6594 59.3707 36.7578 59.3496C37.0684 59.2852 37.3766 59.2148 37.6836 59.1387C37.7891 59.1141 37.8934 59.0871 37.9977 59.0602C38.0598 59.0449 38.1219 59.0285 38.184 59.0121C38.266 58.991 38.3469 58.9688 38.4289 58.9465C38.4313 58.9465 38.4324 58.9453 38.4348 58.9453C38.5332 58.9184 38.6328 58.8914 38.7312 58.8621C38.818 58.8375 38.9059 58.8129 38.9926 58.7871C39.159 58.7379 39.3266 58.6875 39.4918 58.6359C39.602 58.602 39.7109 58.5668 39.8199 58.5305C39.9395 58.4918 40.059 58.452 40.1785 58.4109C40.2383 58.391 40.298 58.3711 40.3578 58.35C40.4176 58.3301 40.4773 58.309 40.5371 58.2867C40.6555 58.2445 40.775 58.2023 40.8934 58.1578C41.0117 58.1145 41.1289 58.0711 41.2473 58.0254C41.3645 57.9797 41.4828 57.934 41.6 57.8871C41.7172 57.8402 41.8344 57.7934 41.9504 57.7453C42.0676 57.6973 42.1836 57.648 42.2996 57.5988C42.3066 57.5965 42.3148 57.593 42.323 57.5895C42.4637 57.5285 42.6043 57.4676 42.7449 57.4043C42.7496 57.4031 42.7543 57.4008 42.759 57.3984C42.8984 57.3352 43.0367 57.2719 43.175 57.2074C43.4574 57.075 43.7375 56.9391 44.0152 56.7984C44.1453 56.7328 44.2754 56.666 44.4055 56.598C44.5063 56.5453 44.607 56.4914 44.7066 56.4375C45.002 56.2805 45.2926 56.1164 45.5809 55.9488C45.7004 55.8785 45.8188 55.8082 45.9371 55.7367C46.2078 55.575 46.475 55.4074 46.7398 55.2363C46.8453 55.1684 46.9496 55.0992 47.0539 55.0301C47.3305 54.8473 47.6047 54.6586 47.8754 54.4641C48.0453 54.3434 48.2129 54.2203 48.3805 54.0961C48.548 53.9719 48.7133 53.8465 48.8773 53.7176L49.0742 53.5629C49.1727 53.4855 49.2711 53.407 49.3684 53.3273C49.4504 53.2617 49.5312 53.1949 49.6109 53.1281C49.7059 53.0496 49.7996 52.9711 49.8934 52.8914C50.5191 52.3605 51.1262 51.8004 51.7133 51.2133C51.8504 51.0762 51.9863 50.9379 52.1199 50.7984C52.2008 50.7152 52.2805 50.6309 52.359 50.5465C52.5137 50.3836 52.6637 50.2195 52.8137 50.0543C52.9555 49.8961 53.0961 49.7379 53.2344 49.5773C53.2484 49.5609 53.2625 49.5445 53.2766 49.5281C53.3598 49.432 53.4418 49.3348 53.5227 49.2375C53.6469 49.0898 53.7699 48.941 53.8906 48.791C53.941 48.7277 53.9914 48.6645 54.0418 48.6012C54.1133 48.5109 54.1836 48.4219 54.2539 48.3305C54.3242 48.2402 54.3945 48.1488 54.4637 48.0562C54.5797 47.9039 54.6934 47.7504 54.8047 47.5969C54.8621 47.5172 54.9195 47.4387 54.9758 47.359C54.9805 47.3543 54.984 47.3484 54.9887 47.3414C55.1117 47.1691 55.2336 46.9934 55.3531 46.8176C55.4316 46.7039 55.5078 46.5891 55.5828 46.4742C55.5863 46.4695 55.5898 46.4648 55.5934 46.459C55.5969 46.4531 55.6016 46.4473 55.6039 46.4414C55.652 46.3699 55.6988 46.2996 55.7445 46.227C55.7609 46.2012 55.7785 46.1754 55.7949 46.1484C55.8875 46.0031 55.9801 45.8566 56.0715 45.709C56.1477 45.5848 56.2227 45.4605 56.2977 45.3352C56.327 45.2859 56.3563 45.2355 56.3855 45.1852C56.4301 45.1102 56.4746 45.0352 56.518 44.9602C56.7395 44.5781 56.9504 44.1914 57.1531 43.8012C57.2199 43.6723 57.2855 43.5434 57.35 43.4133C57.4508 43.2129 57.5492 43.0125 57.6441 42.8098C57.7215 42.6445 57.7988 42.4793 57.8738 42.3129C57.9148 42.2227 57.9535 42.1336 57.9934 42.0434C58.0414 41.9355 58.0871 41.8266 58.1328 41.7188C58.3391 41.2371 58.5301 40.7484 58.7082 40.2562C58.7398 40.1719 58.7703 40.0863 58.7996 40.0008C58.9145 39.6785 59.0223 39.3527 59.1242 39.0258C59.1594 38.9168 59.1922 38.8078 59.225 38.6988C59.2566 38.5957 59.2871 38.4926 59.3176 38.3895C59.3586 38.2488 59.3984 38.107 59.4371 37.9652C59.443 37.9441 59.4488 37.923 59.4535 37.902C59.4852 37.7871 59.5156 37.6723 59.5449 37.5563C59.5531 37.527 59.5613 37.4977 59.5672 37.4684C59.5918 37.3746 59.6164 37.2797 59.6387 37.1848C59.6539 37.1227 59.6691 37.0594 59.6844 36.9973C59.818 36.4348 59.9363 35.8664 60.0359 35.2945C60.0512 35.2078 60.0676 35.1199 60.0816 35.032C60.0945 34.9582 60.1062 34.8855 60.118 34.8117C60.1379 34.691 60.1566 34.5691 60.1742 34.4473C60.193 34.3266 60.2094 34.2047 60.2258 34.0828C60.2504 33.9047 60.2727 33.7277 60.2926 33.5496C60.3043 33.4523 60.3148 33.3539 60.3254 33.2555C60.3395 33.1289 60.3523 33.0012 60.3641 32.8734C60.3711 32.809 60.377 32.7445 60.3816 32.6813C60.3875 32.618 60.3922 32.5535 60.398 32.4891C60.4074 32.3754 60.4156 32.2617 60.4238 32.148C60.4285 32.0988 60.432 32.0484 60.4344 31.9992C60.4402 31.9055 60.4461 31.8129 60.4508 31.7191C60.459 31.5762 60.466 31.4332 60.4719 31.2902C60.4848 31.0043 60.493 30.7184 60.4965 30.4312C60.4988 30.2871 60.5 30.1441 60.5 30V29.9684C60.5 29.4984 60.4883 29.0309 60.466 28.5645Z" fill="#F1F1F1"/>
<path d="M60.5 30C60.5 30.1441 60.4988 30.2871 60.4965 30.4312C60.493 30.7184 60.4848 31.0043 60.4719 31.2902C60.466 31.4332 60.459 31.5762 60.4508 31.7191C60.4461 31.8129 60.4402 31.9055 60.4344 31.9992C60.432 32.0484 60.4285 32.0988 60.4238 32.148C60.4156 32.2617 60.4074 32.3754 60.398 32.4891C60.3922 32.5535 60.3875 32.618 60.3816 32.6813C60.377 32.7445 60.3711 32.809 60.3641 32.8734C60.3523 33.0012 60.3395 33.1289 60.3254 33.2555C60.3148 33.3539 60.3043 33.4523 60.2926 33.5496C60.2727 33.7277 60.2504 33.9047 60.2258 34.0828C60.2094 34.2047 60.193 34.3266 60.1742 34.4473C60.1566 34.5691 60.1379 34.691 60.118 34.8117C60.1062 34.8855 60.0945 34.9582 60.0816 35.032C60.0676 35.1199 60.0512 35.2078 60.0359 35.2945C59.9363 35.8664 59.818 36.4348 59.6844 36.9973C59.6691 37.0594 59.6539 37.1227 59.6387 37.1848C59.6164 37.2797 59.5918 37.3746 59.5672 37.4684C59.5613 37.4977 59.5531 37.527 59.5449 37.5563C59.5156 37.6723 59.4852 37.7871 59.4535 37.902C59.4488 37.923 59.443 37.9441 59.4371 37.9652C59.3984 38.107 59.3586 38.2488 59.3176 38.3895C59.2871 38.4926 59.2566 38.5957 59.225 38.6988C59.1922 38.8078 59.1594 38.9168 59.1242 39.0258C59.0223 39.3527 58.9145 39.6785 58.7996 40.0008C58.7703 40.0863 58.7398 40.1719 58.7082 40.2562C58.5301 40.7484 58.3391 41.2371 58.1328 41.7188C58.0883 41.8277 58.0414 41.9355 57.9934 42.0434C57.9535 42.1336 57.9148 42.2227 57.8738 42.3129C57.7988 42.4793 57.7215 42.6445 57.6441 42.8098C57.5492 43.0125 57.4508 43.2129 57.35 43.4133C57.2855 43.5434 57.2199 43.6723 57.1531 43.8012C56.9504 44.1914 56.7395 44.5781 56.518 44.9602C56.4453 45.0855 56.3715 45.2109 56.2977 45.3352C56.2227 45.4605 56.1477 45.5848 56.0715 45.709C55.9801 45.8566 55.8875 46.0031 55.7949 46.1484C55.7785 46.1754 55.7609 46.2012 55.7445 46.227C55.6988 46.2996 55.652 46.3699 55.6039 46.4414C55.6016 46.4473 55.5969 46.4531 55.5934 46.459C55.5898 46.4648 55.5863 46.4695 55.5828 46.4742C55.5078 46.5891 55.4316 46.7039 55.3531 46.8176C55.2336 46.9934 55.1117 47.1691 54.9887 47.3414C54.984 47.3484 54.9805 47.3543 54.9758 47.359C54.9195 47.4387 54.8621 47.5172 54.8047 47.5969C54.6934 47.7504 54.5797 47.9039 54.4637 48.0562C54.3945 48.1488 54.3242 48.2402 54.2539 48.3305C54.1836 48.4219 54.1133 48.5109 54.0418 48.6012C53.9914 48.6645 53.941 48.7277 53.8906 48.791C53.7699 48.941 53.6469 49.0898 53.5227 49.2375C53.4418 49.3348 53.3598 49.432 53.2766 49.5281C53.2625 49.5445 53.2484 49.5609 53.2344 49.5773C53.0961 49.7379 52.9555 49.8961 52.8137 50.0543C52.6637 50.2195 52.5137 50.3836 52.359 50.5465C52.2805 50.6309 52.2008 50.7152 52.1199 50.7984C51.9863 50.9379 51.8504 51.0762 51.7133 51.2133C51.1262 51.8004 50.5191 52.3605 49.8934 52.8914C49.7996 52.9711 49.7059 53.0496 49.6109 53.1281C49.5312 53.1949 49.4504 53.2617 49.3684 53.3273C49.2711 53.407 49.1727 53.4855 49.0742 53.5629L48.8773 53.7176C48.7133 53.8465 48.548 53.9719 48.3805 54.0961C48.2129 54.2203 48.0453 54.3434 47.8754 54.4641C47.6047 54.6586 47.3305 54.8473 47.0539 55.0301C46.9496 55.0992 46.8453 55.1684 46.7398 55.2363C46.475 55.4074 46.2078 55.575 45.9371 55.7367C45.8188 55.8082 45.7004 55.8785 45.5809 55.9488C45.2926 56.1164 45.002 56.2805 44.7066 56.4375C44.607 56.4914 44.5063 56.5453 44.4055 56.598C44.2754 56.666 44.1453 56.7328 44.0152 56.7984C43.7375 56.9402 43.4574 57.0762 43.175 57.2074C43.0367 57.2719 42.8984 57.3352 42.759 57.3984C42.7543 57.4008 42.7496 57.4031 42.7449 57.4043C42.6043 57.4676 42.4637 57.5285 42.323 57.5895C42.3148 57.593 42.3066 57.5965 42.2996 57.5988C42.1836 57.648 42.0676 57.6973 41.9504 57.7453C41.8344 57.7934 41.7172 57.8402 41.6 57.8871C41.4828 57.934 41.3645 57.9797 41.2473 58.0254C41.1289 58.0711 41.0117 58.1145 40.8934 58.1578C40.775 58.2023 40.6555 58.2445 40.5371 58.2867C40.4773 58.309 40.4176 58.3301 40.3578 58.35C40.298 58.3711 40.2383 58.391 40.1785 58.4109C40.059 58.452 39.9395 58.4918 39.8199 58.5305C39.7109 58.5668 39.602 58.602 39.4918 58.6359C39.3266 58.6875 39.159 58.7379 38.9926 58.7871C38.9059 58.8129 38.818 58.8375 38.7312 58.8621C38.6328 58.8914 38.5332 58.9184 38.4348 58.9453C38.4324 58.9453 38.4313 58.9465 38.4289 58.9465C38.3469 58.9688 38.266 58.991 38.184 59.0121C38.1219 59.0285 38.0598 59.0449 37.9977 59.0602C37.8934 59.0871 37.7891 59.1141 37.6836 59.1387C37.3766 59.2148 37.0684 59.2852 36.7578 59.3496C36.6594 59.3707 36.5621 59.3906 36.4625 59.4105C36.4121 59.4211 36.3605 59.4305 36.309 59.4398C36.2949 59.4445 36.2809 59.4469 36.2668 59.448C36.2023 59.4621 36.1379 59.4738 36.0723 59.4855C36.0477 59.4914 36.023 59.4961 35.9984 59.4996C35.9328 59.5125 35.866 59.5242 35.7992 59.5359C35.7875 59.5383 35.7758 59.5406 35.7641 59.5418C35.6996 59.5535 35.634 59.5652 35.5695 59.5758C35.484 59.591 35.3984 59.6051 35.3117 59.618C35.198 59.6367 35.0832 59.6543 34.9684 59.6707C34.9156 59.6789 34.8629 59.6871 34.8102 59.6941C34.734 59.7059 34.659 59.7164 34.5828 59.7258C34.4715 59.741 34.3613 59.7562 34.25 59.7691C34.1234 59.7844 33.9957 59.7996 33.868 59.8137C33.7391 59.8289 33.609 59.8418 33.4801 59.8547C33.234 59.8781 32.9867 59.8992 32.7395 59.918C32.6047 59.9285 32.4688 59.9367 32.3328 59.9449C32.3141 59.9461 32.2965 59.9473 32.2789 59.9473C32.1453 59.9555 32.0105 59.9625 31.8758 59.9684C31.7516 59.9742 31.6273 59.9789 31.5031 59.9824C31.4973 59.9836 31.4902 59.9836 31.4844 59.9836C31.448 59.9859 31.4117 59.9859 31.3754 59.9871C31.366 59.9883 31.3566 59.9883 31.3473 59.9871C31.2512 59.9906 31.1539 59.993 31.0566 59.9941C30.8715 59.9988 30.6863 60 30.5 60V0C30.6453 0 30.7906 0.00117187 30.9348 0.00351562C31.257 0.00703125 31.577 0.0175781 31.8969 0.0328125C31.9578 0.0351562 32.0176 0.0375 32.0773 0.0410156C32.1371 0.0433594 32.198 0.046875 32.2578 0.0515625C32.5109 0.0644531 32.7641 0.0820312 33.016 0.104297C33.1145 0.111328 33.2129 0.119531 33.3102 0.130078C33.3113 0.128906 33.3125 0.128906 33.3148 0.130078C33.5949 0.155859 33.8738 0.185156 34.1527 0.219141C34.2406 0.229687 34.3285 0.240234 34.4152 0.251953C35.0586 0.335156 35.6961 0.438281 36.3289 0.563672C36.391 0.575391 36.452 0.587109 36.5141 0.6C36.5961 0.616406 36.677 0.632812 36.7578 0.650391C36.875 0.675 36.991 0.699609 37.107 0.725391C37.1938 0.745313 37.2793 0.764062 37.3648 0.785156C37.468 0.808594 37.5688 0.833203 37.6707 0.857813C37.7609 0.880078 37.8512 0.902344 37.9402 0.924609C38.6129 1.0957 39.2785 1.28906 39.9359 1.50703C40.0379 1.54102 40.1398 1.575 40.2418 1.61016C40.3977 1.66289 40.5523 1.7168 40.707 1.77305C40.7949 1.80469 40.8816 1.83633 40.9684 1.86914C41.082 1.91133 41.1957 1.95469 41.3094 1.99805C41.423 2.04141 41.5367 2.08594 41.6492 2.13164C42.098 2.31094 42.5434 2.50195 42.984 2.70352C43.0648 2.73984 43.1457 2.77734 43.2266 2.81602C43.3074 2.85352 43.3871 2.89219 43.468 2.93086C43.5488 2.96953 43.6285 3.0082 43.7082 3.04805C43.7891 3.08672 43.8688 3.12656 43.9484 3.16758C44.2848 3.33516 44.6164 3.50977 44.9445 3.69141C45.0031 3.72305 45.0605 3.75469 45.118 3.7875C45.2445 3.85781 45.3688 3.92812 45.493 4.00078C45.6055 4.06523 45.7168 4.13086 45.8281 4.19766C45.9559 4.27383 46.0824 4.35 46.209 4.42852C46.2383 4.44609 46.2687 4.46484 46.2969 4.48359C46.407 4.55156 46.5172 4.62188 46.6273 4.69219C46.7492 4.76953 46.8699 4.84805 46.9906 4.92773C47.2016 5.06719 47.4102 5.20781 47.6164 5.35313C47.7301 5.43164 47.8414 5.51016 47.9527 5.59102C48.0219 5.64023 48.0887 5.68945 48.1566 5.7375C48.1906 5.76328 48.2246 5.78789 48.2586 5.8125C48.3277 5.86289 48.3957 5.91445 48.4637 5.96602C48.5199 6.0082 48.5762 6.05039 48.6324 6.09375C48.7203 6.15938 48.807 6.22734 48.8937 6.29414C48.9758 6.35859 49.0578 6.42305 49.1387 6.4875C49.2383 6.56602 49.3367 6.6457 49.4352 6.72656C49.5336 6.80742 49.632 6.88828 49.7293 6.97031C49.8125 7.03945 49.8957 7.10859 49.9766 7.18008C50.1031 7.28672 50.2273 7.3957 50.3516 7.50586C50.4676 7.60898 50.5836 7.71211 50.6984 7.81758C50.8027 7.9125 50.907 8.00859 51.0102 8.10586C51.0969 8.18672 51.1824 8.26758 51.2668 8.34961C51.323 8.40352 51.3793 8.45742 51.4344 8.5125C51.5281 8.60273 51.6207 8.69414 51.7133 8.78672C51.8422 8.91563 51.9699 9.0457 52.0953 9.17695C52.1762 9.25898 52.2547 9.34219 52.3332 9.42539L52.3438 9.43594C52.4 9.4957 52.4551 9.55547 52.5102 9.61406C52.9004 10.0348 53.2766 10.4637 53.6398 10.9031C53.6809 10.9523 53.7207 11.0016 53.7605 11.0496C53.9176 11.2418 54.0723 11.4352 54.2234 11.6297C54.3477 11.7891 54.4707 11.9496 54.5914 12.1125C54.6242 12.1559 54.657 12.1992 54.6887 12.2438C54.7637 12.3445 54.8375 12.4465 54.9102 12.5484C54.998 12.6703 55.0848 12.7922 55.1703 12.9164C55.3004 13.1027 55.4258 13.2891 55.5512 13.4777C55.7949 13.8457 56.0305 14.2184 56.2566 14.5957C56.3211 14.7023 56.3844 14.8102 56.4488 14.9191C56.5203 15.041 56.5906 15.1641 56.6598 15.2883C56.6961 15.3504 56.7301 15.4125 56.7641 15.4758C56.8977 15.7148 57.0277 15.9562 57.1531 16.1988C57.2082 16.3055 57.2633 16.4109 57.316 16.5176C57.4074 16.698 57.4977 16.8797 57.5844 17.0637C57.623 17.1434 57.6605 17.2242 57.698 17.3039C57.7109 17.332 57.725 17.359 57.7367 17.3871C57.7719 17.4633 57.807 17.5383 57.841 17.6145C57.8844 17.7094 57.9266 17.8043 57.9688 17.9004C58.0168 18.007 58.0637 18.1148 58.1094 18.2227C58.1504 18.3199 58.1914 18.416 58.2313 18.5133C58.2781 18.6258 58.3238 18.7383 58.3684 18.8508C58.5008 19.1789 58.6262 19.5105 58.7445 19.8434C58.7867 19.9594 58.8277 20.0754 58.8676 20.1926C59.1512 21.0141 59.3984 21.8484 59.6094 22.6945C59.6398 22.8211 59.6703 22.9477 59.7008 23.0742C59.7535 23.2957 59.8027 23.5184 59.8496 23.7422C59.8754 23.8617 59.9 23.9812 59.9234 24.102C59.948 24.2215 59.9703 24.3422 59.9926 24.4629C60.0137 24.5719 60.0336 24.682 60.0523 24.7922C60.0969 25.0441 60.1367 25.2984 60.1742 25.5527C60.193 25.6734 60.2094 25.7953 60.2258 25.9172C60.2434 26.0391 60.2586 26.1621 60.2738 26.284C60.3148 26.6238 60.3512 26.9648 60.3816 27.307C60.4074 27.6059 60.4297 27.9047 60.4473 28.2035C60.4496 28.2492 60.4531 28.2938 60.4543 28.3383C60.459 28.4133 60.4625 28.4895 60.466 28.5645C60.4883 29.0414 60.5 29.5195 60.5 30Z" fill="#E1E1E4"/>
<path d="M60.466 28.5645C60.4625 28.4895 60.459 28.4133 60.4543 28.3383C60.4531 28.2938 60.4496 28.2492 60.4473 28.2035C60.4297 27.9047 60.4074 27.6059 60.3816 27.307C60.3512 26.9648 60.3148 26.6238 60.2738 26.284C60.2586 26.1621 60.2434 26.0391 60.2258 25.9172C60.2094 25.7953 60.193 25.6734 60.1742 25.5527C60.1367 25.2984 60.0969 25.0441 60.0523 24.7922C60.0336 24.682 60.0137 24.5719 59.9926 24.4629C59.9703 24.3422 59.948 24.2215 59.9234 24.102C59.9 23.9812 59.8754 23.8617 59.8496 23.7422C59.8027 23.5184 59.7535 23.2957 59.7008 23.0742C59.6703 22.9477 59.6398 22.8211 59.6094 22.6945C59.3984 21.8484 59.1512 21.0141 58.8676 20.1926C58.8277 20.0754 58.7867 19.9594 58.7445 19.8434C58.6262 19.5105 58.5008 19.1789 58.3684 18.8508C58.3238 18.7383 58.2781 18.6258 58.2313 18.5133C58.1914 18.416 58.1504 18.3199 58.1094 18.2227C58.0637 18.1148 58.0168 18.007 57.9688 17.9004C57.9266 17.8043 57.8844 17.7094 57.841 17.6145C57.807 17.5383 57.7719 17.4633 57.7367 17.3871C57.725 17.359 57.7109 17.332 57.698 17.3039C57.6605 17.2242 57.623 17.1434 57.5844 17.0637C57.4977 16.8797 57.4074 16.698 57.316 16.5176C57.2633 16.4109 57.2082 16.3055 57.1531 16.1988C57.0277 15.9562 56.8977 15.7148 56.7641 15.4758C56.7301 15.4125 56.6961 15.3504 56.6598 15.2883C56.5906 15.1641 56.5203 15.041 56.4488 14.9191C56.3844 14.8102 56.3211 14.7023 56.2566 14.5957C56.0305 14.2184 55.7949 13.8457 55.5512 13.4777L47.7922 17.966C46.359 15.9117 44.5684 14.1234 42.5117 12.6926L46.9906 4.92773C46.8699 4.84805 46.7492 4.76953 46.6273 4.69219C46.5172 4.62188 46.407 4.55156 46.2969 4.48359C46.2687 4.46484 46.2383 4.44609 46.209 4.42852C46.0824 4.35 45.9559 4.27383 45.8281 4.19766C45.7168 4.13086 45.6055 4.06523 45.493 4.00078C45.3688 3.92812 45.2445 3.85781 45.118 3.7875C45.0605 3.75469 45.0031 3.72305 44.9445 3.69141C44.6164 3.50977 44.2848 3.33516 43.9484 3.16758C43.8688 3.12656 43.7891 3.08672 43.7082 3.04805C43.6285 3.0082 43.5488 2.96953 43.468 2.93086C43.3871 2.89219 43.3074 2.85352 43.2266 2.81602C43.1457 2.77734 43.0648 2.73984 42.984 2.70352C42.5434 2.50195 42.098 2.31094 41.6492 2.13164C41.5367 2.08594 41.423 2.04141 41.3094 1.99805C41.1957 1.95469 41.082 1.91133 40.9684 1.86914C40.8816 1.83633 40.7949 1.80469 40.707 1.77305C40.5523 1.7168 40.3977 1.66289 40.2418 1.61016C40.1398 1.575 40.0379 1.54102 39.9359 1.50703C39.2785 1.28906 38.6129 1.0957 37.9402 0.924609C37.8512 0.902344 37.7609 0.880078 37.6707 0.857813C37.5687 0.833203 37.468 0.808594 37.3648 0.785156C37.2793 0.764062 37.1938 0.745313 37.107 0.725391C36.991 0.699609 36.875 0.675 36.7578 0.650391C36.677 0.632812 36.5961 0.616406 36.5141 0.6C36.452 0.587109 36.391 0.575391 36.3289 0.563672C35.6961 0.438281 35.0586 0.335156 34.4152 0.251953C34.3285 0.240234 34.2406 0.229687 34.1527 0.219141C33.8738 0.185156 33.5949 0.155859 33.3148 0.130078C33.3125 0.128906 33.3113 0.128906 33.3102 0.130078C33.2129 0.119531 33.1145 0.111328 33.016 0.104297C32.7641 0.0820312 32.5109 0.0644531 32.2578 0.0515625C32.198 0.046875 32.1371 0.0433594 32.0773 0.0410156C32.0176 0.0375 31.9578 0.0351562 31.8969 0.0328125C31.7176 0.0246094 31.5383 0.0175781 31.3578 0.0128906C31.2875 0.0105469 31.2172 0.00820312 31.1469 0.00703125C31.0766 0.00585938 31.0051 0.0046875 30.9348 0.00351562C30.7906 0.00117187 30.6453 0 30.5 0C29.9117 0 29.3258 0.0164062 28.7422 0.0515625V8.99766C26.1453 9.21328 23.6797 9.90117 21.4332 10.9758L16.9168 3.23555C16.8137 3.28828 16.7117 3.34102 16.6098 3.39492C16.3027 3.55547 15.9992 3.72422 15.6969 3.89531L15.6957 3.89297C15.0793 4.24336 14.4746 4.61602 13.8828 5.01094C13.5945 5.2043 13.3098 5.40234 13.0273 5.60508C11.709 6.55313 10.4574 7.61602 9.28672 8.78672C8.06797 10.0055 6.96641 11.3121 5.98906 12.6902C5.77461 12.9914 5.56719 13.2961 5.36445 13.6043C4.71992 14.5887 4.13633 15.6059 3.61602 16.6535L11.3973 21.1031C10.3566 23.3273 9.69336 25.7602 9.49063 28.3219L0.544531 28.3559C0.515234 28.902 0.5 29.4492 0.5 30C0.5 30.627 0.51875 31.2504 0.557422 31.8715C0.576172 32.1902 0.600781 32.5078 0.63125 32.8254C0.944141 36.2074 1.8207 39.4699 3.21289 42.5051C3.37461 42.8566 3.54219 43.2047 3.71797 43.5492C4.24648 44.5922 4.83828 45.6059 5.48984 46.5855L13.2383 42.0773C14.6773 44.1281 16.4715 45.9117 18.5316 47.3379L14.0727 55.1133C15.0559 55.7602 16.073 56.3461 17.1207 56.8676C17.416 57.0152 17.7137 57.1582 18.0137 57.2953C21.0629 58.6922 24.343 59.5676 27.7414 59.8746C28.0988 59.9086 28.4574 59.9344 28.8172 59.9531C29.375 59.9848 29.9363 60 30.5 60C30.6863 60 30.8715 59.9988 31.0566 59.9941C31.1539 59.993 31.2512 59.9906 31.3473 59.9871C31.3566 59.9883 31.366 59.9883 31.3754 59.9871C31.4117 59.9859 31.448 59.9859 31.4844 59.9836C31.4902 59.9836 31.4973 59.9836 31.5031 59.9824C31.6273 59.9789 31.7516 59.9742 31.8758 59.9684C32.0105 59.9625 32.1453 59.9555 32.2789 59.9473C32.2965 59.9473 32.3141 59.9461 32.3328 59.9449L32.3105 50.9977C34.8699 50.7785 37.3004 50.1012 39.5176 49.0465L44.0152 56.7984C44.1453 56.7328 44.2754 56.666 44.4055 56.598C44.5063 56.5453 44.607 56.4914 44.7066 56.4375C45.002 56.2805 45.2926 56.1164 45.5809 55.9488C45.7004 55.8785 45.8188 55.8082 45.9371 55.7367C46.2078 55.575 46.475 55.4074 46.7398 55.2363C46.8453 55.1684 46.9496 55.0992 47.0539 55.0301C47.3305 54.8473 47.6047 54.6586 47.8754 54.4641C48.0453 54.3434 48.2129 54.2203 48.3805 54.0961C48.548 53.9719 48.7133 53.8465 48.8773 53.7176L49.0742 53.5629C49.1727 53.4855 49.2711 53.407 49.3684 53.3273C49.4504 53.2617 49.5312 53.1949 49.6109 53.1281C49.7059 53.0496 49.7996 52.9711 49.8934 52.8914C50.5191 52.3605 51.1262 51.8004 51.7133 51.2133C51.8504 51.0762 51.9863 50.9379 52.1199 50.7984C52.2008 50.7152 52.2805 50.6309 52.359 50.5465C52.5137 50.3836 52.6637 50.2195 52.8137 50.0543C52.9555 49.8961 53.0961 49.7379 53.2344 49.5773C53.2484 49.5609 53.2625 49.5445 53.2766 49.5281C53.3598 49.432 53.4418 49.3348 53.5227 49.2375C53.6469 49.0898 53.7699 48.941 53.8906 48.791C53.941 48.7277 53.9914 48.6645 54.0418 48.6012C54.1133 48.5109 54.1836 48.4219 54.2539 48.3305C54.3242 48.2402 54.3945 48.1488 54.4637 48.0562C54.5797 47.9039 54.6934 47.7504 54.8047 47.5969C54.8621 47.5172 54.9195 47.4387 54.9758 47.359C54.9805 47.3543 54.984 47.3484 54.9887 47.3414C55.1117 47.1691 55.2336 46.9934 55.3531 46.8176C55.4316 46.7039 55.5078 46.5891 55.5828 46.4742C55.5863 46.4695 55.5898 46.4648 55.5934 46.459C55.5969 46.4531 55.6016 46.4473 55.6039 46.4414C55.652 46.3699 55.6988 46.2996 55.7445 46.227C55.7609 46.2012 55.7785 46.1754 55.7949 46.1484C55.8875 46.0031 55.9801 45.8566 56.0715 45.709C56.1477 45.5848 56.2227 45.4605 56.2977 45.3352C56.3715 45.2109 56.4453 45.0855 56.518 44.9602C56.7395 44.5781 56.9504 44.1914 57.1531 43.8012C57.2199 43.6723 57.2855 43.5434 57.35 43.4133L49.5805 38.9449C50.6258 36.7242 51.2949 34.2914 51.5047 31.7309L60.4508 31.7191C60.459 31.5762 60.466 31.4332 60.4719 31.2902C60.4848 31.0043 60.493 30.7184 60.4965 30.4312C60.4988 30.2871 60.5 30.1441 60.5 30C60.5 29.5195 60.4883 29.0414 60.466 28.5645ZM30.5 47.5605C20.8168 47.5605 12.9395 39.6832 12.9395 30C12.9395 20.3168 20.8168 12.4395 30.5 12.4395C40.1832 12.4395 48.0605 20.3168 48.0605 30C48.0605 39.6832 40.1832 47.5605 30.5 47.5605Z" fill="#E70020"/>
<path d="M42.9178 42.4178C39.6005 45.7335 35.1904 47.5605 30.5 47.5605V12.4395C35.1904 12.4395 39.6005 14.2666 42.9178 17.5822C46.2335 20.8993 48.0605 25.3096 48.0605 30C48.0605 34.6904 46.2335 39.1007 42.9178 42.4178Z" fill="#E1E1E4"/>
<path d="M60.5 30C60.5 30.1441 60.4988 30.2871 60.4965 30.4312C60.493 30.7184 60.4848 31.0043 60.4719 31.2902C60.466 31.4332 60.459 31.5762 60.4508 31.7191L51.5047 31.7309C51.2949 34.2914 50.6258 36.7242 49.5805 38.9449L57.35 43.4133C57.2855 43.5434 57.2199 43.6723 57.1531 43.8012C56.9504 44.1914 56.7395 44.5781 56.518 44.9602C56.4453 45.0855 56.3715 45.2109 56.2977 45.3352C56.2227 45.4605 56.1477 45.5848 56.0715 45.709C55.9801 45.8566 55.8875 46.0031 55.7949 46.1484C55.7785 46.1754 55.7609 46.2012 55.7445 46.227C55.6988 46.2996 55.652 46.3699 55.6039 46.4414C55.6016 46.4473 55.5969 46.4531 55.5934 46.459C55.5898 46.4648 55.5863 46.4695 55.5828 46.4742C55.5078 46.5891 55.4316 46.7039 55.3531 46.8176C55.2336 46.9934 55.1117 47.1691 54.9887 47.3414C54.984 47.3484 54.9805 47.3543 54.9758 47.359C54.9195 47.4387 54.8621 47.5172 54.8047 47.5969C54.6934 47.7504 54.5797 47.9039 54.4637 48.0562C54.3945 48.1488 54.3242 48.2402 54.2539 48.3305C54.1836 48.4219 54.1133 48.5109 54.0418 48.6012C53.9914 48.6645 53.941 48.7277 53.8906 48.791C53.7699 48.941 53.6469 49.0898 53.5227 49.2375C53.4418 49.3348 53.3598 49.432 53.2766 49.5281C53.2625 49.5445 53.2484 49.5609 53.2344 49.5773C53.0961 49.7379 52.9555 49.8961 52.8137 50.0543C52.6637 50.2195 52.5137 50.3836 52.359 50.5465C52.2805 50.6309 52.2008 50.7152 52.1199 50.7984C51.9863 50.9379 51.8504 51.0762 51.7133 51.2133C51.1262 51.8004 50.5191 52.3605 49.8934 52.8914C49.7996 52.9711 49.7059 53.0496 49.6109 53.1281C49.5312 53.1949 49.4504 53.2617 49.3684 53.3273C49.2711 53.407 49.1727 53.4855 49.0742 53.5629L48.8773 53.7176C48.7133 53.8465 48.548 53.9719 48.3805 54.0961C48.2129 54.2203 48.0453 54.3434 47.8754 54.4641C47.6047 54.6586 47.3305 54.8473 47.0539 55.0301C46.9496 55.0992 46.8453 55.1684 46.7398 55.2363C46.475 55.4074 46.2078 55.575 45.9371 55.7367C45.8188 55.8082 45.7004 55.8785 45.5809 55.9488C45.2926 56.1164 45.002 56.2805 44.7066 56.4375C44.607 56.4914 44.5063 56.5453 44.4055 56.598C44.2754 56.666 44.1453 56.7328 44.0152 56.7984L39.5176 49.0465C37.3004 50.1012 34.8699 50.7785 32.3105 50.9977L32.3328 59.9449C32.3141 59.9461 32.2965 59.9473 32.2789 59.9473C32.1453 59.9555 32.0105 59.9625 31.8758 59.9684C31.7516 59.9742 31.6273 59.9789 31.5031 59.9824C31.4973 59.9836 31.4902 59.9836 31.4844 59.9836C31.448 59.9859 31.4117 59.9859 31.3754 59.9871C31.366 59.9883 31.3566 59.9883 31.3473 59.9871C31.2512 59.9906 31.1539 59.993 31.0566 59.9941C30.8715 59.9988 30.6863 60 30.5 60V47.5605C40.1832 47.5605 48.0605 39.6832 48.0605 30C48.0605 20.3168 40.1832 12.4395 30.5 12.4395V0C30.6453 0 30.7906 0.00117187 30.9348 0.00351562C31.0051 0.0046875 31.0766 0.00585938 31.1469 0.00703125C31.2172 0.00820312 31.2875 0.0105469 31.3578 0.0128906C31.5383 0.0175781 31.7176 0.0246094 31.8969 0.0328125C31.9578 0.0351562 32.0176 0.0375 32.0773 0.0410156C32.1371 0.0433594 32.198 0.046875 32.2578 0.0515625C32.5109 0.0644531 32.7641 0.0820312 33.016 0.104297C33.1145 0.111328 33.2129 0.119531 33.3102 0.130078C33.3113 0.128906 33.3125 0.128906 33.3148 0.130078C33.5949 0.155859 33.8738 0.185156 34.1527 0.219141C34.2406 0.229687 34.3285 0.240234 34.4152 0.251953C35.0586 0.335156 35.6961 0.438281 36.3289 0.563672C36.391 0.575391 36.452 0.587109 36.5141 0.6C36.5961 0.616406 36.677 0.632812 36.7578 0.650391C36.875 0.675 36.991 0.699609 37.107 0.725391C37.1938 0.745313 37.2793 0.764062 37.3648 0.785156C37.468 0.808594 37.5688 0.833203 37.6707 0.857813C37.7609 0.880078 37.8512 0.902344 37.9402 0.924609C38.6129 1.0957 39.2785 1.28906 39.9359 1.50703C40.0379 1.54102 40.1398 1.575 40.2418 1.61016C40.3977 1.66289 40.5523 1.7168 40.707 1.77305C40.7949 1.80469 40.8816 1.83633 40.9684 1.86914C41.082 1.91133 41.1957 1.95469 41.3094 1.99805C41.423 2.04141 41.5367 2.08594 41.6492 2.13164C42.098 2.31094 42.5434 2.50195 42.984 2.70352C43.0648 2.73984 43.1457 2.77734 43.2266 2.81602C43.3074 2.85352 43.3871 2.89219 43.468 2.93086C43.5488 2.96953 43.6285 3.0082 43.7082 3.04805C43.7891 3.08672 43.8688 3.12656 43.9484 3.16758C44.2848 3.33516 44.6164 3.50977 44.9445 3.69141C45.0031 3.72305 45.0605 3.75469 45.118 3.7875C45.2445 3.85781 45.3688 3.92812 45.493 4.00078C45.6055 4.06523 45.7168 4.13086 45.8281 4.19766C45.9559 4.27383 46.0824 4.35 46.209 4.42852C46.2383 4.44609 46.2687 4.46484 46.2969 4.48359C46.407 4.55156 46.5172 4.62188 46.6273 4.69219C46.7492 4.76953 46.8699 4.84805 46.9906 4.92773L42.5117 12.6926C44.5684 14.1234 46.359 15.9117 47.7922 17.966L55.5512 13.4777C55.7949 13.8457 56.0305 14.2184 56.2566 14.5957C56.3211 14.7023 56.3844 14.8102 56.4488 14.9191C56.5203 15.041 56.5906 15.1641 56.6598 15.2883C56.6961 15.3504 56.7301 15.4125 56.7641 15.4758C56.8977 15.7148 57.0277 15.9562 57.1531 16.1988C57.2082 16.3055 57.2633 16.4109 57.316 16.5176C57.4074 16.698 57.4977 16.8797 57.5844 17.0637C57.623 17.1434 57.6605 17.2242 57.698 17.3039C57.7109 17.332 57.725 17.359 57.7367 17.3871C57.7719 17.4633 57.807 17.5383 57.841 17.6145C57.8844 17.7094 57.9266 17.8043 57.9688 17.9004C58.0168 18.007 58.0637 18.1148 58.1094 18.2227C58.1504 18.3199 58.1914 18.416 58.2313 18.5133C58.2781 18.6258 58.3238 18.7383 58.3684 18.8508C58.5008 19.1789 58.6262 19.5105 58.7445 19.8434C58.7867 19.9594 58.8277 20.0754 58.8676 20.1926C59.1512 21.0141 59.3984 21.8484 59.6094 22.6945C59.6398 22.8211 59.6703 22.9477 59.7008 23.0742C59.7535 23.2957 59.8027 23.5184 59.8496 23.7422C59.8754 23.8617 59.9 23.9812 59.9234 24.102C59.948 24.2215 59.9703 24.3422 59.9926 24.4629C60.0137 24.5719 60.0336 24.682 60.0523 24.7922C60.0969 25.0441 60.1367 25.2984 60.1742 25.5527C60.193 25.6734 60.2094 25.7953 60.2258 25.9172C60.2434 26.0391 60.2586 26.1621 60.2738 26.284C60.3148 26.6238 60.3512 26.9648 60.3816 27.307C60.4074 27.6059 60.4297 27.9047 60.4473 28.2035C60.4496 28.2492 60.4531 28.2938 60.4543 28.3383C60.459 28.4133 60.4625 28.4895 60.466 28.5645C60.4883 29.0414 60.5 29.5195 60.5 30Z" fill="#990013"/>
<path d="M38.9057 33.3908C37.5865 35.5452 35.7476 36.0093 34.4375 36.0191C33.7565 36.0244 33.0748 35.9053 32.4259 35.6718C32.5684 36.2605 32.7512 36.581 32.9051 36.6891L33.1458 36.8584V38.4375H27.8554V36.8583L28.0961 36.6889C28.25 36.5809 28.4328 36.2604 28.5753 35.6716C27.9264 35.9052 27.2451 36.0243 26.5637 36.019C25.2536 36.0091 23.4148 35.5451 22.0955 33.3907C21.0321 31.6539 21.0041 29.5941 22.0184 27.7397C22.801 26.3082 24.0136 25.1674 25.1862 24.064C25.3926 23.8702 25.5871 23.6869 25.7811 23.5009C26.5077 22.8029 27.2436 22.1303 27.9546 21.48C28.6609 20.8342 29.3914 20.1664 30.1078 19.4783L30.5007 19.1016L30.8932 19.4783C31.6097 20.1664 32.3402 20.8342 33.0464 21.48C33.7577 22.1304 34.4934 22.8029 35.22 23.5009C35.4139 23.6869 35.6085 23.87 35.8149 24.064C36.9875 25.1674 38.2001 26.3082 38.9827 27.7397C39.9971 29.5941 39.9691 31.654 38.9057 33.3908Z" fill="#3C3A41"/>
<path d="M38.905 33.3908C37.5859 35.5452 35.747 36.0093 34.4368 36.0191C33.7558 36.0244 33.0741 35.9053 32.4253 35.6718C32.5678 36.2605 32.7506 36.581 32.9045 36.6891L33.1452 36.8584V38.4375H30.5V19.1016L30.8926 19.4783C31.6091 20.1664 32.3395 20.8342 33.0458 21.48C33.757 22.1304 34.4927 22.8029 35.2194 23.5009C35.4132 23.6869 35.6079 23.87 35.8142 24.064C36.9868 25.1674 38.1995 26.3082 38.982 27.7397C39.9964 29.5941 39.9684 31.654 38.905 33.3908Z" fill="#17171A"/>
</g>
<defs>
<clipPath id="clip0_50_18527">
<rect width="60" height="60" fill="white" transform="translate(0.5)"/>
</clipPath>
</defs>
</svg>
