<svg width="61" height="60" viewBox="0 0 61 60" fill="none" xmlns="http://www.w3.org/2000/svg">
<g clip-path="url(#clip0_50_18579)">
<path d="M30.5 60C47.0685 60 60.5 46.5685 60.5 30C60.5 13.4315 47.0685 0 30.5 0C13.9315 0 0.5 13.4315 0.5 30C0.5 46.5685 13.9315 60 30.5 60Z" fill="#F7A16E"/>
<path d="M30.5002 60C47.0687 60 60.5002 46.5686 60.5002 30C60.5002 20.4132 56.0032 11.8768 49.0037 6.38477C47.7406 7.80707 47.7899 9.98512 49.1524 11.3478C54.1347 16.3301 56.8784 22.9543 56.8784 30C56.8784 37.0458 54.1345 43.67 49.1524 48.6523C44.1703 53.6346 37.5459 56.3784 30.5002 56.3784C23.4544 56.3784 16.8302 53.6345 11.8479 48.6524C10.4851 47.2896 8.30719 47.2405 6.88477 48.5037C12.3769 55.5031 20.9133 60 30.5002 60Z" fill="#B66652"/>
<path d="M50.987 18.1715C48.9081 14.5847 45.9149 11.5914 42.328 9.5125L30.4998 6.33789C26.194 6.33789 22.1534 7.49453 18.6715 9.51273L10.0125 18.1717C7.99453 21.6534 6.83789 25.694 6.83789 29.9998L10.0127 41.8281C12.0916 45.4149 15.0848 48.4082 18.6717 50.4871L30.4998 53.6617C34.8056 53.6617 38.8463 52.5051 42.3281 50.4869L50.9871 41.8279C53.0052 38.3461 54.162 34.3054 54.162 29.9996L50.987 18.1715Z" fill="#4D5967"/>
<path d="M6.83789 30C6.83789 34.3058 7.99453 38.3464 10.0127 41.8283L30.4998 30H6.83789Z" fill="#FF5368"/>
<path d="M18.6707 9.51172C15.0839 11.5906 12.0906 14.5838 10.0117 18.1707L30.499 29.9989L18.6707 9.51172Z" fill="#FF5368"/>
<path d="M42.3283 9.51262C38.8464 7.49453 34.8058 6.33789 30.5 6.33789V29.9998L42.3283 9.51262Z" fill="#FF5368"/>
<path d="M18.6719 50.4872C22.1537 52.5054 26.1944 53.662 30.5002 53.662V30L18.6719 50.4872Z" fill="#FF5368"/>
<path d="M18.6719 50.4872C22.1537 52.5054 26.1944 53.662 30.5002 53.662V30L18.6719 50.4872Z" fill="#FF5368"/>
<path d="M30.5 30.0002H54.1619C54.1619 25.6944 53.0053 21.6537 50.9871 18.1719L30.5 30.0002Z" fill="#FF5368"/>
<path d="M42.3283 50.4872C45.9151 48.4083 48.9084 45.4151 50.9873 41.8282L30.5 30L42.3283 50.4872Z" fill="#4FE267"/>
<path d="M54.1612 30.0004L50.9864 18.1721C48.9075 14.5854 45.9143 11.592 42.3274 9.51313L38.8292 8.57422C38.414 10.1176 39.0625 11.807 40.5111 12.6465C46.697 16.2318 50.5395 22.8813 50.5395 30.0004C50.5395 33.5182 49.6106 36.9804 47.8529 40.0127C44.268 46.1981 37.6186 50.0407 30.4993 50.0407C26.9817 50.0407 23.5195 49.1117 20.4871 47.3541C18.8376 46.3981 16.7483 46.8897 15.6875 48.436C16.6265 49.192 17.6225 49.8798 18.671 50.4875L30.4993 53.6623C34.8051 53.6623 38.8457 52.5057 42.3276 50.4875L50.9866 41.8285C53.0046 38.3469 54.1612 34.3063 54.1612 30.0004Z" fill="#35404A"/>
<path d="M39.0649 7.94531C38.2513 9.63434 38.8633 11.6914 40.5123 12.647C40.514 12.648 40.5158 12.6492 40.5175 12.6502L42.3284 9.51363C41.2882 8.9107 40.197 8.38652 39.0649 7.94531Z" fill="#D9435B"/>
<path d="M20.4827 47.3516L18.6719 50.4879C22.1537 52.5061 26.1944 53.6627 30.5002 53.6627V50.0409C26.9826 50.0409 23.5204 49.112 20.488 47.3544C20.4864 47.3533 20.4844 47.3525 20.4827 47.3516Z" fill="#D9435B"/>
<path d="M42.3286 50.4875C45.9154 48.4086 48.9087 45.4154 50.9876 41.8285L47.8509 40.0176C46.0604 43.1048 43.5064 45.6079 40.5117 47.3405L42.3286 50.4875Z" fill="#00BD4F"/>
<path d="M47.8398 19.9889C49.577 22.9916 50.5398 26.437 50.5398 30.0002H54.1615C54.1615 25.6944 53.0049 21.6537 50.9867 18.1719L47.8398 19.9889Z" fill="#D9435B"/>
<path d="M30.4993 39.1744C25.514 39.1744 21.3242 35.0991 21.3242 29.9993C21.3242 24.9402 25.4402 20.8242 30.4993 20.8242C35.5584 20.8242 39.6744 24.9402 39.6744 29.9993C39.6744 35.1135 35.4698 39.1744 30.4993 39.1744Z" fill="#F7A16E"/>
<path d="M39.6759 29.9992C39.6759 26.1679 37.3144 22.8791 33.9712 21.5078C33.0348 22.9146 33.1868 24.8316 34.4276 26.0724C36.5929 28.2377 36.5929 31.7608 34.4276 33.9261C32.2623 36.0913 28.7392 36.0913 26.5739 33.9261C25.334 32.6859 23.4183 32.5333 22.0117 33.4677C23.3958 36.8273 26.7183 39.1743 30.5007 39.1743C35.4713 39.1743 39.6759 35.1134 39.6759 29.9992Z" fill="#B66652"/>
<path d="M35.2087 28.2982C34.6019 28.2982 34.0706 28.6168 33.7693 29.0948H31.4059V26.7314C31.8839 26.43 32.2025 25.8988 32.2025 25.292C32.2025 24.352 31.4403 23.5898 30.5003 23.5898C29.5604 23.5898 28.7982 24.352 28.7982 25.292C28.7982 25.8988 29.1168 26.4301 29.5948 26.7314V29.0948H27.2314C26.93 28.6167 26.3988 28.2982 25.792 28.2982C24.852 28.2982 24.0898 29.0604 24.0898 30.0004C24.0898 30.9403 24.8521 31.7025 25.792 31.7025C26.3988 31.7025 26.9301 31.3839 27.2314 30.9059H29.5948V33.2693C29.1167 33.5707 28.7982 34.1019 28.7982 34.7087C28.7982 35.6487 29.5604 36.4109 30.5003 36.4109C31.4403 36.4109 32.2025 35.6487 32.2025 34.7087C32.2025 34.1019 31.8839 33.5706 31.4059 33.2693V30.9059H33.7693C34.0707 31.3839 34.6019 31.7025 35.2087 31.7025C36.1487 31.7025 36.9109 30.9403 36.9109 30.0004C36.9109 29.0604 36.1487 28.2982 35.2087 28.2982Z" fill="#FFF9EB"/>
<path d="M17.4613 18.7722C18.4614 18.7722 19.2722 17.9614 19.2722 16.9613C19.2722 15.9612 18.4614 15.1504 17.4613 15.1504C16.4612 15.1504 15.6504 15.9612 15.6504 16.9613C15.6504 17.9614 16.4612 18.7722 17.4613 18.7722Z" fill="#FFF9EB"/>
</g>
<defs>
<clipPath id="clip0_50_18579">
<rect width="60" height="60" fill="white" transform="translate(0.5)"/>
</clipPath>
</defs>
</svg>
