<svg width="47" height="60" viewBox="0 0 47 60" fill="none" xmlns="http://www.w3.org/2000/svg">
<path d="M35.5703 58.8281H11.5469C10.5761 58.8281 9.78906 58.0411 9.78906 57.0703V39.9609C9.78906 38.9902 10.5761 38.2031 11.5469 38.2031H35.5703C36.5411 38.2031 37.3281 38.9902 37.3281 39.9609V57.0703C37.3281 58.0411 36.5411 58.8281 35.5703 58.8281Z" fill="#5E54AC"/>
<path d="M35.5703 38.2031H23.5V58.8281H35.5703C36.5411 58.8281 37.3281 58.0411 37.3281 57.0703V39.9609C37.3281 38.9902 36.5411 38.2031 35.5703 38.2031Z" fill="#453D81"/>
<path d="M23.5 46.9922C34.5349 46.9922 43.4805 38.0466 43.4805 27.0117C43.4805 15.9768 34.5349 7.03125 23.5 7.03125C12.4651 7.03125 3.51953 15.9768 3.51953 27.0117C3.51953 38.0466 12.4651 46.9922 23.5 46.9922Z" fill="#FFF4F4"/>
<path d="M23.5 7.03125V46.9922C34.5173 46.9922 43.4805 38.029 43.4805 27.0117C43.4805 15.9945 34.5173 7.03125 23.5 7.03125Z" fill="#F6EFEA"/>
<path d="M23.5582 26.9441L14.8027 5.71875H32.3136L23.5582 26.9441Z" fill="#E78EF4"/>
<path d="M23.5 5.71875V26.8021L23.5586 26.9441L32.314 5.71875H23.5Z" fill="#B473F1"/>
<path d="M23.5582 26.9629L14.8027 48.1882H32.3136L23.5582 26.9629Z" fill="#E78EF4"/>
<path d="M23.5 48.1882H32.314L23.5586 26.9629L23.5 27.1049V48.1882Z" fill="#B473F1"/>
<path d="M23.5684 26.9531L44.783 18.1719L44.8043 35.6827L23.5684 26.9531Z" fill="#B473F1"/>
<path d="M23.5484 26.9523L2.3125 18.2227L2.33371 35.7335L23.5484 26.9523Z" fill="#E78EF4"/>
<path d="M23.5 50.5078C10.5442 50.5078 0.00390625 39.9675 0.00390625 27.0117C0.00390625 14.0559 10.5442 3.51562 23.5 3.51562C36.4558 3.51562 46.9961 14.0559 46.9961 27.0117C46.9961 39.9675 36.4558 50.5078 23.5 50.5078ZM23.5 7.03125C12.4827 7.03125 3.51953 15.9945 3.51953 27.0117C3.51953 38.029 12.4827 46.9922 23.5 46.9922C34.5173 46.9922 43.4805 38.029 43.4805 27.0117C43.4805 15.9945 34.5173 7.03125 23.5 7.03125Z" fill="#FFD845"/>
<path d="M23.5586 32.8125C26.7946 32.8125 29.418 30.1892 29.418 26.9531C29.418 23.7171 26.7946 21.0938 23.5586 21.0938C20.3226 21.0938 17.6992 23.7171 17.6992 26.9531C17.6992 30.1892 20.3226 32.8125 23.5586 32.8125Z" fill="#5E54AC"/>
<path d="M23.5586 21.0938C23.5389 21.0938 23.5196 21.095 23.5 21.0953V32.8111C23.5196 32.8113 23.5389 32.8126 23.5586 32.8126C26.7895 32.8126 29.418 30.1841 29.418 26.9532C29.418 23.7224 26.7895 21.0938 23.5586 21.0938Z" fill="#453D81"/>
<path d="M23.5 3.51562V7.03125C34.5173 7.03125 43.4805 15.9945 43.4805 27.0117C43.4805 38.029 34.5173 46.9922 23.5 46.9922V50.5078C36.4558 50.5078 46.9961 39.9675 46.9961 27.0117C46.9961 14.0559 36.4558 3.51562 23.5 3.51562Z" fill="#FFB454"/>
<path d="M29.9694 0.450703C29.8141 0.1725 29.5204 0 29.2018 0H17.916C17.5974 0 17.3037 0.1725 17.1485 0.450703C16.9932 0.728906 17.0008 1.06945 17.1682 1.34062L22.811 10.4813C22.971 10.7406 23.254 10.8984 23.5589 10.8984C23.8637 10.8984 24.1467 10.7406 24.3067 10.4813L29.9496 1.34062C30.1171 1.06945 30.1245 0.729023 29.9694 0.450703Z" fill="#FF7D47"/>
<path d="M29.969 0.450703C29.8137 0.1725 29.52 0 29.2014 0H23.5V10.8947C23.5196 10.896 23.5389 10.8984 23.5586 10.8984C23.8634 10.8984 24.1464 10.7406 24.3065 10.4813L29.9493 1.34062C30.1168 1.06945 30.1241 0.729023 29.969 0.450703Z" fill="#FF405C"/>
<path d="M40.082 60H7.03516C6.06437 60 5.27734 59.213 5.27734 58.2422C5.27734 57.2714 6.06437 56.4844 7.03516 56.4844H40.082C41.0528 56.4844 41.8398 57.2714 41.8398 58.2422C41.8398 59.213 41.0528 60 40.082 60Z" fill="#453D81"/>
<path d="M40.082 56.4844H23.5V60H40.082C41.0528 60 41.8398 59.213 41.8398 58.2422C41.8398 57.2714 41.0528 56.4844 40.082 56.4844Z" fill="#001035"/>
</svg>
