<svg width="61" height="64" viewBox="0 0 61 64" fill="none" xmlns="http://www.w3.org/2000/svg">
<path d="M25.2803 21.6875C21.3782 21.6875 18.2148 24.8509 18.2148 28.753V56.9058C18.2148 60.8079 21.3782 63.9712 25.2803 63.9712H39.3567L50.4076 42.2853L39.3567 21.6875H25.2803Z" fill="white"/>
<path d="M53.4338 21.6875H39.3574V63.9712H53.4338C57.3359 63.9712 60.4993 60.8079 60.4993 56.9058V28.7531C60.4993 24.8509 57.3359 21.6875 53.4338 21.6875Z" fill="#E5E5E5"/>
<path d="M49.7535 57.5344C52.1329 57.5344 54.0617 55.6055 54.0617 53.2262C54.0617 50.8468 52.1329 48.918 49.7535 48.918C47.3742 48.918 45.4453 50.8468 45.4453 53.2262C45.4453 55.6055 47.3742 57.5344 49.7535 57.5344Z" fill="#582AA0"/>
<path d="M28.9566 36.7375C31.336 36.7375 33.2649 34.8087 33.2649 32.4293C33.2649 30.0499 31.336 28.1211 28.9566 28.1211C26.5773 28.1211 24.6484 30.0499 24.6484 32.4293C24.6484 34.8087 26.5773 36.7375 28.9566 36.7375Z" fill="#9645D6"/>
<path d="M28.9566 57.5324C31.336 57.5324 33.2649 55.6036 33.2649 53.2242C33.2649 50.8449 31.336 48.916 28.9566 48.916C26.5773 48.916 24.6484 50.8449 24.6484 53.2242C24.6484 55.6036 26.5773 57.5324 28.9566 57.5324Z" fill="#9645D6"/>
<path d="M49.7535 36.7356C52.1329 36.7356 54.0617 34.8067 54.0617 32.4274C54.0617 30.048 52.1329 28.1191 49.7535 28.1191C47.3742 28.1191 45.4453 30.048 45.4453 32.4274C45.4453 34.8067 47.3742 36.7356 49.7535 36.7356Z" fill="#582AA0"/>
<path d="M7.56545 0C3.66337 0 0.5 3.16337 0.5 7.06545V35.2183C0.5 39.1204 3.66337 42.2837 7.56545 42.2837H21.6419L34.642 21.1419L21.6419 0H7.56545Z" fill="#9645D6"/>
<path d="M35.719 0H21.6426V42.2837H35.719C39.6211 42.2837 42.7845 39.1204 42.7845 35.2183V7.06545C42.7845 3.16337 39.6211 0 35.719 0Z" fill="#582AA0"/>
<path d="M32.0426 35.8488C34.4219 35.8488 36.3508 33.92 36.3508 31.5406C36.3508 29.1613 34.4219 27.2324 32.0426 27.2324C29.6632 27.2324 27.7344 29.1613 27.7344 31.5406C27.7344 33.92 29.6632 35.8488 32.0426 35.8488Z" fill="#E5E5E5"/>
<path d="M11.2457 15.052C13.6251 15.052 15.5539 13.1231 15.5539 10.7438C15.5539 8.3644 13.6251 6.43555 11.2457 6.43555C8.86635 6.43555 6.9375 8.3644 6.9375 10.7438C6.9375 13.1231 8.86635 15.052 11.2457 15.052Z" fill="white"/>
<path d="M18.5959 18.0958C16.9133 19.7784 16.9133 22.506 18.5959 24.1886C19.4372 25.0299 20.5396 25.4504 21.6423 25.4504L24.1859 21.1422L21.6423 16.834C20.5398 16.834 19.4372 17.2545 18.5959 18.0958Z" fill="white"/>
<path d="M24.689 18.0958C23.8477 17.2545 22.7452 16.834 21.6426 16.834V25.4504C22.7452 25.4504 23.8477 25.0299 24.689 24.1886C26.3713 22.506 26.3713 19.7782 24.689 18.0958Z" fill="#E5E5E5"/>
</svg>
