<svg width="51" height="56" viewBox="0 0 51 56" fill="none" xmlns="http://www.w3.org/2000/svg">
<path d="M21.0083 1.65002L4.56132 11.2079C1.82825 12.7962 0.142959 15.7152 0.134005 18.8763L0.0820671 37.2127C0.0730372 40.4005 1.77012 43.3496 4.53087 44.9435L21.0839 54.5005C23.8449 56.0945 27.2477 56.0897 30.0041 54.4878L46.4507 44.9301C49.1838 43.3419 50.8691 40.4228 50.8781 37.2618L50.93 18.9257C50.939 15.7377 49.2418 12.7884 46.4809 11.1943L29.9278 1.63739C27.1671 0.0434529 23.7645 0.0482709 21.0083 1.65002Z" fill="#EFAE1D"/>
<path d="M47.143 11.6196L29.7571 1.40331C27.1522 -0.110463 23.889 -0.0298261 21.2799 1.47656L3.67855 11.6387C2.40351 12.3748 2.4009 14.2143 3.67385 14.954L18.9688 23.8424C22.8964 26.1249 27.7449 26.1317 31.6789 23.8604L47.1383 14.935C48.4133 14.1988 48.4159 12.3594 47.143 11.6196Z" fill="#FCD441"/>
<path d="M47.1384 14.934L45.5082 15.8756C41.9928 8.56806 34.3155 3.50082 25.4087 3.50082C16.4928 3.50082 8.80818 8.57715 5.29828 15.8975L3.67358 14.954C2.40035 14.2145 2.404 12.3748 3.679 11.639L21.2796 1.47722C23.8896 -0.029111 27.1518 -0.111066 29.7565 1.40253L47.142 11.619C48.4152 12.3584 48.4134 14.1981 47.1384 14.934Z" fill="#FEC226"/>
<path d="M27.2042 5.83476C28.4761 6.56908 28.4829 7.75845 27.2192 8.49281C25.9555 9.22717 23.9009 9.22793 22.629 8.4936C21.357 7.75923 21.349 6.56756 22.6126 5.8332C23.8763 5.09884 25.9323 5.10039 27.2042 5.83476Z" fill="#474746"/>
<path d="M27.7441 8.09019C27.653 8.18545 27.5429 8.27859 27.418 8.36542C27.4096 7.88908 27.0898 7.41274 26.461 7.0507C25.1887 6.31817 23.133 6.31608 21.8692 7.0507C21.7993 7.09094 21.7315 7.13327 21.6701 7.17772C21.668 7.06339 21.6828 6.9512 21.7188 6.83899C21.8247 6.47062 22.1232 6.11918 22.6123 5.83338C23.8761 5.09876 25.9318 5.10086 27.2042 5.83338C28.2627 6.44522 28.4447 7.3725 27.7441 8.09019Z" fill="#232323"/>
<path d="M38.9679 12.6258C40.2398 13.3601 40.2465 14.5495 38.9829 15.2838C37.7192 16.0182 35.6645 16.0189 34.3926 15.2846C33.1207 14.5502 33.1126 13.3586 34.3763 12.6242C35.64 11.8899 37.6959 11.8914 38.9679 12.6258Z" fill="#474746"/>
<path d="M39.5078 14.8812C39.4167 14.9765 39.3066 15.0696 39.1817 15.1564C39.1732 14.6801 38.8535 14.2038 38.2247 13.8417C36.9524 13.1092 34.8967 13.1071 33.6329 13.8417C33.563 13.882 33.4952 13.9243 33.4338 13.9687C33.4317 13.8544 33.4465 13.7422 33.4825 13.63C33.5883 13.2616 33.8869 12.9102 34.3759 12.6244C35.6398 11.8898 37.6954 11.8919 38.9678 12.6244C40.0264 13.2362 40.2084 14.1635 39.5078 14.8812Z" fill="#232323"/>
<path d="M28.673 18.6101C29.9449 19.3445 29.9516 20.5338 28.688 21.2682C27.4243 22.0026 25.3696 22.0033 24.0977 21.269C22.8258 20.5346 22.8177 19.343 24.0814 18.6086C25.345 17.8742 27.401 17.8758 28.673 18.6101Z" fill="#474746"/>
<path d="M29.2128 20.8656C29.1218 20.9608 29.0117 21.054 28.8868 21.1408C28.8783 20.6645 28.5586 20.1881 27.9298 19.8261C26.6575 19.0936 24.6018 19.0915 23.338 19.8261C23.2681 19.8663 23.2003 19.9087 23.1389 19.9531C23.1368 19.8388 23.1516 19.7266 23.1875 19.6144C23.2934 19.246 23.5919 18.8946 24.081 18.6088C25.3448 17.8742 27.4005 17.8762 28.6729 18.6088C29.7315 19.2206 29.9135 20.1479 29.2128 20.8656Z" fill="#232323"/>
<path d="M16.9093 11.8172C18.1812 12.5515 18.1879 13.7409 16.9243 14.4752C15.6606 15.2096 13.6059 15.2104 12.3341 14.476C11.0621 13.7417 11.054 12.55 12.3177 11.8156C13.5814 11.0813 15.6373 11.0828 16.9093 11.8172Z" fill="#474746"/>
<path d="M17.4492 14.0726C17.3581 14.1679 17.248 14.261 17.1231 14.3478C17.1146 13.8715 16.7949 13.3952 16.1661 13.0331C14.8938 12.3006 12.8381 12.2985 11.5743 13.0331C11.5044 13.0734 11.4366 13.1157 11.3752 13.1601C11.3731 13.0458 11.3879 12.9336 11.4239 12.8214C11.5297 12.453 11.8283 12.1016 12.3173 11.8158C13.5812 11.0812 15.6368 11.0833 16.9092 11.8158C17.9678 12.4276 18.1498 13.3549 17.4492 14.0726Z" fill="#232323"/>
<path d="M50.8355 37.3326L50.7865 20.0438C50.7803 17.8411 48.395 16.4685 46.4874 17.5699L30.2187 26.9626C27.8322 28.3404 26.3653 30.8897 26.3731 33.6453L26.4285 53.1791C26.4326 54.6351 28.0094 55.5425 29.2704 54.8145L46.4997 44.8671C49.1904 43.3136 50.8443 40.4395 50.8355 37.3326Z" fill="#FCD441"/>
<path d="M50.8346 37.3319C50.8436 40.4392 49.1898 43.3135 46.4996 44.8671L29.2706 54.814C28.0084 55.5425 26.4329 54.6355 26.4274 53.1783L26.4219 51.1839C38.9097 50.8706 48.9311 40.8126 48.9311 28.4487C48.9311 24.5727 47.9458 20.9226 46.2082 17.7296L46.4868 17.5693C48.3939 16.4692 50.78 17.8407 50.7854 20.0447L50.8346 37.3319Z" fill="#FEC226"/>
<path d="M42.733 35.7055C43.8273 35.0737 44.7163 35.5803 44.7199 36.8378C44.7235 38.0952 43.8402 39.6278 42.7459 40.2596C41.6516 40.8914 40.7614 40.3827 40.7578 39.1253C40.7543 37.8678 41.6387 36.3373 42.733 35.7055Z" fill="#474746"/>
<path d="M44.7206 36.8369C44.7243 38.0955 43.8409 39.6273 42.7461 40.2594C42.0796 40.6455 41.4876 40.6054 41.127 40.2302C41.3674 40.2102 41.6333 40.1228 41.912 39.9625C43.0066 39.3304 43.8901 37.7986 43.8864 36.5418C43.8845 36.0519 43.7498 35.6766 43.5185 35.438C44.2234 35.3797 44.7188 35.9007 44.7206 36.8369Z" fill="#232323"/>
<path d="M37.9381 32.975C39.0324 32.3432 39.9214 32.8499 39.925 34.1073C39.9286 35.3648 39.0453 36.8973 37.951 37.5291C36.8567 38.1609 35.9665 37.6523 35.9629 36.3948C35.9593 35.1374 36.8438 33.6068 37.9381 32.975Z" fill="#474746"/>
<path d="M39.9257 34.1064C39.9294 35.365 39.0459 36.8968 37.9512 37.5289C37.2846 37.915 36.6927 37.875 36.332 37.4997C36.5724 37.4797 36.8383 37.3923 37.1171 37.232C38.2117 36.6 39.0951 35.0681 39.0915 33.8113C39.0896 33.3214 38.9549 32.9462 38.7235 32.7075C39.4285 32.6493 39.9238 33.1702 39.9257 34.1064Z" fill="#232323"/>
<path d="M33.1412 30.2407C34.2355 29.6088 35.1245 30.1155 35.1281 31.3729C35.1317 32.6304 34.2484 34.1629 33.1541 34.7947C32.0598 35.4265 31.1696 34.9179 31.166 33.6604C31.1625 32.403 32.0469 30.8724 33.1412 30.2407Z" fill="#474746"/>
<path d="M35.1288 31.372C35.1325 32.6307 34.2491 34.1625 33.1543 34.7945C32.4878 35.1807 31.8958 35.1406 31.5352 34.7654C31.7756 34.7453 32.0415 34.6579 32.3202 34.4976C33.4148 33.8656 34.2983 32.3338 34.2946 31.077C34.2927 30.587 34.158 30.2118 33.9267 29.9732C34.6316 29.9149 35.127 30.4358 35.1288 31.372Z" fill="#232323"/>
<path d="M0.0703475 37.3326L0.119367 20.0438C0.125612 17.8411 2.51087 16.4685 4.41845 17.5699L20.6872 26.9626C23.0736 28.3404 24.5406 30.8897 24.5328 33.6453L24.4774 53.1791C24.4733 54.6351 22.8965 55.5425 21.6355 54.8145L4.40615 44.8671C1.71551 43.3136 0.0615385 40.4395 0.0703475 37.3326Z" fill="#FCD441"/>
<path d="M0.0703496 37.3319C0.0612779 40.4392 1.71515 43.3135 4.40532 44.8671L21.6343 54.814C22.8965 55.5425 24.472 54.6355 24.4775 53.1783L24.483 51.1839C11.9952 50.8706 1.97378 40.8126 1.97378 28.4487C1.97378 24.5727 2.95912 20.9226 4.69677 17.7296L4.41813 17.5693C2.51105 16.4692 0.124958 17.8407 0.119533 20.0447L0.0703496 37.3319Z" fill="#FEC226"/>
<path d="M12.31 32.5247C10.7484 31.6231 9.47971 32.3461 9.47462 34.1405C9.46954 35.9349 10.7299 38.1218 12.2916 39.0235C13.8531 39.925 15.1235 39.1992 15.1286 37.4048C15.1337 35.6104 13.8715 33.4263 12.31 32.5247Z" fill="#474746"/>
<path d="M9.47463 34.1392C9.46942 35.9353 10.7301 38.1212 12.2923 39.0232C13.2435 39.5742 14.0882 39.517 14.6029 38.9816C14.2598 38.953 13.8803 38.8282 13.4826 38.5995C11.9205 37.6976 10.6599 35.5116 10.6651 33.7182C10.6677 33.019 10.86 32.4835 11.1901 32.143C10.1842 32.0599 9.47729 32.8032 9.47463 34.1392Z" fill="#232323"/>
<path d="M3.87124 29.4507C3.89609 28.0145 4.06438 26.9121 3.82921 26.9339C3.59484 26.9557 3.09809 28.2252 3.07324 29.6615C3.04837 31.0987 3.50483 32.1577 3.7392 32.1359C3.97437 32.114 3.84638 30.8879 3.87124 29.4507Z" fill="white"/>
<path d="M3.57445 32.0206C3.37647 31.6031 3.18606 30.8225 3.20239 29.8798C3.2278 28.4757 3.70133 27.2284 3.94254 27.1568C3.92792 27.0076 3.89301 26.9268 3.82865 26.9319C3.59511 26.9559 3.09894 28.2237 3.07324 29.6592C3.05344 30.8083 3.33922 31.715 3.57445 32.0206Z" fill="#DCE0F4"/>
<path d="M4.30647 24.9405C4.37762 24.528 4.3584 24.2298 4.25401 24.2099C4.14997 24.19 3.87817 24.5017 3.80702 24.9143C3.73583 25.3271 3.89229 25.6844 3.99633 25.7042C4.10073 25.7242 4.23528 25.3534 4.30647 24.9405Z" fill="white"/>
<path d="M3.91259 25.6224C3.85727 25.4819 3.82781 25.2682 3.86752 25.0408C3.93761 24.6275 4.20944 24.3165 4.31156 24.3369C4.31921 24.3365 4.33045 24.341 4.33768 24.3509C4.32576 24.2696 4.29365 24.2148 4.25182 24.2119C4.14968 24.1916 3.87789 24.5025 3.80778 24.9158C3.75707 25.2258 3.82993 25.4986 3.91259 25.6224Z" fill="#DCE0F4"/>
</svg>
