<svg width="61" height="60" viewBox="0 0 61 60" fill="none" xmlns="http://www.w3.org/2000/svg">
<path d="M3.77734 8.3346V33.224C3.77734 33.753 4.20617 34.1817 4.73499 34.1817C5.26393 34.1817 5.69264 33.753 5.69264 33.224V8.3346C5.69264 7.80566 5.26393 7.37695 4.73499 7.37695C4.20617 7.37695 3.77734 7.80578 3.77734 8.3346Z" fill="url(#paint0_linear_50_18668)"/>
<path d="M3.77734 8.3346V33.224C3.77734 33.753 4.20617 34.1817 4.73499 34.1817C5.26393 34.1817 5.69264 33.753 5.69264 33.224V8.3346C5.69264 7.80566 5.26393 7.37695 4.73499 7.37695C4.20617 7.37695 3.77734 7.80578 3.77734 8.3346Z" fill="url(#paint1_linear_50_18668)"/>
<path d="M41.372 5.31368L37.8892 4.47215C37.5652 4.39392 37.2822 4.19745 37.0953 3.92133L35.0877 0.953682C34.8449 0.594741 34.4728 0.402153 34.0899 0.371094C33.7071 0.402153 33.3351 0.594741 33.0922 0.953682L31.0845 3.92145C30.8978 4.19756 30.6146 4.39392 30.2906 4.47227L26.8078 5.3138C25.8631 5.54204 25.4693 6.66968 26.0666 7.43639L28.2687 10.2629C28.4736 10.5258 28.5729 10.8557 28.5472 11.188L28.2713 14.7604C28.1965 15.7294 29.1472 16.4523 30.061 16.1211L33.4296 14.9003C33.6424 14.8231 33.8695 14.8032 34.0898 14.8373C34.3102 14.8032 34.5372 14.8231 34.75 14.9003L38.1186 16.1211C39.0324 16.4523 39.9831 15.7293 39.9083 14.7604L39.6324 11.188C39.6068 10.8557 39.706 10.5258 39.9109 10.2629L42.113 7.43639C42.7105 6.66956 42.3167 5.54204 41.372 5.31368Z" fill="url(#paint2_linear_50_18668)"/>
<path d="M34.7501 14.9003L38.1187 16.1211C39.0324 16.4523 39.9831 15.7293 39.9083 14.7604L39.6324 11.188C39.6068 10.8557 39.7061 10.5258 39.9109 10.2629L42.113 7.43639C42.7103 6.66968 42.3166 5.54215 41.3718 5.3138L37.889 4.47227C37.565 4.39404 37.282 4.19756 37.0951 3.92145L35.0876 0.953682C34.8448 0.594741 34.4727 0.402153 34.0898 0.371094V14.8373C34.3103 14.8032 34.5373 14.8231 34.7501 14.9003Z" fill="url(#paint3_linear_50_18668)"/>
<path d="M41.3723 5.31373L37.8895 4.4722C37.7705 4.44349 37.6574 4.39855 37.5522 4.33984L28.6738 15.8236C29.0221 16.1602 29.5475 16.3073 30.0612 16.1211L33.4298 14.9003C33.6427 14.8231 33.8697 14.8033 34.0901 14.8374C34.3104 14.8033 34.5375 14.8231 34.7503 14.9003L38.1189 16.1211C39.0327 16.4523 39.9834 15.7294 39.9085 14.7604L39.6327 11.1881C39.607 10.8557 39.7063 10.5258 39.9111 10.2629L42.1132 7.43643C42.7108 6.66961 42.317 5.54208 41.3723 5.31373Z" fill="url(#paint4_linear_50_18668)"/>
<path d="M26.8077 5.31373L30.2906 4.4722C30.4095 4.44349 30.5227 4.39855 30.6279 4.33984L39.5062 15.8236C39.158 16.1602 38.6326 16.3073 38.1188 16.1211L34.7502 14.9003C34.5374 14.8231 34.3103 14.8033 34.09 14.8374C33.8696 14.8033 33.6426 14.8231 33.4297 14.9003L30.0611 16.1211C29.1474 16.4523 28.1967 15.7294 28.2715 14.7604L28.5474 11.1881C28.573 10.8557 28.4737 10.5258 28.2689 10.2629L26.0668 7.43643C25.4693 6.66961 25.863 5.54208 26.8077 5.31373Z" fill="url(#paint5_linear_50_18668)"/>
<path d="M25.8814 6.12109C25.7157 6.53874 25.7555 7.03639 26.0672 7.43662L28.2694 10.2631C28.4742 10.526 28.5735 10.8559 28.5478 11.1883L28.2719 14.7606C28.1971 15.7297 29.1478 16.4525 30.0616 16.1213L33.4302 14.9005C33.643 14.8233 33.8701 14.8034 34.0904 14.8376C34.3108 14.8034 34.5378 14.8233 34.7507 14.9005L38.1192 16.1213C39.033 16.4525 39.9837 15.7296 39.9089 14.7606L39.633 11.1883C39.6188 11.0039 39.6443 10.8206 39.7037 10.6487L25.8814 6.12109Z" fill="url(#paint6_linear_50_18668)"/>
<path d="M42.3012 6.12109C42.4669 6.53874 42.4271 7.03639 42.1153 7.43662L39.9132 10.2631C39.7084 10.526 39.6091 10.8559 39.6347 11.1883L39.9106 14.7606C39.9854 15.7297 39.0347 16.4525 38.121 16.1213L34.7524 14.9005C34.5396 14.8233 34.3125 14.8034 34.0922 14.8376C33.8718 14.8034 33.6447 14.8233 33.4319 14.9005L30.0633 16.1213C29.1496 16.4525 28.1989 15.7296 28.2737 14.7606L28.5496 11.1883C28.5638 11.0039 28.5383 10.8206 28.4789 10.6487L42.3012 6.12109Z" fill="url(#paint7_linear_50_18668)"/>
<path d="M41.0069 8.85547H27.1719L28.2683 10.2628C28.4732 10.5257 28.5725 10.8556 28.5468 11.1879L28.2709 14.7603C28.1961 15.7294 29.1468 16.4522 30.0606 16.121L33.4292 14.9002C33.642 14.823 33.8691 14.8031 34.0894 14.8372C34.3098 14.8031 34.5368 14.823 34.7496 14.9002L38.1182 16.121C39.032 16.4522 39.9827 15.7292 39.9079 14.7603L39.632 11.1879C39.6063 10.8556 39.7056 10.5257 39.9105 10.2628L41.0069 8.85547Z" fill="url(#paint8_linear_50_18668)"/>
<path d="M25.0848 10.9251L22.4333 10.2843C22.1866 10.2247 21.9711 10.0752 21.8289 9.86505L20.3005 7.60564C20.1155 7.33235 19.8324 7.18576 19.5408 7.16211C19.2494 7.18576 18.9661 7.33235 18.7812 7.60564L17.2527 9.86505C17.1105 10.0752 16.8949 10.2248 16.6484 10.2843L13.9968 10.9251C13.2775 11.0988 12.9779 11.9573 13.4326 12.5411L15.1091 14.6929C15.2651 14.8932 15.3406 15.1443 15.3211 15.3973L15.1109 18.1171C15.054 18.8548 15.7778 19.4052 16.4734 19.1531L19.0381 18.2235C19.2001 18.1648 19.3729 18.1496 19.5408 18.1756C19.7086 18.1496 19.8814 18.1648 20.0435 18.2235L22.6082 19.1531C23.3039 19.4052 24.0278 18.8548 23.9707 18.1171L23.7606 15.3973C23.7411 15.1442 23.8167 14.8931 23.9726 14.6929L25.6491 12.5411C26.1039 11.9573 25.8041 11.0988 25.0848 10.9251Z" fill="url(#paint9_linear_50_18668)"/>
<path d="M20.0437 18.2235L22.6084 19.1531C23.3041 19.4052 24.028 18.8548 23.9709 18.1171L23.7608 15.3973C23.7413 15.1442 23.8169 14.8931 23.9728 14.6929L25.6493 12.5411C26.104 11.9574 25.8042 11.0988 25.085 10.9251L22.4335 10.2843C22.1868 10.2247 21.9713 10.0752 21.8291 9.86505L20.3007 7.60564C20.1157 7.33235 19.8325 7.18576 19.541 7.16211V18.1758C19.7089 18.1496 19.8817 18.1648 20.0437 18.2235Z" fill="url(#paint10_linear_50_18668)"/>
<path d="M25.0856 10.925L22.4341 10.2843C22.3436 10.2624 22.2574 10.2282 22.1773 10.1836L15.418 18.9265C15.6831 19.1828 16.0831 19.2948 16.4743 19.153L19.039 18.2235C19.201 18.1648 19.3739 18.1496 19.5417 18.1756C19.7095 18.1496 19.8823 18.1648 20.0444 18.2235L22.6091 19.153C23.3048 19.4051 24.0287 18.8548 23.9716 18.117L23.7615 15.3972C23.742 15.1442 23.8176 14.893 23.9735 14.6929L25.65 12.541C26.1047 11.9572 25.8049 11.0988 25.0856 10.925Z" fill="url(#paint11_linear_50_18668)"/>
<path d="M13.9969 10.925L16.6484 10.2843C16.7389 10.2624 16.8251 10.2282 16.9052 10.1836L23.6645 18.9265C23.3993 19.1828 22.9993 19.2948 22.6082 19.153L20.0434 18.2235C19.8814 18.1648 19.7086 18.1496 19.5407 18.1756C19.373 18.1496 19.2002 18.1648 19.038 18.2235L16.4733 19.153C15.7777 19.4051 15.0538 18.8548 15.1109 18.117L15.321 15.3972C15.3405 15.1442 15.2649 14.893 15.109 14.6929L13.4325 12.541C12.9779 11.9572 13.2776 11.0988 13.9969 10.925Z" fill="url(#paint12_linear_50_18668)"/>
<path d="M13.292 11.5391C13.1659 11.8571 13.1961 12.2359 13.4335 12.5406L15.11 14.6925C15.266 14.8927 15.3415 15.1439 15.322 15.3968L15.1119 18.1166C15.0549 18.8544 15.7787 19.4047 16.4744 19.1526L19.0391 18.2231C19.2011 18.1644 19.3739 18.1492 19.5418 18.1752C19.7095 18.1492 19.8824 18.1644 20.0445 18.2231L22.6092 19.1526C23.3048 19.4047 24.0287 18.8544 23.9717 18.1166L23.7615 15.3968C23.7507 15.2565 23.7701 15.1169 23.8154 14.9861L13.292 11.5391Z" fill="url(#paint13_linear_50_18668)"/>
<path d="M25.7922 11.5391C25.9183 11.8571 25.8881 12.2359 25.6507 12.5406L23.9742 14.6925C23.8182 14.8927 23.7427 15.1439 23.7622 15.3968L23.9723 18.1166C24.0292 18.8544 23.3055 19.4047 22.6098 19.1526L20.0451 18.2231C19.8831 18.1644 19.7103 18.1492 19.5424 18.1752C19.3747 18.1492 19.2018 18.1644 19.0397 18.2231L16.475 19.1526C15.7794 19.4047 15.0555 18.8544 15.1125 18.1166L15.3227 15.3968C15.3335 15.2565 15.3141 15.1169 15.2688 14.9861L25.7922 11.5391Z" fill="url(#paint14_linear_50_18668)"/>
<path d="M24.8065 13.6211H14.2734L15.1081 14.6925C15.2641 14.8927 15.3397 15.1439 15.3201 15.3969L15.11 18.1166C15.0531 18.8544 15.7768 19.4047 16.4725 19.1526L19.0372 18.2231C19.1992 18.1644 19.372 18.1492 19.5399 18.1752C19.7077 18.1492 19.8805 18.1644 20.0426 18.2231L22.6073 19.1526C23.303 19.4047 24.0269 18.8544 23.9698 18.1166L23.7597 15.3969C23.7401 15.1438 23.8158 14.8926 23.9717 14.6925L24.8065 13.6211Z" fill="url(#paint15_linear_50_18668)"/>
<path d="M54.1825 10.9251L51.531 10.2843C51.2842 10.2247 51.0687 10.0752 50.9266 9.86505L49.3981 7.60564C49.2132 7.33235 48.93 7.18576 48.6385 7.16211C48.3471 7.18576 48.0638 7.33235 47.8788 7.60564L46.3504 9.86505C46.2081 10.0752 45.9926 10.2248 45.746 10.2843L43.0945 10.9251C42.3752 11.0988 42.0755 11.9573 42.5302 12.5411L44.2067 14.6929C44.3627 14.8932 44.4382 15.1443 44.4187 15.3973L44.2086 18.1171C44.1517 18.8548 44.8754 19.4052 45.5711 19.1531L48.1358 18.2235C48.2978 18.1648 48.4706 18.1496 48.6385 18.1756C48.8062 18.1496 48.9791 18.1648 49.1412 18.2235L51.7059 19.1531C52.4015 19.4052 53.1254 18.8548 53.0684 18.1171L52.8582 15.3973C52.8387 15.1442 52.9144 14.8931 53.0702 14.6929L54.7467 12.5411C55.2014 11.9573 54.9017 11.0988 54.1825 10.9251Z" fill="url(#paint16_linear_50_18668)"/>
<path d="M49.1414 18.2235L51.7061 19.1531C52.4017 19.4052 53.1256 18.8548 53.0686 18.1171L52.8584 15.3973C52.8389 15.1442 52.9146 14.8931 53.0704 14.6929L54.7469 12.5411C55.2016 11.9574 54.9018 11.0988 54.1827 10.9251L51.5311 10.2843C51.2844 10.2247 51.0689 10.0752 50.9268 9.86505L49.3983 7.60564C49.2134 7.33235 48.9302 7.18576 48.6387 7.16211V18.1758C48.8064 18.1496 48.9793 18.1648 49.1414 18.2235Z" fill="url(#paint17_linear_50_18668)"/>
<path d="M54.1833 10.925L51.5317 10.2843C51.4413 10.2624 51.355 10.2282 51.2749 10.1836L44.5156 18.9265C44.7808 19.1828 45.1808 19.2948 45.572 19.153L48.1367 18.2235C48.2987 18.1648 48.4715 18.1496 48.6394 18.1756C48.8072 18.1496 48.98 18.1648 49.1421 18.2235L51.7068 19.153C52.4024 19.4051 53.1263 18.8548 53.0693 18.117L52.8592 15.3972C52.8396 15.1442 52.9153 14.893 53.0712 14.6929L54.7476 12.541C55.2022 11.9572 54.9024 11.0988 54.1833 10.925Z" fill="url(#paint18_linear_50_18668)"/>
<path d="M43.0945 10.925L45.746 10.2843C45.8365 10.2624 45.9227 10.2282 46.0028 10.1836L52.7621 18.9265C52.497 19.1828 52.097 19.2948 51.7058 19.153L49.1411 18.2235C48.9791 18.1648 48.8063 18.1496 48.6384 18.1756C48.4706 18.1496 48.2978 18.1648 48.1357 18.2235L45.571 19.153C44.8753 19.4051 44.1514 18.8548 44.2085 18.117L44.4186 15.3972C44.4381 15.1442 44.3625 14.893 44.2066 14.6929L42.5301 12.541C42.0756 11.9572 42.3753 11.0988 43.0945 10.925Z" fill="url(#paint19_linear_50_18668)"/>
<path d="M42.3897 11.5391C42.2635 11.8571 42.2938 12.2359 42.5312 12.5406L44.2077 14.6925C44.3637 14.8927 44.4392 15.1439 44.4197 15.3968L44.2095 18.1166C44.1526 18.8544 44.8764 19.4047 45.572 19.1526L48.1367 18.2231C48.2987 18.1644 48.4715 18.1492 48.6394 18.1752C48.8072 18.1492 48.98 18.1644 49.1421 18.2231L51.7068 19.1526C52.4025 19.4047 53.1264 18.8544 53.0693 18.1166L52.8592 15.3968C52.8484 15.2565 52.8678 15.1169 52.9131 14.9861L42.3897 11.5391Z" fill="url(#paint20_linear_50_18668)"/>
<path d="M54.8898 11.5391C55.016 11.8571 54.9857 12.2359 54.7483 12.5406L53.0718 14.6925C52.9158 14.8927 52.8403 15.1439 52.8598 15.3968L53.07 18.1166C53.1269 18.8544 52.4031 19.4047 51.7075 19.1526L49.1428 18.2231C48.9808 18.1644 48.808 18.1492 48.6401 18.1752C48.4723 18.1492 48.2995 18.1644 48.1374 18.2231L45.5727 19.1526C44.877 19.4047 44.1531 18.8544 44.2102 18.1166L44.4203 15.3968C44.4311 15.2565 44.4117 15.1169 44.3664 14.9861L54.8898 11.5391Z" fill="url(#paint21_linear_50_18668)"/>
<path d="M53.9061 13.6211H43.373L44.2078 14.6925C44.3638 14.8927 44.4393 15.1439 44.4197 15.3969L44.2096 18.1166C44.1527 18.8544 44.8765 19.4047 45.5721 19.1526L48.1368 18.2231C48.2988 18.1644 48.4716 18.1492 48.6395 18.1752C48.8073 18.1492 48.9801 18.1644 49.1422 18.2231L51.7069 19.1526C52.4026 19.4047 53.1265 18.8544 53.0694 18.1166L52.8593 15.3969C52.8398 15.1438 52.9154 14.8926 53.0713 14.6925L53.9061 13.6211Z" fill="url(#paint22_linear_50_18668)"/>
<path d="M8.79365 45.0539H3.47659C1.83271 45.0539 0.5 43.7212 0.5 42.0773V33.5606C0.5 31.9167 1.83271 30.584 3.47659 30.584H8.79377V45.0539H8.79365Z" fill="url(#paint23_linear_50_18668)"/>
<path d="M0.5 35.3359V42.0772C0.5 43.7211 1.83271 45.0538 3.47659 45.0538H8.79377V35.3359H0.5Z" fill="url(#paint24_linear_50_18668)"/>
<path d="M56.8538 59.6307H11.3287C9.31446 59.6307 7.68164 57.9979 7.68164 55.9837V24.8072C7.68164 22.793 9.31446 21.1602 11.3287 21.1602H56.8538C58.868 21.1602 60.5008 22.793 60.5008 24.8072V55.9837C60.5008 57.9979 58.868 59.6307 56.8538 59.6307Z" fill="url(#paint25_linear_50_18668)"/>
<path d="M11.3296 57.867C10.2917 57.867 9.44727 57.0225 9.44727 55.9846V24.8081C9.44727 23.7703 10.2917 22.9258 11.3296 22.9258H56.8547C57.8926 22.9258 58.737 23.7703 58.737 24.8081V55.9846C58.737 57.0225 57.8926 57.867 56.8547 57.867H11.3296Z" fill="url(#paint26_linear_50_18668)"/>
<path d="M7.68164 40.6309V55.9838C7.68164 57.998 9.31446 59.6309 11.3287 59.6309H56.8538C58.868 59.6309 60.5008 57.998 60.5008 55.9838V40.6309H7.68164Z" fill="url(#paint27_linear_50_18668)"/>
<path d="M26.5036 24.6895H12.8874C11.9615 24.6895 11.2109 25.44 11.2109 26.3659V54.4248C11.2109 55.3506 11.9615 56.1012 12.8874 56.1012H26.5036V24.6895Z" fill="url(#paint28_linear_50_18668)"/>
<path d="M26.5039 24.6895H41.6788V56.1012H26.5039V24.6895Z" fill="url(#paint29_linear_50_18668)"/>
<path d="M55.294 24.6895H41.6777V56.1012H55.294C56.2199 56.1012 56.9704 55.3506 56.9704 54.4248V26.3659C56.9704 25.44 56.2199 24.6895 55.294 24.6895Z" fill="url(#paint30_linear_50_18668)"/>
<path d="M24.444 35.9482C24.444 36.5397 24.0798 37.4273 23.7158 38.1098L18.3914 48.3038C18.2094 48.6451 17.868 48.7816 17.3902 48.7816C16.2752 48.7816 15.1375 48.0081 15.1375 46.9841C15.1375 46.7793 15.1829 46.5972 15.2968 46.3924L20.8943 36.6991V35.1063H16.8212V36.6309C16.8212 37.2452 15.9565 37.723 15.0236 37.723C14.068 37.723 13.2715 37.2452 13.2715 36.6309V33.104C13.2715 32.5578 14.0452 32.0117 14.8188 32.0117H22.8965C23.5793 32.0117 24.4438 32.5577 24.4438 33.104V35.9482H24.444Z" fill="url(#paint31_linear_50_18668)"/>
<path d="M39.6783 35.9482C39.6783 36.5397 39.3142 37.4273 38.9502 38.1098L33.6257 48.3038C33.4437 48.6451 33.1023 48.7816 32.6246 48.7816C31.5096 48.7816 30.3719 48.0081 30.3719 46.9841C30.3719 46.7793 30.4173 46.5972 30.5312 46.3924L36.1287 36.6991V35.1063H32.0556V36.6309C32.0556 37.2452 31.1909 37.723 30.258 37.723C29.3023 37.723 28.5059 37.2452 28.5059 36.6309V33.104C28.5059 32.5578 29.2796 32.0117 30.0532 32.0117H38.1309C38.8136 32.0117 39.6782 32.5577 39.6782 33.104V35.9482H39.6783Z" fill="url(#paint32_linear_50_18668)"/>
<path d="M54.9108 35.9482C54.9108 36.5397 54.5466 37.4273 54.1826 38.1098L48.8582 48.3038C48.6762 48.6451 48.3348 48.7816 47.857 48.7816C46.742 48.7816 45.6043 48.0081 45.6043 46.9841C45.6043 46.7793 45.6498 46.5972 45.7636 46.3924L51.3611 36.6991V35.1063H47.288V36.6309C47.288 37.2452 46.4233 37.723 45.4904 37.723C44.5347 37.723 43.7383 37.2452 43.7383 36.6309V33.104C43.7383 32.5578 44.512 32.0117 45.2856 32.0117H53.3633C54.046 32.0117 54.9106 32.5577 54.9106 33.104V35.9482H54.9108Z" fill="url(#paint33_linear_50_18668)"/>
<path d="M26.5027 40.6289V56.0995H12.8874C11.9615 56.0995 11.2109 55.3489 11.2109 54.423V40.6289H26.5027Z" fill="url(#paint34_linear_50_18668)"/>
<path d="M26.502 40.6289H41.6772V56.0995H26.502V40.6289Z" fill="url(#paint35_linear_50_18668)"/>
<path d="M56.9707 40.6289V54.423C56.9707 55.3489 56.2201 56.0995 55.2942 56.0995H41.6777V40.6289H56.9707Z" fill="url(#paint36_linear_50_18668)"/>
<path d="M4.73587 10.8057C6.88003 10.8057 8.61822 9.06753 8.61822 6.92337C8.61822 4.7792 6.88003 3.04102 4.73587 3.04102C2.5917 3.04102 0.853516 4.7792 0.853516 6.92337C0.853516 9.06753 2.5917 10.8057 4.73587 10.8057Z" fill="url(#paint37_linear_50_18668)"/>
<defs>
<linearGradient id="paint0_linear_50_18668" x1="4.02923" y1="20.7793" x2="6.26758" y2="20.7793" gradientUnits="userSpaceOnUse">
<stop stop-color="#5A5A5A"/>
<stop offset="1" stop-color="#444444"/>
</linearGradient>
<linearGradient id="paint1_linear_50_18668" x1="4.73511" y1="13.8052" x2="4.73511" y2="10.4522" gradientUnits="userSpaceOnUse">
<stop stop-color="#433F43" stop-opacity="0"/>
<stop offset="1" stop-color="#1A1A1A"/>
</linearGradient>
<linearGradient id="paint2_linear_50_18668" x1="30.3906" y1="5.79709" x2="37.0616" y2="12.4679" gradientUnits="userSpaceOnUse">
<stop stop-color="#FEF0AE"/>
<stop offset="1" stop-color="#FBC56D"/>
</linearGradient>
<linearGradient id="paint3_linear_50_18668" x1="38.087" y1="7.61592" x2="28.8669" y2="11.4277" gradientUnits="userSpaceOnUse">
<stop stop-color="#F6A96C" stop-opacity="0"/>
<stop offset="0.9957" stop-color="#F6A96C" stop-opacity="0.996"/>
<stop offset="1" stop-color="#F6A96C"/>
</linearGradient>
<linearGradient id="paint4_linear_50_18668" x1="35.6799" y1="10.888" x2="30.6321" y2="8.72455" gradientUnits="userSpaceOnUse">
<stop stop-color="#F6A96C" stop-opacity="0"/>
<stop offset="0.9957" stop-color="#F6A96C" stop-opacity="0.996"/>
<stop offset="1" stop-color="#F6A96C"/>
</linearGradient>
<linearGradient id="paint5_linear_50_18668" x1="32.5" y1="10.888" x2="37.548" y2="8.72455" gradientUnits="userSpaceOnUse">
<stop stop-color="#F6A96C" stop-opacity="0"/>
<stop offset="0.9957" stop-color="#F6A96C" stop-opacity="0.996"/>
<stop offset="1" stop-color="#F6A96C"/>
</linearGradient>
<linearGradient id="paint6_linear_50_18668" x1="32.6129" y1="11.1414" x2="35.8579" y2="5.92615" gradientUnits="userSpaceOnUse">
<stop stop-color="#F6A96C" stop-opacity="0"/>
<stop offset="0.9957" stop-color="#F6A96C" stop-opacity="0.996"/>
<stop offset="1" stop-color="#F6A96C"/>
</linearGradient>
<linearGradient id="paint7_linear_50_18668" x1="35.3196" y1="10.4829" x2="35.0491" y2="5.38345" gradientUnits="userSpaceOnUse">
<stop stop-color="#F6A96C" stop-opacity="0"/>
<stop offset="0.9957" stop-color="#F6A96C" stop-opacity="0.996"/>
<stop offset="1" stop-color="#F6A96C"/>
</linearGradient>
<linearGradient id="paint8_linear_50_18668" x1="34.0894" y1="11.7359" x2="34.0894" y2="17.4022" gradientUnits="userSpaceOnUse">
<stop stop-color="#DC8758" stop-opacity="0"/>
<stop offset="0.9957" stop-color="#DC8758" stop-opacity="0.996"/>
<stop offset="1" stop-color="#DC8758"/>
</linearGradient>
<linearGradient id="paint9_linear_50_18668" x1="16.7244" y1="11.2931" x2="21.8032" y2="16.3719" gradientUnits="userSpaceOnUse">
<stop stop-color="#FEF0AE"/>
<stop offset="1" stop-color="#FBC56D"/>
</linearGradient>
<linearGradient id="paint10_linear_50_18668" x1="22.5843" y1="12.6778" x2="15.5647" y2="15.5796" gradientUnits="userSpaceOnUse">
<stop stop-color="#F6A96C" stop-opacity="0"/>
<stop offset="0.9957" stop-color="#F6A96C" stop-opacity="0.996"/>
<stop offset="1" stop-color="#F6A96C"/>
</linearGradient>
<linearGradient id="paint11_linear_50_18668" x1="20.752" y1="15.1689" x2="16.9088" y2="13.5218" gradientUnits="userSpaceOnUse">
<stop stop-color="#F6A96C" stop-opacity="0"/>
<stop offset="0.9957" stop-color="#F6A96C" stop-opacity="0.996"/>
<stop offset="1" stop-color="#F6A96C"/>
</linearGradient>
<linearGradient id="paint12_linear_50_18668" x1="18.3306" y1="15.1689" x2="22.1737" y2="13.5218" gradientUnits="userSpaceOnUse">
<stop stop-color="#F6A96C" stop-opacity="0"/>
<stop offset="0.9957" stop-color="#F6A96C" stop-opacity="0.996"/>
<stop offset="1" stop-color="#F6A96C"/>
</linearGradient>
<linearGradient id="paint13_linear_50_18668" x1="18.4169" y1="15.3612" x2="20.8875" y2="11.3906" gradientUnits="userSpaceOnUse">
<stop stop-color="#F6A96C" stop-opacity="0"/>
<stop offset="0.9957" stop-color="#F6A96C" stop-opacity="0.996"/>
<stop offset="1" stop-color="#F6A96C"/>
</linearGradient>
<linearGradient id="paint14_linear_50_18668" x1="20.4768" y1="14.8598" x2="20.2709" y2="10.9774" gradientUnits="userSpaceOnUse">
<stop stop-color="#F6A96C" stop-opacity="0"/>
<stop offset="0.9957" stop-color="#F6A96C" stop-opacity="0.996"/>
<stop offset="1" stop-color="#F6A96C"/>
</linearGradient>
<linearGradient id="paint15_linear_50_18668" x1="19.54" y1="15.814" x2="19.54" y2="20.1279" gradientUnits="userSpaceOnUse">
<stop stop-color="#DC8758" stop-opacity="0"/>
<stop offset="0.9957" stop-color="#DC8758" stop-opacity="0.996"/>
<stop offset="1" stop-color="#DC8758"/>
</linearGradient>
<linearGradient id="paint16_linear_50_18668" x1="45.822" y1="11.2931" x2="50.9007" y2="16.3719" gradientUnits="userSpaceOnUse">
<stop stop-color="#FEF0AE"/>
<stop offset="1" stop-color="#FBC56D"/>
</linearGradient>
<linearGradient id="paint17_linear_50_18668" x1="51.6818" y1="12.6778" x2="44.6622" y2="15.5796" gradientUnits="userSpaceOnUse">
<stop stop-color="#F6A96C" stop-opacity="0"/>
<stop offset="0.9957" stop-color="#F6A96C" stop-opacity="0.996"/>
<stop offset="1" stop-color="#F6A96C"/>
</linearGradient>
<linearGradient id="paint18_linear_50_18668" x1="49.8495" y1="15.1689" x2="46.0063" y2="13.5218" gradientUnits="userSpaceOnUse">
<stop stop-color="#F6A96C" stop-opacity="0"/>
<stop offset="0.9957" stop-color="#F6A96C" stop-opacity="0.996"/>
<stop offset="1" stop-color="#F6A96C"/>
</linearGradient>
<linearGradient id="paint19_linear_50_18668" x1="47.4283" y1="15.1689" x2="51.2714" y2="13.5218" gradientUnits="userSpaceOnUse">
<stop stop-color="#F6A96C" stop-opacity="0"/>
<stop offset="0.9957" stop-color="#F6A96C" stop-opacity="0.996"/>
<stop offset="1" stop-color="#F6A96C"/>
</linearGradient>
<linearGradient id="paint20_linear_50_18668" x1="47.5145" y1="15.3612" x2="49.9851" y2="11.3906" gradientUnits="userSpaceOnUse">
<stop stop-color="#F6A96C" stop-opacity="0"/>
<stop offset="0.9957" stop-color="#F6A96C" stop-opacity="0.996"/>
<stop offset="1" stop-color="#F6A96C"/>
</linearGradient>
<linearGradient id="paint21_linear_50_18668" x1="49.5746" y1="14.8598" x2="49.3687" y2="10.9774" gradientUnits="userSpaceOnUse">
<stop stop-color="#F6A96C" stop-opacity="0"/>
<stop offset="0.9957" stop-color="#F6A96C" stop-opacity="0.996"/>
<stop offset="1" stop-color="#F6A96C"/>
</linearGradient>
<linearGradient id="paint22_linear_50_18668" x1="48.6395" y1="15.814" x2="48.6395" y2="20.1279" gradientUnits="userSpaceOnUse">
<stop stop-color="#DC8758" stop-opacity="0"/>
<stop offset="0.9957" stop-color="#DC8758" stop-opacity="0.996"/>
<stop offset="1" stop-color="#DC8758"/>
</linearGradient>
<linearGradient id="paint23_linear_50_18668" x1="2.05024" y1="35.6988" x2="6.75612" y2="38.4047" gradientUnits="userSpaceOnUse">
<stop stop-color="#BBEC6C"/>
<stop offset="1" stop-color="#81B823"/>
</linearGradient>
<linearGradient id="paint24_linear_50_18668" x1="4.64682" y1="40.1595" x2="4.64682" y2="44.7477" gradientUnits="userSpaceOnUse">
<stop stop-color="#78A91F" stop-opacity="0"/>
<stop offset="1" stop-color="#78A91F"/>
</linearGradient>
<linearGradient id="paint25_linear_50_18668" x1="21.0498" y1="27.354" x2="52.7579" y2="59.0622" gradientUnits="userSpaceOnUse">
<stop stop-color="#FEF0AE"/>
<stop offset="1" stop-color="#FBC56D"/>
</linearGradient>
<linearGradient id="paint26_linear_50_18668" x1="55.8897" y1="62.194" x2="10.2288" y2="16.5331" gradientUnits="userSpaceOnUse">
<stop stop-color="#FEF0AE"/>
<stop offset="1" stop-color="#FBC56D"/>
</linearGradient>
<linearGradient id="paint27_linear_50_18668" x1="34.0912" y1="49.6897" x2="34.0912" y2="59.4607" gradientUnits="userSpaceOnUse">
<stop stop-color="#DC8758" stop-opacity="0"/>
<stop offset="0.9957" stop-color="#DC8758" stop-opacity="0.996"/>
<stop offset="1" stop-color="#DC8758"/>
</linearGradient>
<linearGradient id="paint28_linear_50_18668" x1="11.3" y1="32.3471" x2="27.4338" y2="48.4809" gradientUnits="userSpaceOnUse">
<stop stop-color="#FD4755"/>
<stop offset="1" stop-color="#A72B2B"/>
</linearGradient>
<linearGradient id="paint29_linear_50_18668" x1="25.891" y1="32.195" x2="42.3297" y2="48.6337" gradientUnits="userSpaceOnUse">
<stop stop-color="#FD4755"/>
<stop offset="1" stop-color="#A72B2B"/>
</linearGradient>
<linearGradient id="paint30_linear_50_18668" x1="40.7848" y1="32.3471" x2="56.9186" y2="48.4809" gradientUnits="userSpaceOnUse">
<stop stop-color="#FD4755"/>
<stop offset="1" stop-color="#A72B2B"/>
</linearGradient>
<linearGradient id="paint31_linear_50_18668" x1="13.2029" y1="33.6192" x2="25.1268" y2="45.5432" gradientUnits="userSpaceOnUse">
<stop stop-color="#F9F5F3"/>
<stop offset="1" stop-color="#D8E8F0"/>
</linearGradient>
<linearGradient id="paint32_linear_50_18668" x1="28.4372" y1="33.6192" x2="40.3612" y2="45.5432" gradientUnits="userSpaceOnUse">
<stop stop-color="#F9F5F3"/>
<stop offset="1" stop-color="#D8E8F0"/>
</linearGradient>
<linearGradient id="paint33_linear_50_18668" x1="43.6696" y1="33.6192" x2="55.5935" y2="45.5432" gradientUnits="userSpaceOnUse">
<stop stop-color="#F9F5F3"/>
<stop offset="1" stop-color="#D8E8F0"/>
</linearGradient>
<linearGradient id="paint34_linear_50_18668" x1="18.8568" y1="47.3936" x2="18.8568" y2="56.7242" gradientUnits="userSpaceOnUse">
<stop stop-color="#A72B2B" stop-opacity="0"/>
<stop offset="1" stop-color="#42210B"/>
</linearGradient>
<linearGradient id="paint35_linear_50_18668" x1="34.0896" y1="47.3936" x2="34.0896" y2="56.7242" gradientUnits="userSpaceOnUse">
<stop stop-color="#A72B2B" stop-opacity="0"/>
<stop offset="1" stop-color="#42210B"/>
</linearGradient>
<linearGradient id="paint36_linear_50_18668" x1="49.3242" y1="47.3936" x2="49.3242" y2="56.7242" gradientUnits="userSpaceOnUse">
<stop stop-color="#A72B2B" stop-opacity="0"/>
<stop offset="1" stop-color="#42210B"/>
</linearGradient>
<linearGradient id="paint37_linear_50_18668" x1="2.89681" y1="5.08443" x2="6.19163" y2="8.37913" gradientUnits="userSpaceOnUse">
<stop stop-color="#FD4755"/>
<stop offset="1" stop-color="#A72B2B"/>
</linearGradient>
</defs>
</svg>
