<svg width="25" height="25" viewBox="0 0 25 25" fill="none" xmlns="http://www.w3.org/2000/svg">
<g clip-path="url(#clip0_334_7837)">
<path d="M15.6298 9.79688H4.67325C4.24106 9.79688 3.89062 10.1473 3.89062 10.5795V17.3621C3.89062 17.7943 4.24102 18.1447 4.67325 18.1447H15.6298C16.062 18.1447 16.4124 17.7944 16.4124 17.3621V10.5795C16.4123 10.1473 16.062 9.79688 15.6298 9.79688ZM7.5428 16.5795H5.45583V11.3621H7.5428V16.5795ZM11.195 16.5795H9.108V11.3621H11.195V16.5795ZM14.8471 16.5795H12.7602V11.3621H14.8471V16.5795Z" fill="#FF6B00"/>
<path d="M22.1522 0.40625C20.8576 0.40625 19.8043 1.45948 19.8043 2.75408C19.8043 3.77436 20.4587 4.64422 21.3695 4.96728V11.3628H19.8043V10.0584C19.8043 4.73623 15.4745 0.40625 10.1522 0.40625C4.82998 0.40625 0.5 4.73623 0.5 10.0584V22.0584C0.5 23.353 1.55323 24.4062 2.84783 24.4062H17.4565C18.7511 24.4062 19.8043 23.353 19.8043 22.0584V12.928H22.1522C22.5844 12.928 22.9348 12.5776 22.9348 12.1453V4.96728C23.8457 4.64422 24.5 3.77436 24.5 2.75408C24.5 1.45948 23.4468 0.40625 22.1522 0.40625ZM18.2391 22.0584C18.2391 22.49 17.888 22.841 17.4565 22.841H2.84783C2.4163 22.841 2.0652 22.49 2.0652 22.0584V10.0584C2.0652 5.5993 5.693 1.97145 10.1522 1.97145C14.6113 1.97145 18.2391 5.59925 18.2391 10.0584V22.0584ZM22.1522 3.5367C21.7206 3.5367 21.3695 3.18561 21.3695 2.75408C21.3695 2.32255 21.7206 1.97145 22.1522 1.97145C22.5837 1.97145 22.9348 2.32255 22.9348 2.75408C22.9348 3.18561 22.5837 3.5367 22.1522 3.5367Z" fill="#FF6B00"/>
<path d="M15.3169 7.18867C14.5424 5.00458 12.4668 3.53711 10.1517 3.53711C7.8366 3.53711 5.76093 5.00453 4.9866 7.18867C4.84218 7.59606 5.05536 8.04339 5.46275 8.18781C5.87024 8.33233 6.31747 8.11909 6.4619 7.71175C7.01521 6.15095 8.49805 5.10236 10.1518 5.10236C11.8054 5.10236 13.2883 6.151 13.8417 7.71175C13.9555 8.03266 14.2572 8.23309 14.5793 8.233C14.6661 8.233 14.7543 8.21842 14.8408 8.18781C15.2481 8.04334 15.4613 7.59606 15.3169 7.18867Z" fill="#FF6B00"/>
<path d="M10.1518 8.23322C10.584 8.23322 10.9344 7.88283 10.9344 7.45059C10.9344 7.01836 10.584 6.66797 10.1518 6.66797C9.71953 6.66797 9.36914 7.01836 9.36914 7.45059C9.36914 7.88283 9.71953 8.23322 10.1518 8.23322Z" fill="#FF6B00"/>
<path d="M14.0657 19.7109H6.23966C5.80747 19.7109 5.45703 20.0613 5.45703 20.4936C5.45703 20.9258 5.80742 21.2762 6.23966 21.2762H14.0657C14.4979 21.2762 14.8483 20.9258 14.8483 20.4936C14.8483 20.0613 14.498 19.7109 14.0657 19.7109Z" fill="#FF6B00"/>
</g>
<defs>
<clipPath id="clip0_334_7837">
<rect width="24" height="24" fill="white" transform="translate(0.5 0.40625)"/>
</clipPath>
</defs>
</svg>
