<svg width="25" height="25" viewBox="0 0 25 25" fill="none" xmlns="http://www.w3.org/2000/svg">
<path d="M23.7968 2.13842H20.717C20.7282 1.7973 20.7344 1.45416 20.7344 1.10937C20.7344 0.721008 20.4195 0.40625 20.0313 0.40625H4.96868C4.5805 0.40625 4.26556 0.721008 4.26556 1.10937C4.26556 1.45416 4.27178 1.7973 4.28295 2.13842H1.20312C0.814758 2.13842 0.5 2.45318 0.5 2.84155C0.5 5.99205 1.32342 8.9644 2.81848 11.2113C4.29632 13.4325 6.26488 14.7066 8.39146 14.8305C8.87358 15.3551 9.38316 15.7829 9.91398 16.1092V19.2342H8.73442C7.3084 19.2342 6.14843 20.3944 6.14843 21.8202V22.9998H6.09844C5.71007 22.9998 5.39532 23.3147 5.39532 23.7029C5.39532 24.0913 5.71007 24.406 6.09844 24.406H18.9015C19.2899 24.406 19.6046 24.0913 19.6046 23.7029C19.6046 23.3147 19.2899 22.9998 18.9015 22.9998H18.8515V21.8202C18.8515 20.3944 17.6916 19.2342 16.2655 19.2342H15.086V16.1092C15.6168 15.7831 16.1266 15.3551 16.6087 14.8305C18.7351 14.7066 20.7036 13.4325 22.1817 11.2113C23.6767 8.9644 24.5 5.99205 24.5 2.84155C24.5 2.45318 24.1852 2.13842 23.7968 2.13842ZM3.98925 10.4324C2.75604 8.57915 2.03149 6.1552 1.92108 3.54467H4.3615C4.6151 6.75377 5.3684 9.72007 6.54576 12.0746C6.73326 12.4496 6.92937 12.8039 7.1328 13.1375C5.96331 12.6959 4.88097 11.7727 3.98925 10.4324ZM17.4453 21.8202V23H7.55467V21.8202C7.55467 21.1698 8.08385 20.6405 8.73442 20.6405H16.2655C16.9161 20.6405 17.4453 21.1698 17.4453 21.8202ZM13.6797 19.2342H11.3202V16.7202C11.7068 16.822 12.1006 16.8749 12.5 16.8749C12.8993 16.8749 13.2932 16.822 13.6797 16.7202V19.2342ZM14.1151 15.0473C14.0835 15.0603 14.0531 15.0761 14.024 15.0935C13.527 15.3407 13.0163 15.4687 12.5 15.4687C11.9838 15.4687 11.4733 15.3407 10.9765 15.0938C10.9471 15.0761 10.9165 15.0603 10.8844 15.047C10.3331 14.7555 9.79973 14.3153 9.29527 13.7369C9.26872 13.6989 9.23887 13.664 9.20573 13.6321C8.70494 13.0376 8.23381 12.3063 7.80351 11.4457C6.51134 8.8615 5.765 5.46361 5.68004 1.8125H19.3199C19.2348 5.46361 18.4884 8.86168 17.1964 11.4457C16.7661 12.3063 16.295 13.0376 15.7944 13.6321C15.7611 13.664 15.7309 13.6991 15.7045 13.737C15.2 14.3156 14.6665 14.7556 14.1151 15.0473ZM21.0107 10.4324C20.119 11.7727 19.0366 12.6959 17.8672 13.1375C18.0706 12.8039 18.2667 12.4496 18.4542 12.0746C19.6316 9.72007 20.3847 6.75377 20.6384 3.54467H23.0789C22.9685 6.1552 22.2439 8.57915 21.0107 10.4324Z" fill="#FF6B00"/>
</svg>
