<svg width="25" height="25" viewBox="0 0 25 25" fill="none" xmlns="http://www.w3.org/2000/svg">
<path fill-rule="evenodd" clip-rule="evenodd" d="M0.599609 19.6729C0.599609 21.1717 1.81463 22.3867 3.3134 22.3867H15.2197C16.7184 22.3867 17.9334 21.1717 17.9334 19.6729V3.2198C17.9334 1.72103 16.7184 0.506006 15.2197 0.506006H3.3134C1.81463 0.506006 0.599609 1.72103 0.599609 3.2198V19.6729ZM3.3134 20.7091C2.74114 20.7091 2.2772 20.2452 2.2772 19.6729V3.2198C2.2772 2.64754 2.74114 2.18359 3.3134 2.18359H15.2197C15.7919 2.18359 16.2559 2.64754 16.2559 3.2198V19.6729C16.2559 20.2452 15.7919 20.7091 15.2197 20.7091H3.3134Z" fill="#FF6B00"/>
<path fill-rule="evenodd" clip-rule="evenodd" d="M21.2719 22.1039C21.2719 22.1039 21.2719 22.1039 21.2719 22.1039L24.3613 5.94345C24.6428 4.47124 23.6775 3.04978 22.2054 2.7683L22.2054 2.7683L17.3712 1.84415L17.0562 3.4919L21.8903 4.41604C21.8904 4.41604 21.8904 4.41604 21.8904 4.41604C22.4525 4.52355 22.821 5.06633 22.7136 5.62839L22.7135 5.62842L19.6241 21.7889L19.6241 21.7889C19.5167 22.351 18.9739 22.7195 18.4118 22.6121L8.53766 20.7244L8.22266 22.3722L18.0968 24.2598L18.2543 23.436L18.0968 24.2598C19.5689 24.5412 20.9904 23.576 21.2719 22.1039Z" fill="#FF6B00"/>
<path fill-rule="evenodd" clip-rule="evenodd" d="M5.03175 14.0188C5.51347 14.6058 6.21213 14.9336 7.01648 14.9336C7.83122 14.9336 8.56516 14.5391 9.0288 14.2299C9.11333 14.1735 9.19282 14.1173 9.26651 14.0628C9.34019 14.1172 9.41967 14.1735 9.50419 14.2299C9.96782 14.5391 10.7017 14.9336 11.5165 14.9336C12.3351 14.9336 13.031 14.5829 13.5052 13.9964C13.9664 13.4259 14.1834 12.6794 14.1834 11.9031C14.1834 11.1115 13.8295 10.338 13.4157 9.68578C12.9909 9.01643 12.4385 8.37532 11.9077 7.82804C11.3738 7.27744 10.8428 6.80247 10.4468 6.4661C10.2482 6.2974 10.0822 6.16234 9.96481 6.06872C9.9061 6.02188 9.85947 5.98534 9.82694 5.96007C9.81067 5.94743 9.79792 5.9376 9.78894 5.93071C9.78445 5.92726 9.7809 5.92455 9.77832 5.92258L9.77519 5.9202L9.77381 5.91915C9.77367 5.91904 9.77354 5.91894 9.26653 6.58716C8.75952 5.91894 8.75939 5.91904 8.75925 5.91915L8.75787 5.9202L8.75473 5.92258C8.75309 5.92383 8.75106 5.92539 8.74864 5.92724L8.74412 5.93071C8.73514 5.9376 8.72239 5.94743 8.70612 5.96007C8.67359 5.98534 8.62696 6.02188 8.56824 6.06872C8.45087 6.16234 8.28482 6.2974 8.08625 6.4661C7.6903 6.80247 7.1593 7.27744 6.62533 7.82804C6.09457 8.37532 5.54212 9.01643 5.11737 9.68578C4.70351 10.338 4.34961 11.1115 4.34961 11.9031C4.34961 12.6969 4.56377 13.4485 5.03175 14.0188ZM9.26653 6.58716L8.75952 5.91894L9.26653 5.53425L9.77354 5.91894L9.26653 6.58716ZM9.26653 7.66512C9.29688 7.69059 9.32829 7.7171 9.36066 7.74461C9.72936 8.05783 10.2179 8.49528 10.7035 8.99596C11.1922 9.49994 11.6593 10.049 11.9992 10.5846C12.35 11.1374 12.5059 11.5838 12.5059 11.9031C12.5059 12.3805 12.3719 12.7298 12.2006 12.9417C12.0422 13.1377 11.8241 13.256 11.5165 13.256C11.2062 13.256 10.8152 13.0878 10.4351 12.8342C10.2587 12.7166 10.11 12.5977 10.0059 12.5084C9.95431 12.4642 9.9148 12.4282 9.88954 12.4046C9.87694 12.3928 9.86797 12.3842 9.8629 12.3793C9.86143 12.3779 9.86029 12.3768 9.85948 12.376C9.85907 12.3756 9.85875 12.3753 9.85852 12.375C9.85843 12.375 9.85836 12.3749 9.85829 12.3748C9.85803 12.3746 9.85802 12.3745 9.85826 12.3748L9.26655 11.7828L8.67482 12.3748C8.67507 12.3745 8.67505 12.3745 8.67479 12.3748C8.67473 12.3749 8.67466 12.3749 8.67457 12.375C8.67411 12.3755 8.67328 12.3763 8.67209 12.3774C8.67153 12.378 8.67089 12.3786 8.67018 12.3793C8.66511 12.3842 8.65614 12.3928 8.64354 12.4046C8.61827 12.4281 8.57876 12.4641 8.52715 12.5084C8.42305 12.5977 8.27437 12.7166 8.09796 12.8342C7.71783 13.0877 7.32675 13.256 7.01648 13.256C6.69471 13.256 6.47933 13.1383 6.32854 12.9545C6.16401 12.754 6.0272 12.4098 6.0272 11.9031C6.0272 11.5838 6.18306 11.1374 6.53385 10.5846C6.87375 10.049 7.34083 9.49994 7.8296 8.99596C8.31516 8.49528 8.8037 8.05783 9.1724 7.74461C9.20477 7.7171 9.23618 7.69059 9.26653 7.66512Z" fill="#FF6B00"/>
<path d="M9.38342 12.4062H9.14703C9.14703 14.4219 6.59375 17.1875 6.59375 17.1875H12.0312C12.0312 17.1875 9.38342 14.4219 9.38342 12.4062Z" fill="#FF6B00"/>
</svg>
