<svg width="25" height="24" viewBox="0 0 25 24" fill="none" xmlns="http://www.w3.org/2000/svg">
<g clip-path="url(#clip0_334_7885)">
<path d="M8.73682 23.9991C8.35682 23.9991 7.97682 23.9251 7.62082 23.7781C6.87682 23.4701 6.28782 22.8611 6.00582 22.1071L5.24582 20.0831C5.10182 19.6991 4.79982 19.3971 4.41682 19.2531L2.39182 18.4931C1.63882 18.2111 1.02982 17.6221 0.721817 16.8781C0.413817 16.1341 0.427817 15.2871 0.761817 14.5541L1.65682 12.5861C1.82582 12.2131 1.82582 11.7861 1.65682 11.4131L0.760817 9.44513C0.427817 8.71313 0.412817 7.86513 0.720817 7.12213C1.02882 6.37913 1.63882 5.78913 2.39282 5.50713L4.41682 4.74713C4.80082 4.60313 5.10282 4.30113 5.24682 3.91813L6.00682 1.89313C6.28882 1.14013 6.87782 0.531129 7.62182 0.223129C8.36582 -0.0848711 9.21282 -0.0708711 9.94582 0.263129L11.9138 1.15813C12.2868 1.32613 12.7128 1.32613 13.0868 1.15813L15.0558 0.263129C15.7878 -0.0708711 16.6358 -0.0838711 17.3788 0.223129C18.1228 0.531129 18.7118 1.14013 18.9938 1.89413L19.7538 3.91813C19.8978 4.30213 20.1998 4.60413 20.5828 4.74813L22.6078 5.50813C23.3608 5.79013 23.9698 6.37913 24.2778 7.12313C24.5858 7.86713 24.5718 8.71413 24.2378 9.44713L23.3428 11.4151C23.1738 11.7881 23.1738 12.2151 23.3428 12.5881L24.2368 14.5571C24.5698 15.2891 24.5848 16.1371 24.2768 16.8801C23.9688 17.6231 23.3598 18.2131 22.6058 18.4951L20.5818 19.2551C20.1978 19.3991 19.8958 19.7011 19.7518 20.0841L18.9918 22.1091C18.7098 22.8621 18.1208 23.4711 17.3768 23.7791C16.6328 24.0871 15.7858 24.0731 15.0528 23.7391L13.0848 22.8441C12.7118 22.6751 12.2848 22.6751 11.9118 22.8441L9.94282 23.7381C9.56182 23.9121 9.14882 23.9991 8.73682 23.9991ZM8.73782 1.50013C8.55382 1.50013 8.37082 1.53613 8.19482 1.60913C7.82782 1.76013 7.54882 2.04913 7.40982 2.42013L6.64982 4.44513C6.35382 5.23313 5.73182 5.85513 4.94282 6.15113L2.91882 6.91113C2.54782 7.05013 2.25882 7.32913 2.10682 7.69613C1.95582 8.06213 1.96182 8.46313 2.12582 8.82413L3.02082 10.7931C3.36982 11.5601 3.36982 12.4391 3.02082 13.2061L2.12582 15.1751C1.96182 15.5361 1.95482 15.9381 2.10682 16.3041C2.25882 16.6711 2.54682 16.9501 2.91882 17.0891L4.94382 17.8491C5.73282 18.1451 6.35482 18.7671 6.65082 19.5561L7.41082 21.5801C7.54982 21.9521 7.82882 22.2401 8.19582 22.3921C8.56182 22.5431 8.96282 22.5381 9.32382 22.3731L11.2928 21.4781C12.0598 21.1291 12.9388 21.1301 13.7058 21.4781L15.6748 22.3731C16.0368 22.5381 16.4378 22.5431 16.8038 22.3921C17.1708 22.2401 17.4498 21.9521 17.5888 21.5801L18.3488 19.5551C18.6448 18.7661 19.2668 18.1441 20.0558 17.8481L22.0798 17.0881C22.4518 16.9491 22.7398 16.6701 22.8918 16.3031C23.0438 15.9371 23.0368 15.5351 22.8728 15.1751L21.9778 13.2061C21.6288 12.4391 21.6288 11.5601 21.9778 10.7931L22.8728 8.82413C23.0368 8.46313 23.0438 8.06113 22.8918 7.69513C22.7398 7.32813 22.4518 7.04913 22.0798 6.91013L20.0548 6.15013C19.2658 5.85413 18.6438 5.23213 18.3478 4.44313L17.5878 2.41913C17.4488 2.04713 17.1698 1.75913 16.8028 1.60713C16.4368 1.45613 16.0358 1.46213 15.6748 1.62613L13.7058 2.52113C12.9388 2.86913 12.0598 2.86913 11.2928 2.52113L9.32382 1.62713C9.13482 1.54213 8.93682 1.50013 8.73782 1.50013ZM13.3948 1.83913H13.4048H13.3948Z" fill="#F98904"/>
<path d="M9 10C7.622 10 6.5 8.878 6.5 7.5C6.5 6.122 7.622 5 9 5C10.378 5 11.5 6.122 11.5 7.5C11.5 8.878 10.378 10 9 10ZM9 6.5C8.449 6.5 8 6.949 8 7.5C8 8.051 8.449 8.5 9 8.5C9.551 8.5 10 8.051 10 7.5C10 6.949 9.551 6.5 9 6.5Z" fill="#F98904"/>
<path d="M16 19C14.622 19 13.5 17.878 13.5 16.5C13.5 15.122 14.622 14 16 14C17.378 14 18.5 15.122 18.5 16.5C18.5 17.878 17.378 19 16 19ZM16 15.5C15.449 15.5 15 15.949 15 16.5C15 17.051 15.449 17.5 16 17.5C16.551 17.5 17 17.051 17 16.5C17 15.949 16.551 15.5 16 15.5Z" fill="#F98904"/>
<path d="M9.24957 17.9996C9.11457 17.9996 8.97857 17.9636 8.85557 17.8876C8.50257 17.6696 8.39457 17.2076 8.61257 16.8556L15.1126 6.35557C15.3306 6.00257 15.7946 5.89457 16.1446 6.11257C16.4976 6.33057 16.6056 6.79257 16.3876 7.14457L9.88757 17.6446C9.74557 17.8736 9.49957 17.9996 9.24957 17.9996Z" fill="#F98904"/>
</g>
<defs>
<clipPath id="clip0_334_7885">
<rect width="24" height="24" fill="white" transform="translate(0.5)"/>
</clipPath>
</defs>
</svg>
