<svg width="31" height="43" viewBox="0 0 31 43" fill="none" xmlns="http://www.w3.org/2000/svg">
<g clip-path="url(#clip0_334_7898)">
<path d="M20.0883 40.7002C20.265 40.4441 20.4301 40.1764 20.5812 39.8875C20.6068 39.8382 20.6324 39.7935 20.6556 39.7489C20.8928 39.2815 21.0881 38.7765 21.2346 38.2433C22.3066 34.2575 20.0999 30.53 15.1796 28.0098C7.50379 24.0803 4.5902 18.9577 3.55312 15C3.54615 15.0188 3.57405 15.0376 3.56707 15.0564C3.48336 15.2701 3.22758 16.111 3.22758 17.8655V17.9383C3.22758 17.9806 3.1927 18.0299 3.1927 18.0745C3.22758 20.1062 3.66939 22.8731 5.44823 25.5812C6.58298 27.3099 8.23858 29.0127 10.6708 30.4901C10.6708 30.4901 10.6662 30.4924 10.6755 30.4971C10.9545 30.6686 11.2033 30.8377 11.4498 31.0092C13.2403 32.2493 14.1309 33.4848 14.368 34.5159C14.368 34.5159 14.9075 36.2281 13.1775 36.9374C13.1612 36.9445 13.1473 36.9468 13.1333 36.9515C12.7961 37.0925 12.4008 37.1723 11.973 37.1817C11.9032 37.1841 11.8684 37.1817 11.7939 37.1794C11.7823 37.1794 11.7707 37.177 11.7591 37.177C11.5056 37.1606 11.2336 37.1159 10.9406 37.0408C10.9336 37.0384 10.922 37.0384 10.915 37.0361C10.7662 36.9938 10.6127 36.9445 10.4546 36.8881C7.34567 35.7724 2.73927 31.4038 1.10227 22.556C0.172153 26.9364 0.130298 31.6339 2.34397 35.5235C2.50907 35.8147 2.68812 36.1036 2.88111 36.3855C3.06016 36.6485 3.25084 36.9022 3.45314 37.1535C5.34127 39.9251 8.46181 42.2034 13.5426 42.9738C13.5426 42.9738 18.1071 43.413 20.0883 40.6978V40.7002Z" fill="url(#paint0_linear_334_7898)"/>
<path d="M30.4974 28.2459C30.4675 33.7309 27.7968 38.3026 23.9158 41C24.0973 40.5445 24.2557 40.0724 24.3866 39.5884C25.8954 33.8519 22.9927 28.4357 16.6201 25.1001C10.0088 21.6411 7.56538 17.2783 6.79838 13.7149C6.79608 13.7078 6.79608 13.703 6.79378 13.6936C6.76393 13.5607 6.74097 13.4326 6.71571 13.2997C6.59629 12.6426 6.53199 12.0186 6.50444 11.4326C6.45162 9.60114 6.88794 8.55728 6.88794 8.55728C7.13595 11.0412 10.367 12.3247 10.367 12.3247C12.4361 1.1957 19.3965 0 19.3965 0C16.0828 13.2641 30.58 13.1811 30.4997 28.2459H30.4974Z" fill="url(#paint1_linear_334_7898)"/>
<path d="M24.2154 39.586C25.5823 34.3403 23.2942 29.3935 18.0631 25.9936H18.0608C18.0608 25.9936 18.054 25.9936 18.0494 25.9889C17.5649 25.6757 17.0578 25.3815 16.5233 25.0992C16.4937 25.0849 16.4641 25.0683 16.4346 25.0517C9.95243 21.5997 7.55291 17.265 6.79552 13.7157C6.79325 13.7086 6.79325 13.7038 6.79097 13.6943C6.7614 13.5615 6.73866 13.4334 6.71364 13.3005C6.59537 12.6433 6.53169 12.0193 6.50439 11.4333C6.45208 9.6017 6.88422 8.55778 6.88422 8.55778C7.12986 11.0418 10.33 12.3254 10.33 12.3254C12.3792 1.19576 19.273 0 19.273 0C19.273 0 10.9441 11.7678 18.3724 18.0598C25.0001 23.6733 27.4997 33.1919 23.7514 41C23.9311 40.5445 24.088 40.07 24.2177 39.586H24.2154Z" fill="url(#paint2_linear_334_7898)"/>
<path d="M10.5 37C10.6564 37.0563 10.8082 37.1033 10.9555 37.1479C10.6886 37.0892 10.5276 37.0376 10.5276 37.0376L10.5 37Z" fill="url(#paint3_linear_334_7898)"/>
<path d="M12.9237 32.3449C13.0847 32.5422 14.5177 34.2349 14.2716 35.3149C14.2624 35.3525 14.267 35.39 14.2601 35.4276C14.1957 35.9535 13.9151 36.578 13.041 36.9396C13.0272 36.9443 13.0134 36.949 12.9996 36.9537C12.6637 37.0945 12.2727 37.1767 11.8494 37.1861C11.7804 37.1885 11.7459 37.1861 11.6723 37.1861C11.6608 37.1861 11.6493 37.1861 11.6378 37.1861C11.3871 37.172 11.118 37.1274 10.8281 37.0499C10.8212 37.0476 10.8097 37.0499 10.8028 37.0499C10.6556 37.0077 10.5038 36.9654 10.3474 36.9114C7.27192 35.7962 2.7151 31.4457 1.09572 22.6016C1.08421 36.3456 8.8982 40.9238 12.5303 39.9636C16.6685 38.8695 14.8651 33.6034 12.9237 32.3496V32.3449Z" fill="url(#paint4_linear_334_7898)"/>
</g>
<defs>
<linearGradient id="paint0_linear_334_7898" x1="10.9988" y1="47.5576" x2="10.9988" y2="13.1789" gradientUnits="userSpaceOnUse">
<stop stop-color="#FC4A1A"/>
<stop offset="1" stop-color="#F7DA33"/>
</linearGradient>
<linearGradient id="paint1_linear_334_7898" x1="18.4986" y1="47.6736" x2="18.4986" y2="-2.66659" gradientUnits="userSpaceOnUse">
<stop stop-color="#FC4A1A"/>
<stop offset="1" stop-color="#F7DA33"/>
</linearGradient>
<linearGradient id="paint2_linear_334_7898" x1="10.1185" y1="-3.67508" x2="26.2158" y2="50.0152" gradientUnits="userSpaceOnUse">
<stop stop-color="#FC4A1A"/>
<stop offset="1" stop-color="#F7B733"/>
</linearGradient>
<linearGradient id="paint3_linear_334_7898" x1="10.9347" y1="37.2629" x2="10.4761" y2="36.8755" gradientUnits="userSpaceOnUse">
<stop stop-color="#00B4DB"/>
<stop offset="1" stop-color="#0083B0"/>
</linearGradient>
<linearGradient id="paint4_linear_334_7898" x1="8.06526" y1="42.9321" x2="8.06526" y2="21.4644" gradientUnits="userSpaceOnUse">
<stop stop-color="#FC4A1A"/>
<stop offset="1" stop-color="#F7DA33"/>
</linearGradient>
<clipPath id="clip0_334_7898">
<rect width="30" height="43" fill="white" transform="translate(0.5)"/>
</clipPath>
</defs>
</svg>
