<svg width="25" height="25" viewBox="0 0 25 25" fill="none" xmlns="http://www.w3.org/2000/svg">
<path d="M23.5914 8.9044C21.9105 7.81968 21.4391 6.99644 20.9402 6.12485C20.473 5.3085 19.9902 4.46519 18.6784 3.62451L20.4715 0.56709L19.0014 0.422656C18.9724 0.419727 18.8161 0.407275 18.5693 0.40625C17.8167 0.407715 16.4104 0.536621 15.1216 1.34375H14.4594C11.3116 1.34375 6.80554 1.70776 4.03019 4.85571L2.93514 6.09746L4.58242 6.39131C4.67775 6.40801 4.77068 6.42749 4.86108 6.44888C3.83117 7.4917 2.40666 9.14609 1.36436 11.1901L0.5 12.885L2.39845 12.5305C2.72193 12.47 3.05616 12.4436 3.34722 12.4342C3.52861 15.3395 4.59497 17.5265 6.59188 19.1003C8.47882 20.5873 10.9019 21.3074 13.2451 22.0039C15.3003 22.6147 17.2413 23.1917 18.6743 24.2243L18.9271 24.4062H20.5767V23.4688C20.5767 20.0447 18.9297 18.1 17.4766 16.384C16.2119 14.8906 15.2323 13.7337 15.3499 11.8505C16.0572 11.9998 16.8095 12.0869 17.5473 12.1725C18.9902 12.3396 20.4827 12.5125 21.3663 13.1249L21.9027 13.4968L22.4491 13.139C22.4685 13.1262 22.928 12.824 23.388 12.3947C24.132 11.7002 24.4955 11.0467 24.5 10.3968C24.5022 10.0599 24.3872 9.41797 23.5914 8.9044ZM21.8504 11.2314C20.6578 10.6448 19.1943 10.4753 17.7717 10.3104C14.9708 9.98574 13.7338 9.69043 13.6449 8.22559L11.7359 8.33691C11.8139 9.62085 12.4057 10.5822 13.4975 11.2004C13.3407 12.3655 13.4694 13.439 13.8839 14.454C14.3748 15.6567 15.2038 16.6354 16.0054 17.5818C17.0934 18.8668 18.1333 20.0946 18.5128 21.9269C17.0664 21.1805 15.4123 20.6888 13.8 20.2096C11.631 19.5649 9.3883 18.8983 7.79018 17.6388C6.04473 16.2632 5.23192 14.3176 5.23192 11.5156V10.6594L4.36204 10.5819C4.3447 10.5805 4.18543 10.5667 3.93621 10.5594C5.22983 8.6085 6.73905 7.23857 7.24721 6.80381L8.27413 5.9249L7.08166 5.27744C7.06552 5.26865 6.89653 5.17783 6.61937 5.05933C8.91601 3.43203 12.1097 3.21875 14.4594 3.21875H15.7267L15.9782 3.03945C16.3522 2.77285 16.7554 2.59795 17.1411 2.48413L16.9648 2.78501C16.4866 3.60532 16.7484 4.64375 17.5608 5.14927C18.536 5.75586 18.845 6.29551 19.2724 7.04258C19.806 7.9748 20.4703 9.13511 22.54 10.4706C22.543 10.4725 22.5456 10.4743 22.5483 10.4762C22.4463 10.6666 22.172 10.9603 21.8504 11.2314ZM18.9059 7.29688C18.9059 7.8147 18.4779 8.23438 17.9497 8.23438C17.4218 8.23438 16.9934 7.8147 16.9934 7.29688C16.9934 6.77905 17.4218 6.35938 17.9497 6.35938C18.4779 6.35938 18.9059 6.77905 18.9059 7.29688Z" fill="#FF6B00"/>
</svg>
