<svg width="81" height="12" viewBox="0 0 81 12" fill="none" xmlns="http://www.w3.org/2000/svg">
<path fill-rule="evenodd" clip-rule="evenodd" d="M6.13085 0.0674764C6.00995 0.103441 3.21581 2.71833 3.21581 2.79573C3.21581 2.81129 3.77507 2.82391 4.45852 2.82391C5.62799 2.82391 5.69993 2.82749 5.67522 2.88532C5.66079 2.91898 5.64002 2.97808 5.62909 3.01677C5.5283 3.37221 4.9769 3.81535 4.54095 3.89128C4.48345 3.90116 4.37916 3.92682 4.30898 3.94785C4.23486 3.97015 3.70642 3.99454 3.04571 4.0059L1.91013 4.02546L1.12348 4.78471C0.691024 5.2024 0.337056 5.55784 0.337056 5.57467C0.337056 5.59128 0.309508 5.6344 0.275838 5.67036C0.179202 5.773 0.189697 6.24453 0.292017 6.40227C0.419918 6.59955 5.89276 11.8407 6.06308 11.929C6.30314 12.0533 6.93258 12.0041 6.93258 11.8609C6.93258 11.8453 6.94876 11.8325 6.96866 11.8325C7.0008 11.8325 9.70202 9.24725 9.70202 9.21634C9.70202 9.20939 9.26322 9.2033 8.72713 9.20288C6.04384 9.20119 5.7301 8.86973 5.7301 6.03548C5.7301 4.56472 5.77229 4.19077 5.99311 3.70431C6.07051 3.53395 6.42207 3.17451 6.51106 3.17451C6.54254 3.17451 6.56812 3.16084 6.56812 3.14423C6.56812 3.10973 6.77692 3.03381 7.09656 2.95221C7.45228 2.86135 7.96694 2.82391 8.87012 2.82349L9.72016 2.82286L8.29904 1.46504C6.67285 -0.0885801 6.6676 -0.0919451 6.13085 0.0674764ZM15.8354 4.04544C15.7116 4.0772 15.5981 4.11527 15.5833 4.12957C15.5686 4.14408 15.5336 4.15586 15.5057 4.15586C15.263 4.15586 14.8812 4.64527 14.7811 5.08484C14.5861 5.93978 14.766 7.25154 15.1272 7.6095C15.5199 7.99859 15.6576 8.02025 17.8551 8.03687L19.7227 8.05096V7.5056V6.96025H18.107C16.0636 6.96025 16.0575 6.95878 15.9729 6.49124C15.8751 5.95093 15.9455 5.31135 16.1207 5.14982L16.2293 5.04971L17.976 5.0392L19.7227 5.02847V4.50457V3.98066L17.8916 3.98403C16.3113 3.98697 16.0297 3.99539 15.8354 4.04544ZM20.2327 4.50646V5.03226H21.1619H22.0911V6.53961V8.04675H22.6924H23.2936V6.53961V5.03226H24.2228H25.152V4.50646V3.98066H22.6924H20.2327V4.50646ZM27.3187 4.02441C27.309 4.0486 27.3055 4.95949 27.3108 6.04873L27.3202 8.0293L27.9306 8.03897L28.5408 8.04844V6.01466V3.98066H27.9385C27.4903 3.98066 27.3316 3.99181 27.3187 4.02441ZM29.5247 5.99615V8.01184H30.1259H30.7272V6.53961C30.7272 5.02426 30.7407 4.88966 30.8664 5.15487C30.8892 5.20325 30.9246 5.24258 30.9451 5.24258C30.9655 5.24258 30.9784 5.25435 30.9733 5.26887C30.9637 5.29726 31.1649 5.56794 31.2101 5.58729C31.225 5.5936 31.2374 5.61442 31.2374 5.63335C31.2374 5.66216 31.3944 5.8851 31.4559 5.94357C31.4659 5.95324 31.5086 6.00856 31.5503 6.06639C31.5923 6.12423 31.8997 6.53772 32.2335 6.98506C32.5676 7.43262 32.8407 7.8072 32.8407 7.8173C32.8407 7.8276 32.8765 7.87555 32.9201 7.92393L32.9996 8.01184H33.8858H34.7719V5.99615V3.98066H34.1706H33.5694V5.47035C33.5694 6.28975 33.5558 6.96025 33.539 6.96025C33.5056 6.96025 33.3145 6.76339 33.3145 6.7289C33.3145 6.71712 33.2627 6.64456 33.1992 6.56758C33.1361 6.49061 33.046 6.37346 32.999 6.30721C32.9522 6.24075 32.8978 6.16735 32.8779 6.144C32.807 6.0605 32.6019 5.78415 32.5344 5.68067C32.4966 5.62283 32.4434 5.55195 32.4163 5.52293C32.3376 5.4388 32.112 5.13868 32.112 5.11807C32.112 5.0983 32.0617 5.03541 31.957 4.92457C31.922 4.88735 31.8934 4.84907 31.8934 4.8396C31.8934 4.81184 31.5958 4.4135 31.4911 4.30119C31.4602 4.26796 31.3975 4.18236 31.3516 4.11085L31.2678 3.98066H30.3964H29.5247V5.99615ZM35.3185 4.50646V5.03226H36.2477H37.1769V6.53961V8.04675H37.7781H38.3793V6.54024V5.03352L39.2996 5.02405L40.2196 5.0148L40.2296 4.49763L40.2397 3.98066H37.7792H35.3185V4.50646ZM40.7843 5.99615V8.01184H43.1711H45.558V7.46838V6.92512H43.7905H42.0233V6.66223V6.39933H42.9706H43.9182V5.97869V5.55805H42.9706H42.0233V5.29515V5.03226H43.7905H45.558V4.50646V3.98066H43.1711H40.7843V5.99615ZM46.1999 4.95339C46.1861 5.48844 46.1763 6.40332 46.178 6.98654L46.1813 8.04675H46.7989H47.4164V7.34576C47.4164 6.96025 47.4295 6.64477 47.4454 6.64477C47.4614 6.64477 47.5722 6.71291 47.6914 6.79641C47.8108 6.87991 47.982 6.99285 48.0723 7.04711C48.1623 7.10137 48.2443 7.15542 48.2544 7.16699C48.2644 7.17856 48.3956 7.26689 48.5458 7.36322C48.6962 7.45975 48.8274 7.54809 48.8375 7.55966C48.8475 7.57122 48.9295 7.62506 49.0196 7.67912C49.1097 7.73338 49.2691 7.83833 49.3733 7.91236L49.5631 8.04675H50.348C51.2103 8.04675 51.2497 8.03561 51.0079 7.8581C50.9392 7.80762 50.873 7.7664 50.8609 7.7664C50.8428 7.7664 50.4103 7.48815 50.2761 7.39035C50.2557 7.37542 50.1165 7.28435 49.9665 7.18802C49.8165 7.0917 49.6856 7.00315 49.6755 6.99159C49.6654 6.97981 49.6082 6.94511 49.548 6.91419L49.4387 6.85782L49.6936 6.85509C50.686 6.84478 51.1091 6.36357 51.0514 5.3103C50.9836 4.0732 50.7717 3.98066 48.0064 3.98066H46.225L46.1999 4.95339ZM53.711 4.06647C53.6761 4.11337 53.6474 4.1607 53.6474 4.17205C53.6474 4.1832 53.6061 4.25513 53.5558 4.33169C53.5055 4.40845 53.4135 4.56198 53.3512 4.67282C53.2891 4.78366 53.2276 4.8823 53.215 4.89197C53.2023 4.90165 53.1629 4.96474 53.1277 5.03226C53.0923 5.09977 53.0317 5.20219 52.993 5.26003C52.9543 5.31787 52.9001 5.40473 52.8728 5.45289C52.5844 5.95892 52.4806 6.1257 52.4336 6.15788C52.4163 6.16966 52.4027 6.19343 52.4034 6.21046C52.4047 6.24411 52.1144 6.74236 52.0029 6.89736C51.9655 6.94973 51.9346 6.99874 51.9346 7.00631C51.9346 7.02461 51.6097 7.56744 51.4853 7.75714C51.3163 8.01458 51.3111 8.01184 51.9827 8.01184H52.5772L52.666 7.86819C52.7147 7.78932 52.7709 7.69868 52.791 7.66671C52.9703 7.38131 53.2508 6.91629 53.3503 6.7392C53.4174 6.61974 53.4955 6.49713 53.5235 6.46663C53.5514 6.43613 53.5744 6.39281 53.5744 6.3703C53.5744 6.3478 53.5908 6.32929 53.6109 6.32929C53.631 6.32929 53.6474 6.30679 53.6474 6.27924C53.6474 6.25168 53.6678 6.20815 53.6929 6.1827C53.718 6.15725 53.7629 6.08911 53.7926 6.03127C53.8223 5.97343 53.9085 5.82726 53.9839 5.70633C54.0593 5.58561 54.121 5.47119 54.121 5.45226C54.121 5.43333 54.1374 5.41777 54.1575 5.41777C54.1776 5.41777 54.194 5.39422 54.194 5.36519C54.194 5.26781 54.3648 5.30252 54.4091 5.40915C54.4314 5.46215 54.5005 5.58434 54.5631 5.68067C54.7126 5.91118 55.3235 6.92765 55.3235 6.94595C55.3235 6.95373 54.98 6.96025 54.5602 6.96025H53.7972L53.7434 7.05657C53.7139 7.10957 53.6605 7.20821 53.6249 7.27573C53.5893 7.34303 53.5503 7.40633 53.5383 7.4158C53.5162 7.43367 53.4181 7.59057 53.2585 7.86272L53.1712 8.01184H55.1949C56.3078 8.01184 57.2184 8.00364 57.2184 7.99375C57.2184 7.98387 57.0717 7.73948 56.8926 7.4505C56.7133 7.16152 56.578 6.92491 56.592 6.92449C56.6058 6.92428 56.599 6.91251 56.5769 6.8982C56.543 6.87675 56.358 6.57957 56.1348 6.18901C56.1073 6.14085 56.0526 6.05398 56.0137 5.99615C55.9746 5.93831 55.909 5.82789 55.8681 5.75092C55.8272 5.67373 55.766 5.56857 55.7317 5.51725C55.59 5.3042 55.4328 5.03099 55.4328 4.99776C55.4328 4.9782 55.4184 4.96222 55.4006 4.96222C55.3829 4.96222 55.358 4.93446 55.3451 4.90081C55.3178 4.82909 55.1844 4.59711 55.0981 4.47134C55.065 4.42317 54.9885 4.29698 54.9284 4.19098L54.8189 3.99812L54.2968 3.98992C53.7817 3.98172 53.774 3.98277 53.711 4.06647ZM58.348 4.0467C57.4608 4.27826 57.2551 4.6459 57.2566 5.99615C57.2577 7.08497 57.3119 7.29592 57.6812 7.64736C58.0479 7.99649 58.2184 8.02109 60.3794 8.03687L62.2469 8.05033V7.50665V6.96277L60.5433 6.95268C58.3518 6.93985 58.4899 7.00126 58.4655 6.02706C58.4394 4.99188 58.3124 5.05266 60.5252 5.03941L62.2469 5.0291V4.50478V3.98066L60.4159 3.98277C58.7847 3.98466 58.559 3.9916 58.348 4.0467ZM62.6477 4.50625V5.03226H63.5769H64.5061V6.53961V8.04675H65.1073H65.7086V6.53961V5.03226H66.6389H67.5689L67.5589 4.51529L67.5488 3.99812L65.0984 3.98908L62.6477 3.98024V4.50625ZM67.948 4.02441C67.9386 4.0486 67.9349 4.95949 67.9402 6.04873L67.9496 8.0293L68.56 8.03897L69.1704 8.04844V6.01466V3.98066H68.5679C68.1197 3.98066 67.9612 3.99181 67.948 4.02441ZM69.5347 4.01347C69.5347 4.05491 69.9057 4.74812 70.7085 6.20647C70.8253 6.41868 70.9783 6.70261 71.0487 6.83742C71.1191 6.97245 71.1919 7.10642 71.2103 7.13544C71.2284 7.16426 71.2842 7.26689 71.3338 7.36322C71.3834 7.45975 71.4799 7.64105 71.5483 7.7664L71.6725 7.99417L72.5818 8.00364L73.4911 8.01289L73.69 7.63558C73.7996 7.428 73.8992 7.25028 73.9117 7.2406C73.9242 7.23093 73.9771 7.13628 74.0293 7.03028C74.0818 6.92428 74.2086 6.68767 74.3114 6.50449C74.4141 6.3213 74.5991 5.98227 74.7222 5.75092C74.8453 5.51956 74.9542 5.32229 74.9642 5.31261C74.9741 5.30294 75.0781 5.11554 75.1953 4.89618C75.3125 4.67661 75.4391 4.44799 75.4767 4.38784C75.7351 3.97477 75.743 3.98066 74.9262 3.98066H74.2366L73.4618 5.47918C72.5603 7.22209 72.5938 7.18297 72.3817 6.74215C72.2033 6.37136 71.432 4.84865 71.3913 4.78681C71.3721 4.758 71.3393 4.69554 71.3183 4.64821C71.2971 4.60089 71.2125 4.43138 71.1303 4.27132L70.9805 3.98066H70.2575C69.8316 3.98066 69.5347 3.99412 69.5347 4.01347ZM75.9844 5.99615V8.01184H78.3893H80.7943V7.46838V6.92512H79.0089H77.2234V6.66117V6.39701L78.1891 6.4069L79.1548 6.41678L79.1546 5.98752V5.55805H78.1891H77.2234V5.29515V5.03226H79.0089H80.7943V4.50646V3.98066H78.3893H75.9844V5.99615ZM7.84363 4.05659C7.21265 4.1853 7.20587 4.20613 7.20587 6.05462V7.54998L7.31672 7.70204C7.40024 7.81666 7.48092 7.87555 7.64467 7.94159L7.86178 8.0293L9.40468 8.03981L10.9474 8.05033L11.774 7.25112C13.0342 6.03232 13.0342 6.02096 11.7675 4.79565L10.9611 4.01579L9.48448 4.01957C8.67203 4.02147 7.93371 4.03829 7.84363 4.05659ZM49.7243 5.13132C49.8003 5.21208 49.8379 5.46888 49.8049 5.68088C49.7614 5.9606 49.6862 5.97701 48.4457 5.97785L47.4164 5.97869V5.52293V5.06738H48.5403C49.5815 5.06738 49.6687 5.07201 49.7243 5.13132ZM9.70202 5.2777V5.41777H9.55619H9.41036V5.2777V5.13742H9.55619H9.70202V5.2777ZM9.70202 6.27671V6.78484H9.55619H9.41036V6.27671V5.76837H9.55619H9.70202V6.27671Z" fill="#24BCBC"/>
</svg>
