<svg width="55" height="12" viewBox="0 0 55 12" fill="none" xmlns="http://www.w3.org/2000/svg">
<path fill-rule="evenodd" clip-rule="evenodd" d="M23.5256 3.75953C23.4853 3.79976 23.4853 3.81469 23.5256 3.82962C23.5682 3.8454 23.3849 3.87057 23.2988 3.86076C23.2842 3.85905 23.2388 3.89161 23.198 3.93313C23.1571 3.9745 23.07 4.00834 23.0047 4.00834C22.9312 4.00834 22.8658 4.03777 22.8333 4.08526C22.8046 4.12749 22.7573 4.16204 22.7282 4.16204C22.6992 4.16204 22.6754 4.19673 22.6754 4.23896C22.6754 4.29526 22.6475 4.31588 22.5706 4.31588C22.4938 4.31588 22.4659 4.33635 22.4659 4.39266C22.4659 4.4447 22.4378 4.46958 22.3795 4.46958C22.332 4.46958 22.3041 4.48564 22.3173 4.50527C22.3306 4.52503 22.294 4.58802 22.236 4.64546C22.178 4.70276 22.1305 4.76446 22.1305 4.78252C22.1305 4.80058 22.1 4.81536 22.0627 4.81536C22.0156 4.81536 22.0016 4.83882 22.0168 4.89228C22.0289 4.93451 22.024 4.96081 22.006 4.95058C21.988 4.94034 21.9732 4.97859 21.9732 5.03546C21.9732 5.09233 21.952 5.14522 21.9261 5.15318C21.9002 5.16115 21.8789 5.19314 21.8789 5.22427C21.8789 5.25555 21.864 5.27262 21.8457 5.26224C21.8274 5.25186 21.8098 5.27603 21.8065 5.31584C21.8003 5.39091 21.9295 5.45361 22.0038 5.41153C22.0282 5.39773 22.0351 5.41309 22.0206 5.44793C21.9881 5.52499 22.0758 5.62238 22.1775 5.62238C22.2282 5.62238 22.2562 5.59508 22.2562 5.54546C22.2562 5.45205 22.2886 5.44878 22.3891 5.53224C22.4606 5.59153 22.4713 5.59124 22.547 5.52854C22.6255 5.46342 22.6314 5.4674 22.7362 5.65707C22.7958 5.76485 22.8631 5.85286 22.8858 5.85286C22.9084 5.85286 22.927 5.89025 22.927 5.93575C22.927 6.06911 23.1307 6.28949 23.2031 6.23433C23.239 6.20717 23.2624 6.20476 23.2624 6.22836C23.2624 6.24983 23.2875 6.27627 23.3182 6.28708C23.3489 6.29788 23.3742 6.28324 23.3742 6.25438C23.3742 6.22566 23.3584 6.21101 23.3392 6.22196C23.3199 6.23277 23.3043 6.22338 23.3043 6.20106C23.3043 6.16608 23.3519 6.14774 23.43 6.15257C23.4415 6.15329 23.4564 6.03997 23.4631 5.90091C23.4722 5.70669 23.4941 5.6329 23.5574 5.58271C23.6027 5.54674 23.6396 5.4947 23.6396 5.46712C23.6396 5.3902 24.0081 5.08408 24.1128 5.07399C24.2191 5.06389 24.3106 5.00205 24.2825 4.95953C24.2604 4.92584 24.3835 4.9146 24.6401 4.92683C24.8949 4.93892 24.9658 4.91077 24.8915 4.82674C24.8523 4.78238 24.8507 4.77114 24.8868 4.79105C24.9157 4.80697 24.9393 4.80257 24.9393 4.78152C24.9393 4.76034 24.9196 4.7319 24.8955 4.7184C24.8716 4.70475 24.8634 4.66053 24.8774 4.62001C24.8924 4.57692 24.8831 4.54636 24.8552 4.54636C24.829 4.54636 24.7781 4.51948 24.7421 4.4865C24.7063 4.45365 24.6511 4.43631 24.6194 4.44811C24.5878 4.45991 24.5337 4.47996 24.4991 4.4929C24.456 4.50882 24.4361 4.49261 24.4361 4.44114C24.4361 4.34375 24.3081 4.23896 24.189 4.23896C23.9832 4.23896 23.7967 3.99725 23.8692 3.82422C23.9171 3.70962 23.8709 3.68858 23.6948 3.74474C23.6446 3.76081 23.5973 3.75924 23.59 3.74133C23.5827 3.72327 23.5537 3.73152 23.5256 3.75953ZM19.7378 3.9455C19.7936 4.00123 19.8533 4.04687 19.8703 4.04687C19.9157 4.04687 19.8893 3.92986 19.8431 3.92673C19.8215 3.92517 19.766 3.90597 19.7199 3.88408C19.6492 3.85052 19.652 3.86005 19.7378 3.9455ZM20.0238 4.07886C20.1074 4.15906 20.1401 4.1545 20.1037 4.06763C20.09 4.03507 20.05 4.00834 20.0147 4.00834C19.9604 4.00834 19.9618 4.01929 20.0238 4.07886ZM25.1298 4.2101C25.1662 4.32071 25.2227 4.37617 25.2622 4.34005C25.2793 4.32441 25.2684 4.29768 25.2383 4.28062C25.2082 4.26356 25.1851 4.23853 25.1871 4.22503C25.1978 4.15223 25.1862 4.12365 25.146 4.12365C25.1191 4.12365 25.1127 4.1582 25.1298 4.2101ZM25.1361 4.47171C25.1226 4.51906 25.1318 4.54522 25.1589 4.53683C25.212 4.52076 25.2413 4.39266 25.192 4.39266C25.1737 4.39266 25.1485 4.4282 25.1361 4.47171ZM26.0606 5.16442C25.9635 5.26195 25.9677 5.31243 26.0711 5.28769C26.1254 5.27461 26.1549 5.23522 26.1549 5.17593C26.1549 5.06887 26.1558 5.06887 26.0606 5.16442ZM26.0108 5.65693C25.9978 5.67627 25.9495 5.68295 25.9034 5.67186C25.8442 5.65764 25.8195 5.67072 25.8195 5.71622C25.8195 5.75745 25.8385 5.77025 25.872 5.75177C25.9135 5.72888 25.9138 5.73485 25.873 5.78105C25.8178 5.84361 25.8001 7.42837 25.8547 7.42837C25.8862 7.42837 25.9996 7.64604 26.015 7.73576C26.0204 7.76747 26.0593 7.81936 26.1014 7.85107C26.1436 7.88277 26.1712 7.94007 26.1629 7.97832C26.1546 8.01657 26.1871 8.07913 26.2352 8.11723C26.2833 8.15548 26.3227 8.20709 26.3227 8.23211C26.3227 8.2914 26.5299 8.48093 26.5624 8.45122C26.6075 8.40984 26.6956 8.50851 26.6694 8.57122C26.6523 8.61174 26.6602 8.62297 26.6928 8.60449C26.7218 8.58813 26.7418 8.59994 26.7418 8.63335C26.7418 8.66463 26.7984 8.71311 26.8676 8.74112C26.9368 8.76913 26.9934 8.81193 26.9934 8.83624C26.9934 8.87363 27.1392 8.93235 27.2588 8.94316C27.2779 8.94487 27.3185 8.97743 27.3488 9.01553C27.3792 9.05364 27.4578 9.08904 27.5236 9.09416C27.6021 9.10027 27.6415 9.12402 27.6384 9.16326C27.6345 9.2116 27.6911 9.22468 27.9318 9.23108C28.0959 9.23534 28.2472 9.2544 28.268 9.27331C28.2903 9.29364 28.3378 9.29207 28.3838 9.26947C28.4418 9.24103 28.4591 9.24387 28.4508 9.28084C28.4398 9.33018 28.5531 9.33828 28.7331 9.30089C28.7792 9.29136 28.8625 9.29904 28.9182 9.31809C28.9864 9.34141 29.0341 9.33785 29.0649 9.30714C29.099 9.27302 29.0916 9.26776 29.035 9.2861C28.99 9.3006 28.9697 9.29506 28.985 9.27245C29.0238 9.21487 29.0947 9.22681 29.1588 9.30174C29.1969 9.34624 29.2127 9.35079 29.2054 9.31539C29.1935 9.25781 29.2596 9.24615 29.7182 9.22454C29.9556 9.2133 29.9906 9.20207 29.9906 9.13667C29.9908 9.07667 30.015 9.06416 30.1108 9.07454C30.1768 9.08164 30.2213 9.07297 30.2095 9.05534C30.1831 9.01539 30.2867 8.92297 30.3218 8.95496C30.3357 8.9679 30.3471 8.96179 30.3471 8.9416C30.3471 8.92141 30.399 8.90548 30.4625 8.90634C30.5366 8.90733 30.5735 8.8897 30.5662 8.857C30.5599 8.82899 30.5728 8.81634 30.5948 8.82885C30.6168 8.84122 30.6461 8.83482 30.6598 8.81434C30.6905 8.76899 30.556 8.70032 30.4834 8.7242C30.4497 8.73515 30.4401 8.71937 30.4566 8.68012C30.4753 8.6352 30.4642 8.6251 30.4147 8.64259C30.3393 8.66904 30.3246 8.75605 30.3891 8.79259C30.451 8.82771 30.44 8.87591 30.37 8.87591C30.3364 8.87591 30.3187 8.86141 30.3305 8.84378C30.3424 8.82629 30.3204 8.81179 30.2816 8.81179C30.2205 8.81179 30.2188 8.80283 30.2686 8.74453C30.3216 8.68254 30.3201 8.68183 30.2473 8.73415C30.176 8.78577 30.162 8.78278 30.1006 8.70245C29.9422 8.49558 29.5234 8.10984 29.4055 8.06249C29.3354 8.0342 29.3064 8.00946 29.341 8.00733C29.3969 8.00406 29.3969 7.99965 29.341 7.96695C29.2917 7.93823 29.3074 7.92486 29.4144 7.9051C29.5501 7.88007 29.594 7.80344 29.5023 7.7514C29.4758 7.73647 29.4313 7.75268 29.4034 7.78766C29.3756 7.82249 29.332 7.85107 29.3066 7.85107C29.2811 7.85107 29.2228 7.88818 29.1768 7.93353C29.0657 8.04273 28.4386 8.05737 28.355 7.95273C28.3274 7.91789 28.2904 7.8896 28.2729 7.8896C28.2554 7.8896 28.1768 7.8377 28.098 7.77429C28.0192 7.71088 27.967 7.65898 27.9822 7.65898C27.9974 7.65898 27.9864 7.63325 27.958 7.60182C27.9295 7.57026 27.8895 7.55405 27.869 7.56557C27.8485 7.57723 27.8318 7.56045 27.8318 7.52832C27.8318 7.49618 27.7944 7.43789 27.7486 7.39879C27.6891 7.34789 27.6641 7.27396 27.6607 7.13789C27.6551 6.90784 27.6303 6.81357 27.5749 6.81357C27.5521 6.81357 27.5427 6.82722 27.554 6.844C27.5653 6.86078 27.5366 6.87713 27.4904 6.88026C27.4263 6.88466 27.4169 6.87428 27.451 6.83675C27.4757 6.80959 27.4817 6.77448 27.4646 6.75884C27.4476 6.7432 27.4327 6.71021 27.4316 6.68547C27.4307 6.66087 27.4099 6.64409 27.3855 6.64836C27.3598 6.65291 27.3488 6.61253 27.3592 6.55225C27.372 6.47888 27.3655 6.46381 27.3373 6.50063C27.3081 6.5386 27.2892 6.54073 27.2675 6.5086C27.2511 6.48428 27.2577 6.44234 27.2821 6.41547C27.3784 6.30897 27.221 6.19793 27.0112 6.22438C26.8583 6.24357 26.8051 6.23347 26.7299 6.17148C26.5983 6.063 26.5408 6.0384 26.5475 6.09343C26.5506 6.11973 26.5343 6.14106 26.5113 6.14106C26.4882 6.14106 26.4688 6.09784 26.468 6.04509C26.466 5.89423 26.0747 5.5621 26.0108 5.65693ZM22.4435 5.97016C22.4037 6.02916 22.4583 6.06727 22.5121 6.01793C22.5422 5.99035 22.543 5.96888 22.5143 5.95267C22.4909 5.93944 22.4591 5.94726 22.4435 5.97016ZM23.1094 6.46552C23.1142 6.57329 23.1181 6.57556 23.193 6.51343C23.2624 6.45613 23.2636 6.44703 23.2036 6.43608C23.1662 6.42912 23.1463 6.40751 23.1595 6.38803C23.1727 6.36841 23.1657 6.35248 23.144 6.35248C23.1222 6.35248 23.1066 6.40324 23.1094 6.46552ZM29.5506 7.6014C29.5118 7.64434 29.511 7.65898 29.5479 7.65898C29.5765 7.65898 29.5841 7.67946 29.5661 7.70704C29.5431 7.74187 29.5534 7.74116 29.603 7.70419C29.6405 7.67618 29.661 7.6287 29.6484 7.59855C29.6199 7.53031 29.6148 7.53045 29.5506 7.6014ZM24.9812 8.23538C24.9812 8.28842 25.0091 8.3123 25.0714 8.3123C25.1592 8.3123 25.1595 8.31003 25.086 8.23538C25.0443 8.19316 25.0035 8.15861 24.9956 8.15861C24.9877 8.15861 24.9812 8.19316 24.9812 8.23538Z" fill="#43FBA9"/>
<path fill-rule="evenodd" clip-rule="evenodd" d="M4.3686 0.0906933C4.35169 0.149983 4.31105 0.166617 4.18402 0.166617C4.07715 0.166617 3.99246 0.193063 3.93739 0.243537C3.86821 0.30695 3.72691 0.33567 3.57536 0.317045C3.56063 0.315339 3.53255 0.336951 3.51301 0.365103C3.48369 0.407473 3.47749 0.40733 3.47687 0.36368C3.4764 0.320457 3.46461 0.319888 3.41141 0.360268C3.3596 0.399794 3.35743 0.416003 3.40086 0.441311C3.43592 0.461643 3.40303 0.474724 3.30857 0.477994C3.05279 0.486667 3.03604 0.491928 3.04194 0.560601C3.04783 0.62828 3.01417 0.642498 2.87829 0.629701C2.83765 0.625863 2.73187 0.688706 2.64315 0.769322C2.44802 0.946764 2.30252 1.03222 2.30252 0.96923C2.30252 0.939514 2.28205 0.941362 2.23753 0.975201C2.18572 1.01459 2.18371 1.03079 2.22714 1.0561C2.28158 1.08781 2.18867 1.10729 2.059 1.09122C2.02891 1.08752 2.00967 1.10715 2.01634 1.13473C2.03092 1.19629 1.8178 1.39634 1.73761 1.39634C1.70565 1.39634 1.67339 1.4353 1.6661 1.48279C1.65695 1.54179 1.62856 1.56554 1.57691 1.55743C1.52371 1.54919 1.50494 1.56639 1.51409 1.61516C1.52278 1.6625 1.49688 1.68852 1.43266 1.69677C1.37201 1.70473 1.3382 1.73558 1.3382 1.78336C1.3382 1.83085 1.30935 1.85743 1.25785 1.85743C1.2138 1.85743 1.16804 1.87905 1.15641 1.90549C1.14074 1.94104 1.13438 1.93976 1.1319 1.9008C1.12926 1.85758 1.11701 1.85701 1.0638 1.89739C1.012 1.93691 1.00983 1.95326 1.05326 1.979C1.09777 2.0053 1.09777 2.0171 1.05357 2.04326C0.970584 2.09246 0.988576 2.94668 1.07203 2.91739C1.10491 2.90573 1.14291 2.92294 1.15656 2.9555C1.17021 2.98806 1.20635 3.00597 1.23675 2.99531C1.27243 2.98265 1.2836 2.99616 1.26809 3.03299C1.24761 3.0819 1.31291 3.08943 1.71124 3.08446C2.03278 3.08047 2.17642 3.06498 2.17254 3.03484C2.15966 2.93716 2.18029 2.90374 2.25009 2.90886C2.29616 2.91227 2.32129 2.8891 2.31757 2.84701C2.31198 2.78161 2.34952 2.76355 2.46213 2.77734C2.49222 2.78104 2.51347 2.76156 2.50944 2.73384C2.49439 2.63061 2.51409 2.59621 2.58544 2.60147C2.63275 2.60488 2.65881 2.57957 2.65881 2.52995C2.65897 2.47891 2.68689 2.45317 2.74273 2.45317C2.7967 2.45317 2.82447 2.42929 2.82075 2.38578C2.81671 2.33957 2.84525 2.31853 2.91211 2.31853C2.98098 2.31853 3.01324 2.29336 3.0227 2.23208C3.03154 2.17535 3.06489 2.14563 3.11996 2.14563C3.16602 2.14563 3.23675 2.11535 3.27708 2.07838C3.31757 2.04142 3.3883 2.01113 3.43437 2.01113C3.49021 2.01113 3.51828 1.98554 3.51828 1.93435C3.51828 1.87492 3.5462 1.85743 3.64159 1.85743C3.71853 1.85743 3.78771 1.82772 3.8254 1.77838C3.87286 1.71625 3.93243 1.69904 4.10522 1.69791C4.28081 1.69663 4.32858 1.68241 4.34456 1.62682C4.35666 1.58416 4.41963 1.54776 4.50727 1.53269C4.59196 1.51819 4.65013 1.48535 4.65013 1.45222C4.65013 1.39876 5.15858 1.3652 5.54403 1.39335C5.63306 1.39989 5.66812 1.38226 5.68518 1.32226C5.71465 1.2189 6.19674 1.20269 6.2867 1.30207C6.31617 1.33463 6.36565 1.35255 6.39652 1.3416C6.42739 1.3308 6.45267 1.33975 6.45267 1.36151C6.45267 1.3834 6.48571 1.39805 6.52604 1.39435C6.90745 1.35881 7.36658 1.40075 7.38721 1.47326C7.40397 1.53212 7.44429 1.55004 7.5597 1.55004C7.64253 1.55004 7.71046 1.56923 7.71046 1.59255C7.71046 1.61601 7.73776 1.62554 7.77111 1.61374C7.80943 1.60037 7.82416 1.61089 7.81098 1.64217C7.79686 1.67615 7.83254 1.69307 7.92297 1.69535C7.99587 1.69734 8.09716 1.73459 8.14772 1.77824C8.21085 1.83241 8.2957 1.85743 8.41715 1.85743C8.5628 1.85743 8.59227 1.86952 8.58203 1.92469C8.57381 1.96976 8.60127 1.99606 8.66471 2.00431C8.71698 2.01113 8.75017 2.03075 8.73854 2.04796C8.72691 2.06516 8.74087 2.09715 8.76941 2.1189C8.8254 2.16142 8.84029 2.16483 8.9681 2.16483C9.02394 2.16483 9.05186 2.19056 9.05186 2.24175C9.05186 2.29293 9.07978 2.31853 9.13578 2.31853C9.21178 2.31853 9.24001 2.35962 9.22357 2.44635C9.22016 2.46369 9.23583 2.46767 9.25801 2.45502C9.31431 2.42317 9.60546 2.69744 9.5704 2.74948C9.55458 2.77294 9.56109 2.78076 9.58498 2.76725C9.63911 2.73654 9.89039 2.95265 9.89039 3.02986C9.89039 3.06156 9.92778 3.08716 9.97415 3.08716C10.0277 3.08716 10.0581 3.11275 10.0581 3.15811C10.0581 3.19706 10.0958 3.26019 10.1418 3.29844C10.1881 3.33668 10.2257 3.40863 10.2257 3.45811C10.2257 3.52266 10.2495 3.54825 10.3095 3.54825C10.3903 3.54825 10.421 3.64337 10.3953 3.81285C10.3902 3.84626 10.4113 3.85764 10.4517 3.84342C10.5347 3.81413 10.5622 3.85721 10.5692 4.0284C10.573 4.12479 10.5913 4.16062 10.6295 4.14726C10.7091 4.11925 10.7313 4.17328 10.7389 4.41285C10.7437 4.56797 10.7601 4.62143 10.7987 4.60792C10.8809 4.57892 10.8927 4.62442 10.902 5.00788C10.9095 5.31783 10.9206 5.36731 10.9873 5.38338C11.1096 5.41267 11.1037 6.58623 10.9807 6.69898C10.9349 6.74092 10.9002 6.80576 10.9036 6.84301C10.9202 7.02372 10.8927 7.43192 10.865 7.41657C10.8161 7.38941 10.7471 7.47785 10.7423 7.57354C10.7399 7.62102 10.7361 7.70989 10.7334 7.77103C10.73 7.85178 10.7088 7.8805 10.6554 7.87667C10.583 7.87141 10.5754 7.88918 10.5659 8.08809C10.5625 8.15961 10.5395 8.1879 10.4877 8.18406C10.4153 8.1788 10.4077 8.19657 10.3982 8.39548C10.3948 8.467 10.3717 8.49529 10.3201 8.49146C10.2493 8.48634 10.2411 8.50397 10.2306 8.6834C10.2278 8.73075 10.1902 8.77397 10.1418 8.78549C10.0958 8.79658 10.0581 8.83312 10.0581 8.86681C10.0581 8.9025 10.023 8.92809 9.97415 8.92809C9.91831 8.92809 9.89039 8.95369 9.89039 9.00501C9.89039 9.0562 9.86232 9.08179 9.80648 9.08179C9.75064 9.08179 9.72272 9.10738 9.72272 9.15871C9.72272 9.20094 9.70178 9.23549 9.67619 9.23549C9.65075 9.23549 9.64113 9.26236 9.65478 9.2952C9.66921 9.32961 9.66207 9.34483 9.63803 9.33118C9.57971 9.29805 9.45919 9.4172 9.49595 9.47165C9.51472 9.49966 9.50774 9.50606 9.47733 9.48871C9.41793 9.45516 9.28779 9.56563 9.32393 9.61909C9.33882 9.64113 9.32222 9.64767 9.28469 9.63445C9.24886 9.62179 9.21954 9.63075 9.21954 9.65407C9.21954 9.67753 9.18185 9.69658 9.13578 9.69658C9.07978 9.69658 9.05186 9.72232 9.05186 9.7735C9.05186 9.83023 9.02394 9.85028 8.9453 9.85028C8.86697 9.85028 8.84184 9.8682 8.851 9.91753C8.85906 9.96232 8.83983 9.98123 8.79298 9.97426C8.75436 9.96843 8.7114 9.98052 8.69744 10.0014C8.68332 10.0222 8.64284 10.0289 8.60716 10.0163C8.56078 10 8.54636 10.0141 8.55613 10.0661C8.56745 10.1263 8.53969 10.1406 8.39156 10.1504C8.24761 10.16 8.21349 10.1764 8.21349 10.2369C8.21349 10.2873 8.18309 10.3128 8.11918 10.3155C8.06722 10.3178 7.99649 10.3235 7.9619 10.3282C7.92731 10.3328 7.86604 10.3397 7.82571 10.3434C7.78538 10.3469 7.75234 10.3758 7.75234 10.4075C7.75234 10.4435 7.71279 10.4652 7.64749 10.4652C7.57071 10.4652 7.54263 10.4857 7.54263 10.542C7.54263 10.6115 7.5127 10.6195 7.22822 10.6246C7.05543 10.6279 6.89024 10.6321 6.86154 10.6343C6.79004 10.6395 6.70876 10.7083 6.73218 10.7437C6.75219 10.774 6.49765 10.7824 5.80431 10.7743C5.55473 10.7713 5.37511 10.7526 5.35836 10.7277C5.34285 10.7046 5.3095 10.6977 5.28406 10.712C5.25459 10.7287 5.24746 10.7156 5.26421 10.6756C5.28112 10.6351 5.26979 10.6158 5.23226 10.6206C4.77328 10.6793 4.31478 10.5636 4.31478 10.389C4.31478 10.3599 4.28174 10.3489 4.23086 10.361C4.18464 10.3721 4.15563 10.3682 4.16618 10.3525C4.17688 10.3367 4.11934 10.3215 4.03852 10.3188C3.85534 10.3124 3.80849 10.2871 3.84014 10.2113C3.85565 10.174 3.84324 10.1548 3.80694 10.1594C3.62096 10.1833 3.48586 10.1545 3.49145 10.0924C3.49563 10.0454 3.45965 10.024 3.36364 10.0162C3.22233 10.0048 3.0151 9.848 3.0151 9.75246C3.0151 9.71848 2.97415 9.69658 2.9104 9.69658C2.84743 9.69658 2.80555 9.67469 2.80555 9.6417C2.80555 9.61142 2.76305 9.58113 2.71124 9.57445C2.65928 9.56762 2.61693 9.54203 2.61693 9.51729C2.61693 9.49269 2.59971 9.458 2.57877 9.44051C2.55675 9.42203 2.55256 9.42772 2.569 9.45388C2.58451 9.47876 2.58203 9.50777 2.56342 9.51843C2.5448 9.52895 2.52681 9.50435 2.5234 9.46383C2.52014 9.42317 2.46896 9.34895 2.40986 9.29876C2.35076 9.24857 2.30252 9.18786 2.30252 9.16383C2.30252 9.1398 2.28112 9.12018 2.2549 9.12018C2.22869 9.12018 2.16292 9.07639 2.10863 9.02264C1.9847 8.90008 1.32687 8.88089 1.34812 9.00046C1.3551 9.03971 1.32439 9.06715 1.26483 9.07483C1.20961 9.08208 1.17052 9.11407 1.17052 9.15203C1.17052 9.18786 1.1319 9.23919 1.08475 9.2662C0.977564 9.32748 0.966085 10.0435 1.07094 10.1233C1.10274 10.1474 1.12864 10.1538 1.12864 10.1376C1.12864 10.1214 1.17486 10.1538 1.23148 10.2099C1.28794 10.2657 1.35867 10.3118 1.38861 10.3121C1.43328 10.3125 1.43328 10.3183 1.38876 10.3442C1.34518 10.3695 1.34735 10.3859 1.39916 10.4253C1.45236 10.4656 1.46492 10.4651 1.46895 10.4218C1.47175 10.3928 1.48602 10.421 1.5006 10.4844C1.52386 10.5845 1.54791 10.6013 1.68425 10.6117C1.80725 10.6209 1.84138 10.6397 1.84138 10.6981C1.84138 10.7531 1.87038 10.7726 1.95306 10.7726C2.01464 10.7726 2.05248 10.784 2.03728 10.7979C1.99943 10.8326 2.09343 10.9306 2.1395 10.9044C2.15997 10.8929 2.17673 10.9276 2.17673 10.9816C2.17673 11.0708 2.19239 11.08 2.3444 11.08C2.48416 11.08 2.51208 11.0928 2.51208 11.1569C2.51208 11.205 2.54 11.2337 2.58668 11.2337C2.62763 11.2337 2.68844 11.2682 2.72163 11.3106C2.75498 11.3528 2.83005 11.3874 2.88853 11.3874C2.94964 11.3874 3.01727 11.4202 3.04736 11.4643C3.08071 11.5134 3.14508 11.5411 3.22512 11.5411C3.29461 11.5411 3.38783 11.5754 3.43437 11.618C3.48043 11.6602 3.55597 11.6948 3.60204 11.6948C3.64811 11.6948 3.72194 11.7279 3.76615 11.7684C3.82106 11.8188 3.92328 11.8469 4.09095 11.8579C4.29073 11.8708 4.33339 11.8855 4.32346 11.9376C4.31229 11.9964 4.45189 12.0013 6.05636 11.9998C7.58777 11.9982 7.79841 11.991 7.77732 11.9405C7.76243 11.9048 7.7708 11.8929 7.79934 11.9092C7.82478 11.9236 7.86061 11.9129 7.87892 11.8856C7.8997 11.8549 7.99525 11.837 8.13082 11.8384C8.31136 11.8404 8.35293 11.828 8.37015 11.7677C8.38163 11.7276 8.42646 11.6927 8.46989 11.6901C8.63431 11.68 8.73047 11.6315 8.69371 11.5769C8.68022 11.5569 8.75343 11.5411 8.86077 11.5411C9.02394 11.5411 9.05186 11.5299 9.05186 11.4643C9.05186 11.3908 9.15393 11.3625 9.33727 11.3851C9.3686 11.389 9.38659 11.3622 9.37915 11.3224C9.37046 11.2751 9.39637 11.2491 9.46058 11.2407C9.52123 11.2327 9.55489 11.2019 9.55489 11.1542C9.55489 11.0836 9.6599 11.0554 9.84029 11.0776C9.87178 11.0816 9.88962 11.0547 9.88217 11.015C9.87349 10.9677 9.89939 10.9417 9.96376 10.9333C10.0243 10.9253 10.0581 10.8945 10.0581 10.8468C10.0581 10.7982 10.0869 10.7726 10.1418 10.7726C10.1978 10.7726 10.2257 10.747 10.2257 10.6957C10.2257 10.6438 10.2537 10.6189 10.312 10.6189C10.3595 10.6189 10.3877 10.603 10.3745 10.5835C10.3435 10.5376 10.4724 10.4194 10.5225 10.4479C10.5437 10.46 10.5611 10.4341 10.5611 10.3906C10.5611 10.3371 10.5882 10.3115 10.6449 10.3115C10.7008 10.3115 10.7288 10.2859 10.7288 10.2346C10.7288 10.1834 10.7567 10.1578 10.8127 10.1578C10.8746 10.1578 10.8964 10.1321 10.8964 10.0594C10.8964 10.0054 10.9132 9.97056 10.9337 9.98208C10.9541 9.99374 10.9942 9.97739 11.0225 9.94597C11.0511 9.91455 11.0579 9.88853 11.0379 9.88824C11.0177 9.88796 11.0485 9.86592 11.106 9.83933C11.1794 9.80549 11.2149 9.7536 11.224 9.66701C11.2338 9.57402 11.2575 9.54288 11.3183 9.54288C11.3715 9.54288 11.3995 9.51644 11.3995 9.46611C11.3995 9.41478 11.4275 9.38919 11.4834 9.38919C11.5375 9.38919 11.5671 9.36359 11.5671 9.31682C11.5671 9.27672 11.6047 9.23549 11.6511 9.2244C11.7153 9.20904 11.7348 9.17193 11.7348 9.06615C11.7348 8.97928 11.766 8.89952 11.8187 8.85118C11.8648 8.80895 11.9026 8.74354 11.9026 8.70601C11.9026 8.66847 11.9403 8.61274 11.9864 8.58231C12.0357 8.54975 12.0703 8.48278 12.0703 8.42008C12.0703 8.36136 12.0911 8.3133 12.1167 8.3133C12.1421 8.3133 12.1525 8.28814 12.1398 8.25757C12.1251 8.22259 12.1366 8.20894 12.1707 8.22088C12.2223 8.23908 12.2324 8.1751 12.2512 7.70804C12.2534 7.65486 12.2811 7.62159 12.3235 7.62159C12.3762 7.62159 12.3937 7.57979 12.3995 7.44088C12.4037 7.34164 12.428 7.24837 12.4536 7.23387C12.4792 7.21936 12.4874 7.18837 12.4718 7.16519C12.4538 7.1386 12.4674 7.13135 12.5082 7.14571C12.544 7.15837 12.5733 7.14955 12.5733 7.12609C12.5733 7.10277 12.5498 7.0833 12.5209 7.08301C12.4821 7.08258 12.4812 7.07505 12.5174 7.05386C12.6157 6.99657 12.5875 4.96622 12.488 4.94248C12.4071 4.923 12.3771 4.74243 12.4044 4.43887C12.41 4.37731 12.3855 4.34318 12.3252 4.32882C12.2464 4.30991 12.1991 4.08186 12.233 3.88451C12.2357 3.86873 12.2002 3.8211 12.1541 3.77887C12.0742 3.70565 12.0505 3.63214 12.0685 3.51427C12.0737 3.47972 12.0525 3.46948 12.0083 3.48498C11.9648 3.50034 11.9504 3.49365 11.9687 3.46664C11.9844 3.44346 11.9777 3.41332 11.954 3.39981C11.9304 3.38645 11.9044 3.34152 11.8963 3.30014C11.8882 3.25877 11.8487 3.19394 11.8082 3.15597C11.7679 3.11815 11.7348 3.04322 11.7348 2.98934C11.7348 2.91768 11.7154 2.89464 11.6616 2.90289C11.6103 2.91085 11.5921 2.8928 11.6014 2.84318C11.6095 2.80052 11.5968 2.78218 11.5701 2.79725C11.5425 2.81289 11.5295 2.78858 11.5358 2.73398C11.5434 2.66986 11.5259 2.64668 11.4728 2.65052C11.4218 2.65422 11.3995 2.62791 11.3995 2.56407C11.3995 2.49796 11.376 2.47237 11.3157 2.47237C11.2582 2.47237 11.2302 2.44521 11.227 2.38578C11.2167 2.20194 11.2087 2.18431 11.1375 2.18943C11.0865 2.19312 11.0641 2.16682 11.0641 2.10298C11.0641 2.03687 11.0407 2.01113 10.9804 2.01113C10.9244 2.01113 10.8964 1.98554 10.8964 1.93435C10.8964 1.88303 10.8685 1.85743 10.8127 1.85743C10.7567 1.85743 10.7288 1.83184 10.7288 1.78066C10.7288 1.72933 10.7008 1.70374 10.6449 1.70374C10.5901 1.70374 10.5611 1.67814 10.5611 1.62952C10.5611 1.58189 10.5274 1.55103 10.4668 1.54307C10.4148 1.53639 10.3725 1.50497 10.3725 1.47326C10.3725 1.44155 10.3536 1.41525 10.3304 1.41497C10.2473 1.41383 10.1879 1.35426 10.2122 1.2961C10.2279 1.25899 10.2155 1.23966 10.1791 1.24435C10.0705 1.25814 10.0111 1.24279 10.0353 1.20681C10.0637 1.16459 9.98362 1.11155 9.87985 1.10387C9.83952 1.10089 9.78755 1.09634 9.7646 1.09378C9.74149 1.09108 9.72272 1.05553 9.72272 1.01473C9.72272 0.967097 9.6889 0.936101 9.62826 0.928281C9.56233 0.91975 9.53814 0.8943 9.5476 0.843541C9.55737 0.791503 9.54295 0.77757 9.49657 0.793778C9.46105 0.80629 9.42041 0.799607 9.40645 0.778849C9.39233 0.75809 9.34937 0.745864 9.31074 0.751693C9.26375 0.758802 9.24467 0.73975 9.25304 0.694394C9.25987 0.657143 9.25041 0.628848 9.2321 0.631692C9.10925 0.650744 9.01991 0.620744 9.02518 0.562308C9.02953 0.512544 8.99106 0.493634 8.86496 0.484108C8.77375 0.477141 8.66843 0.446145 8.63105 0.41515C8.59367 0.384012 8.55039 0.370221 8.53488 0.384297C8.51952 0.398515 8.50696 0.388562 8.50696 0.3624C8.50696 0.336239 8.46446 0.318041 8.41265 0.321879C8.24451 0.334391 8.16603 0.321168 8.19069 0.284628C8.23769 0.214959 8.13004 0.178419 7.85704 0.171452C7.72691 0.168182 7.66843 0.150124 7.66843 0.113442C7.66843 -0.0217724 4.40707 -0.0443787 4.3686 0.0906933ZM16.7921 1.91559C16.7649 1.98056 16.8136 2.01682 16.8781 1.97985C16.9101 1.96151 16.9076 1.93961 16.8695 1.9072C16.8266 1.8708 16.81 1.87265 16.7921 1.91559ZM4.2245 2.35137C4.22093 2.36502 4.2138 2.3936 4.20837 2.41464C4.20294 2.43583 4.19643 2.50066 4.19379 2.55881C4.19115 2.61682 4.17487 2.66246 4.15749 2.6599C4.02549 2.64085 4.02317 2.66374 4.02363 3.95176C4.02394 4.93679 4.03604 5.23921 4.07513 5.23963C4.11251 5.24006 4.11158 5.24873 4.07172 5.27191C4.02782 5.29736 4.02906 5.31243 4.07808 5.34968C4.1257 5.38594 4.14353 5.38523 4.1606 5.34641C4.1834 5.29409 4.20527 5.40826 4.19084 5.50366C4.18572 5.53736 4.20682 5.54845 4.24808 5.53395C4.3126 5.5112 4.41622 5.62594 4.3762 5.67599C4.36534 5.68921 4.36844 5.6922 4.38287 5.68253C4.42211 5.65608 4.65013 5.77281 4.65013 5.81916C4.65013 5.84134 4.69247 5.85627 4.74443 5.85244C5.05683 5.82926 6.74738 5.85954 6.72815 5.88798C6.69961 5.93035 6.80648 6.01637 6.84433 5.98168C6.85953 5.96774 6.87194 5.98708 6.87194 6.02447C6.87194 6.06826 6.89365 6.08504 6.93274 6.07139C6.97338 6.05703 6.98579 6.06841 6.97012 6.10566C6.9529 6.14689 6.98051 6.1614 7.07715 6.1614C7.17936 6.1614 7.20728 6.17775 7.20728 6.23817C7.20728 6.28936 7.2352 6.31509 7.2912 6.31509C7.37077 6.31509 7.39683 6.37196 7.37682 6.50277C7.37186 6.5359 7.3928 6.54756 7.43266 6.53362C7.4764 6.51813 7.48912 6.52865 7.47315 6.56675C7.46043 6.59746 7.47082 6.62249 7.49626 6.62249C7.59289 6.62249 7.55628 7.53245 7.45887 7.55591C7.41063 7.56742 7.37496 7.60823 7.37496 7.65216C7.37496 7.70107 7.34875 7.72638 7.30159 7.72297C7.25568 7.71955 7.2304 7.74273 7.23412 7.78482C7.23815 7.83159 7.20946 7.85207 7.13981 7.85207C7.06753 7.85207 7.03961 7.87354 7.03961 7.92899C7.03961 7.98742 7.01169 8.00576 6.92312 8.00576C6.85472 8.00576 6.78166 8.03761 6.74614 8.08268C6.68859 8.15605 6.63772 8.15961 5.64702 8.15961C4.84417 8.15961 4.60809 8.17041 4.60747 8.20752C4.60716 8.23965 4.59336 8.23638 4.56621 8.19799C4.53007 8.14667 4.52542 8.14667 4.52433 8.19799C4.5234 8.24292 4.51549 8.24463 4.4885 8.20582C4.46074 8.16558 4.44429 8.16672 4.40365 8.21165C4.3641 8.25529 4.36488 8.27164 4.40722 8.28728C4.46306 8.30776 4.34145 8.32823 4.23893 8.31558C4.20883 8.31188 4.18743 8.3315 4.19146 8.35908C4.20899 8.47795 4.18774 8.56311 4.15315 8.51321C4.12554 8.4734 4.10786 8.47525 4.06489 8.52273C4.02069 8.5715 4.02131 8.58231 4.06861 8.58288C4.10569 8.58316 4.11018 8.5934 4.08149 8.6116C3.98749 8.67117 4.0196 9.07625 4.12663 9.18203C4.18557 9.24047 4.21535 9.30487 4.19999 9.34127C4.18138 9.38592 4.19255 9.39615 4.24125 9.37909C4.28112 9.36502 4.35138 9.39231 4.41544 9.44677C4.53193 9.54573 6.4066 9.59563 6.73342 9.50833C6.82261 9.48459 6.87224 9.48601 6.88186 9.5126C6.90358 9.57232 7.1654 9.50876 7.1654 9.44378C7.1654 9.40668 7.21395 9.38919 7.31664 9.38919C7.43607 9.38919 7.4626 9.37667 7.4429 9.32961C7.42723 9.29208 7.43499 9.27971 7.46399 9.29606C7.48943 9.31042 7.52356 9.30231 7.54 9.278C7.55644 9.25355 7.63927 9.23123 7.72427 9.22838C7.83998 9.2244 7.87597 9.20776 7.8679 9.16198C7.86123 9.12416 7.89288 9.09644 7.95151 9.08876C8.00983 9.08108 8.04581 9.0498 8.04581 9.00658C8.04581 8.95738 8.08831 8.92937 8.18945 8.91188C8.30609 8.89184 8.33835 8.86539 8.36085 8.77155C8.3762 8.70785 8.43189 8.61132 8.48493 8.557C8.68441 8.3524 8.71015 8.31714 8.72365 8.22984C8.73234 8.17325 8.76212 8.14397 8.80431 8.15022C8.85829 8.15833 8.87271 8.1178 8.87907 7.94036C8.88341 7.81951 8.90761 7.70889 8.93289 7.69467C8.95818 7.68031 8.96593 7.6496 8.95027 7.62629C8.93289 7.60041 8.94515 7.5923 8.98191 7.60524C9.02689 7.62103 9.04209 7.59401 9.04178 7.49903C9.04132 7.34306 9.08754 7.03808 9.1153 7.01263C9.12663 7.0024 9.13578 7.02273 9.13578 7.05799C9.13578 7.09325 9.15703 7.12197 9.18293 7.12197C9.21333 7.12197 9.22078 7.07946 9.20387 7.00197C9.18945 6.93585 9.17766 6.86675 9.17766 6.84827C9.17766 6.82979 9.14943 6.81457 9.11484 6.81457C9.05326 6.81457 9.03868 6.75713 9.0438 6.5349C9.0455 6.45798 9.02767 6.43111 8.97989 6.43879C8.91273 6.44974 8.90528 6.42557 8.87969 6.11334C8.87318 6.034 8.85224 5.96917 8.83316 5.96917C8.81408 5.96917 8.77577 5.92168 8.74785 5.86353C8.72008 5.80537 8.67805 5.74509 8.65447 5.72959C8.62764 5.71182 8.63182 5.70115 8.66579 5.70073C8.69542 5.70044 8.63244 5.62239 8.52557 5.52727C8.41886 5.43215 8.34502 5.35437 8.36147 5.35437C8.37791 5.35437 8.36814 5.32864 8.33959 5.29708C8.31105 5.26565 8.27104 5.24945 8.25056 5.26096C8.23024 5.27262 8.21349 5.23779 8.21349 5.18376C8.21349 5.11096 8.19162 5.08537 8.12957 5.08537C8.08351 5.08537 8.00952 5.0521 7.96531 5.01158C7.92095 4.97106 7.84091 4.9321 7.78709 4.92513C7.71791 4.91617 7.6934 4.89129 7.70302 4.83996C7.71264 4.78892 7.69821 4.77399 7.654 4.78963C7.61926 4.80172 7.54403 4.77157 7.48555 4.72181C7.40986 4.6574 7.33603 4.6338 7.22574 4.63864C7.13051 4.64262 7.0635 4.6257 7.05016 4.59413C7.03852 4.56598 7.00393 4.55176 6.97353 4.56243C6.94003 4.57423 6.92653 4.56172 6.93956 4.53086C6.95663 4.48977 6.82308 4.47854 6.2577 4.47342C5.871 4.46987 5.54961 4.46247 5.54356 4.45693C5.53752 4.45138 5.531 4.00252 5.52898 3.45953C5.52588 2.55696 5.51952 2.47237 5.45422 2.47237C5.41498 2.47237 5.35898 2.43711 5.32951 2.39402C5.27662 2.31639 4.24374 2.27644 4.2245 2.35137ZM15.3092 2.37824C15.2805 2.40654 15.2712 2.43753 15.2883 2.44706C15.3053 2.45644 15.3425 2.44109 15.3712 2.41265C15.3998 2.38436 15.4092 2.35336 15.3922 2.34384C15.3751 2.33445 15.3377 2.34981 15.3092 2.37824ZM15.2656 5.62338C15.2622 8.68454 15.2698 8.86454 15.3985 8.74639C15.4127 8.73359 15.424 8.76928 15.424 8.82558C15.424 8.88203 15.4533 8.95838 15.4891 8.99535C15.5248 9.03231 15.5862 9.10227 15.6253 9.15075C15.6746 9.21189 15.7449 9.24146 15.8536 9.24686C15.9721 9.25283 16.0109 9.27132 16.0109 9.32193C16.0109 9.39018 16.0579 9.41023 16.1086 9.36359C16.153 9.32307 16.3505 9.31355 16.3236 9.35336C16.3103 9.37312 16.3297 9.38919 16.3666 9.38919C16.4071 9.38919 16.4289 9.36288 16.4215 9.32279C16.4091 9.25582 16.4257 9.249 16.6227 9.24032C16.6936 9.2372 16.7392 9.20876 16.7534 9.15871C16.7655 9.11606 16.8105 9.08179 16.8543 9.08179C16.9202 9.08179 16.9332 9.0525 16.9332 8.90478C16.9332 8.75918 16.945 8.73188 16.9996 8.75108C17.036 8.76387 17.0737 8.7744 17.0834 8.7744C17.093 8.7744 17.1009 8.80895 17.1009 8.85118C17.1009 8.9025 17.1288 8.92809 17.1848 8.92809C17.2309 8.92809 17.2686 8.94729 17.2686 8.97061C17.2686 8.99407 17.2959 9.00359 17.3294 8.99179C17.37 8.97757 17.3824 8.98895 17.3667 9.02606C17.3495 9.06743 17.3771 9.08179 17.4738 9.08179C17.576 9.08179 17.6039 9.09828 17.6039 9.15871C17.6039 9.22838 17.6321 9.23563 17.9079 9.23606C18.0834 9.23649 18.1888 9.24999 18.1575 9.26833C18.1141 9.2935 18.1161 9.30985 18.1679 9.34923C18.2209 9.38961 18.2327 9.38933 18.2327 9.34781C18.2327 9.30829 18.2439 9.30729 18.2831 9.34312C18.3539 9.40795 18.9872 9.40625 18.988 9.34113C18.9884 9.30871 19.0029 9.31184 19.0326 9.3508C19.0672 9.39587 19.0709 9.38961 19.0502 9.32193C19.0269 9.24601 19.546 9.17691 19.6278 9.24516C19.6521 9.26549 19.7741 9.13781 19.7561 9.11065C19.7455 9.09473 19.7631 9.08179 19.7948 9.08179C19.8266 9.08179 19.8943 9.03786 19.9453 8.98411C19.9962 8.93051 20.0592 8.89852 20.0851 8.91331C20.111 8.92795 20.121 8.92354 20.1076 8.90335C20.0705 8.84847 20.1372 8.77141 20.2279 8.7643C20.3007 8.75861 20.4547 8.648 20.4547 8.6015C20.4547 8.59084 20.4547 8.55629 20.4547 8.52458C20.4547 8.49259 20.4919 8.467 20.5385 8.467C20.5951 8.467 20.6224 8.44141 20.6224 8.38823C20.6224 8.34501 20.6695 8.26951 20.7271 8.2206C20.8501 8.1161 20.8609 8.07686 20.7586 8.106C20.6888 8.12591 20.6888 8.12491 20.7586 8.08368C20.8453 8.03264 20.8577 7.95017 20.7742 7.97946C20.7426 7.99069 20.7173 7.97946 20.7179 7.95472C20.7215 7.84183 20.7038 7.76463 20.6796 7.78681C20.665 7.80017 20.6165 7.76847 20.5718 7.71628C20.477 7.60595 20.3087 7.59159 20.1971 7.6843C20.119 7.74899 20.0354 7.64576 20.0354 7.48453C20.0354 7.45425 20.0058 7.42937 19.9697 7.42937C19.9245 7.42937 19.9118 7.4069 19.929 7.35728C19.952 7.29102 19.9138 7.26386 19.741 7.2232C19.6767 7.20813 19.4904 7.04661 19.4904 7.00609C19.4904 6.97097 19.4727 6.97239 19.4212 7.01164C19.383 7.04064 19.3405 7.05998 19.3267 7.05472C19.3131 7.04946 19.3008 7.12723 19.2997 7.22747C19.2982 7.36766 19.2811 7.41287 19.2264 7.42254C19.1871 7.42936 19.155 7.46719 19.155 7.50657C19.155 7.56273 19.1314 7.5741 19.045 7.55974C18.9624 7.54609 18.9408 7.55505 18.958 7.596C18.9884 7.66866 18.9096 7.73662 18.8282 7.7079C18.7809 7.69126 18.7703 7.70221 18.7896 7.74813C18.8231 7.8279 18.7781 7.85306 18.5909 7.85946C18.48 7.8633 18.4446 7.88022 18.4527 7.92558C18.4611 7.97377 18.4237 7.98657 18.2748 7.98657C18.1212 7.98657 18.0882 7.97463 18.0978 7.92202C18.1065 7.87396 18.0795 7.8579 17.9929 7.8596C17.8031 7.8633 17.7824 7.85577 17.7595 7.77529C17.7471 7.73193 17.7022 7.69837 17.6566 7.69837C17.4555 7.69837 17.2171 7.31576 17.265 7.07007C17.2686 7.05202 17.233 7.0068 17.1862 6.96941C17.11 6.90898 17.101 6.85652 17.1015 6.48344C17.102 6.24969 17.1173 6.08718 17.1367 6.11504C17.1642 6.155 17.182 6.15301 17.225 6.10552C17.2692 6.05675 17.2686 6.04594 17.2212 6.04552C17.1761 6.04495 17.1772 6.03684 17.2267 6.00756C17.2825 5.97457 17.2825 5.9703 17.2267 5.96917C17.1774 5.96831 17.1756 5.9612 17.2185 5.93632C17.2484 5.91883 17.2698 5.88883 17.2658 5.86964C17.2459 5.77239 17.2734 5.62153 17.3076 5.64087C17.3291 5.6531 17.3577 5.6467 17.3712 5.62665C17.3847 5.60661 17.3736 5.57774 17.3466 5.56239C17.3162 5.54518 17.3087 5.55129 17.3272 5.57859C17.3463 5.60689 17.3339 5.61442 17.292 5.59964C17.1969 5.56623 17.2606 5.50054 17.3601 5.52954C17.4311 5.55016 17.4401 5.5412 17.4167 5.47338C17.3933 5.40584 17.4061 5.39276 17.4963 5.39276C17.5732 5.39276 17.6039 5.37243 17.6039 5.32139C17.6039 5.26807 17.5747 5.25101 17.4887 5.25414C17.422 5.25656 17.3773 5.23949 17.3826 5.21376C17.3878 5.18802 17.3497 5.17352 17.292 5.17935C17.2217 5.18632 17.1986 5.17366 17.2143 5.13641C17.2265 5.10726 17.1729 5.02352 17.0953 4.9503C16.9455 4.80897 16.7948 4.77086 16.8161 4.87963C16.8229 4.91447 16.8048 4.95044 16.7759 4.95968C16.7472 4.96892 16.7237 4.95072 16.7237 4.9193C16.7237 4.88276 16.6959 4.86868 16.6473 4.88034C16.5326 4.90778 16.4545 4.80285 16.5139 4.70105C16.5777 4.59214 16.4944 4.49603 16.3571 4.52006C16.2253 4.54323 16.0087 4.35171 16.0405 4.24024C16.0739 4.1238 15.9746 4.03721 15.8367 4.06252C15.7658 4.07546 15.6981 4.06309 15.6627 4.03053C15.6132 3.98517 15.5958 3.99768 15.5457 4.11513L15.487 4.25276L15.4604 4.14072L15.4339 4.02868L15.4289 4.15124C15.4263 4.21863 15.4052 4.28461 15.3821 4.29754C15.355 4.31304 15.3382 4.11427 15.3346 3.73309C15.3317 3.40948 15.3157 3.01507 15.2991 2.85654C15.2825 2.69801 15.2675 3.94309 15.2656 5.62338ZM15.5536 3.66143C15.5062 3.6883 15.5073 3.70749 15.5599 3.77617C15.6205 3.85565 15.6238 3.85593 15.6441 3.7847C15.6725 3.68545 15.625 3.6209 15.5536 3.66143ZM25.1743 4.08129C25.1457 4.12351 25.2669 4.22247 25.3045 4.18778C25.3194 4.17427 25.3084 4.16304 25.2802 4.16304C25.252 4.16304 25.2397 4.14697 25.2529 4.12735C25.2662 4.10759 25.2591 4.08143 25.2374 4.06906C25.2155 4.05669 25.1871 4.06223 25.1743 4.08129ZM17.059 4.18351C17.059 4.24565 17.1245 4.25987 17.1611 4.20555C17.1738 4.18664 17.1561 4.16119 17.1217 4.14911C17.0835 4.13574 17.059 4.14925 17.059 4.18351ZM20.2996 4.22276C20.3022 4.27408 20.3335 4.30295 20.3895 4.30536C20.4369 4.30735 20.4519 4.30067 20.4229 4.29044C20.394 4.2802 20.3827 4.25333 20.3979 4.23072C20.4136 4.20769 20.4061 4.20072 20.3809 4.21508C20.3562 4.22901 20.3269 4.21878 20.3157 4.19219C20.3047 4.1656 20.2973 4.17939 20.2996 4.22276ZM22.5716 4.23996C22.5079 4.30465 22.506 4.31688 22.5603 4.31688C22.5958 4.31688 22.6346 4.28219 22.6467 4.23996C22.6588 4.19773 22.6639 4.16304 22.658 4.16304C22.6523 4.16304 22.6134 4.19773 22.5716 4.23996ZM16.7078 4.57807C16.6742 4.62811 16.7072 4.70105 16.7635 4.70105C16.7828 4.70105 16.8097 4.67418 16.8234 4.64148C16.8372 4.60864 16.8313 4.59143 16.8105 4.60323C16.7897 4.61503 16.7651 4.6038 16.7558 4.57835C16.7427 4.54224 16.732 4.54224 16.7078 4.57807ZM17.7182 5.13513C17.6607 5.21561 17.6618 5.22385 17.7291 5.2284C17.781 5.2321 17.8031 5.20565 17.8031 5.14025C17.8031 5.02523 17.797 5.02494 17.7182 5.13513ZM17.8409 5.10328C17.8279 5.13442 17.8381 5.17167 17.8639 5.18617C17.8919 5.2021 17.8986 5.19499 17.8805 5.16812C17.864 5.14381 17.8705 5.12376 17.8949 5.12376C17.9194 5.12376 17.9393 5.10655 17.9393 5.08537C17.9393 5.02651 17.8674 5.03973 17.8409 5.10328ZM19.1423 5.53281C19.1698 5.54305 19.1818 5.57632 19.1691 5.6066C19.1457 5.66262 19.202 5.68281 19.2526 5.63646C19.2883 5.60376 19.2011 5.50708 19.1395 5.51106C19.1074 5.51319 19.1083 5.52016 19.1423 5.53281ZM21.1482 5.92808C21.1195 5.97059 21.1856 6.01637 21.2244 5.98097C21.2642 5.94443 21.2568 5.89239 21.2118 5.89239C21.1901 5.89239 21.1614 5.90845 21.1482 5.92808ZM19.2821 6.20931C19.2811 6.29391 19.2997 6.31495 19.3751 6.31438C19.4288 6.3141 19.4499 6.30173 19.424 6.28566C19.399 6.27016 19.3571 6.22282 19.3309 6.18059C19.2865 6.10893 19.2833 6.11092 19.2821 6.20931ZM21.2231 6.43026C21.2262 6.55708 21.2433 6.66087 21.261 6.66087C21.2786 6.66087 21.2931 6.55708 21.2931 6.43026C21.2931 6.30358 21.276 6.19978 21.2552 6.19978C21.2343 6.19978 21.2199 6.30358 21.2231 6.43026ZM4.69201 6.394C4.69201 6.44305 4.66331 6.46879 4.60825 6.46879C4.55225 6.46879 4.52433 6.49438 4.52433 6.54557C4.52433 6.5969 4.49641 6.62249 4.44042 6.62249C4.38458 6.62249 4.35666 6.64808 4.35666 6.69926C4.35666 6.74163 4.31896 6.81074 4.27274 6.85296C4.22667 6.89533 4.18898 6.96443 4.18898 7.00666C4.18898 7.04903 4.22667 7.11813 4.27274 7.1605C4.31896 7.20273 4.35883 7.27623 4.36146 7.32372C4.3717 7.50571 4.37946 7.52548 4.44042 7.52548C4.47501 7.52548 4.51378 7.56003 4.52635 7.6024C4.54232 7.65543 4.58777 7.68074 4.67308 7.68401C4.90141 7.69283 4.96609 7.70392 4.9104 7.72439C4.8679 7.74003 4.86713 7.75638 4.90668 7.80003C4.94732 7.84496 4.96376 7.8461 4.99168 7.80586C5.0182 7.76747 5.02627 7.76704 5.02673 7.80415C5.02798 7.89586 5.50711 7.86529 5.62934 7.76562C5.69387 7.71301 5.78941 7.67918 5.87395 7.67918C5.9861 7.67918 6.0151 7.66254 6.02596 7.59216C6.03341 7.54425 6.05497 7.51382 6.07373 7.52448C6.0925 7.53515 6.12725 7.52249 6.15098 7.49619C6.19736 7.445 6.20123 7.43121 6.20123 7.3142C6.20123 7.2623 6.22915 7.23728 6.28717 7.23728C6.36426 7.23728 6.37139 7.21808 6.35681 7.05159C6.33913 6.8477 6.3002 6.76296 6.24017 6.79709C6.21876 6.80917 6.20123 6.76552 6.20123 6.69983C6.20123 6.60827 6.18448 6.58325 6.1288 6.59192C6.08723 6.59846 6.05605 6.5787 6.05543 6.54557C6.05497 6.51386 6.01324 6.45016 5.96299 6.4041C5.82881 6.28111 4.69201 6.27215 4.69201 6.394ZM19.4485 6.43197C19.4485 6.48543 19.4251 6.50689 19.3751 6.49922C19.3174 6.4904 19.299 6.51997 19.2884 6.6377C19.2748 6.79111 19.3529 6.89292 19.4153 6.80292C19.4603 6.73822 19.4561 6.69926 19.4041 6.69926C19.3798 6.69926 19.3714 6.71661 19.3857 6.73779C19.3999 6.75884 19.3953 6.77618 19.3756 6.77618C19.3557 6.77618 19.3396 6.71306 19.3396 6.63585C19.3396 6.55879 19.3467 6.51557 19.3556 6.53988C19.3878 6.6286 19.4728 6.58083 19.4821 6.46879C19.4874 6.40538 19.482 6.35348 19.4702 6.35348C19.4583 6.35348 19.4485 6.38874 19.4485 6.43197ZM38.7077 7.56387C38.7077 7.90212 38.714 8.03534 38.722 7.85989C38.7297 7.68458 38.7296 7.4079 38.7218 7.2451C38.7139 7.0823 38.7075 7.22576 38.7077 7.56387ZM20.2259 7.23458C20.1972 7.27709 20.2633 7.32301 20.3021 7.28747C20.3419 7.25093 20.3345 7.19889 20.2895 7.19889C20.2678 7.19889 20.2391 7.21495 20.2259 7.23458ZM23.486 7.30183C23.4885 7.3479 23.5042 7.3779 23.5211 7.36837C23.538 7.3587 23.5712 7.38159 23.5949 7.41898C23.6357 7.48325 23.6382 7.48339 23.6394 7.41984C23.6402 7.38287 23.6207 7.35259 23.5963 7.35259C23.572 7.35259 23.5654 7.33254 23.5819 7.30823C23.5996 7.28192 23.5934 7.27424 23.567 7.28917C23.5423 7.30325 23.513 7.29287 23.5018 7.26628C23.4907 7.23984 23.4835 7.25576 23.486 7.30183ZM21.6284 7.40704C21.6284 7.44756 21.7547 7.55704 21.7775 7.53628C21.788 7.52662 21.7589 7.48723 21.7125 7.44884C21.6663 7.41045 21.6284 7.39169 21.6284 7.40704ZM21.8079 7.77273C21.8037 7.82363 21.8268 7.84524 21.8814 7.8414C21.9551 7.83643 21.9559 7.83103 21.893 7.76719C21.8099 7.68316 21.8153 7.68273 21.8079 7.77273ZM26.0433 7.88349C26.0114 7.90183 26.014 7.92373 26.052 7.95614C26.0948 7.9924 26.1114 7.99069 26.1294 7.94776C26.1566 7.88278 26.1079 7.84638 26.0433 7.88349ZM20.8592 8.02382C20.8462 8.05482 20.8566 8.09207 20.8822 8.10657C20.9104 8.12264 20.9169 8.11553 20.8988 8.08866C20.8823 8.0642 20.8888 8.0443 20.9134 8.0443C20.9377 8.0443 20.9577 8.02695 20.9577 8.00576C20.9577 7.94704 20.8859 7.96013 20.8592 8.02382ZM22.1507 8.31586C22.1344 8.34018 22.153 8.35184 22.1964 8.34458C22.2461 8.33648 22.2721 8.35923 22.2771 8.41496C22.2845 8.49785 22.4123 8.64515 22.4482 8.61217C22.4587 8.6025 22.4308 8.56425 22.3861 8.52714C22.3415 8.49003 22.3157 8.43373 22.3291 8.40188C22.3667 8.31202 22.2057 8.23439 22.1507 8.31586ZM23.204 9.07667C23.1738 9.12146 23.3092 9.22568 23.3956 9.22397C23.4406 9.22312 23.4562 9.20193 23.4404 9.16383C23.424 9.12459 23.4102 9.12032 23.399 9.15103C23.3719 9.22554 23.3053 9.20378 23.3053 9.12018C23.3053 9.04212 23.2448 9.0161 23.204 9.07667ZM25.035 9.14151C25.0064 9.1698 24.997 9.2008 25.014 9.21018C25.0311 9.21971 25.0685 9.20421 25.097 9.17592C25.1257 9.14748 25.1352 9.11648 25.1181 9.1071C25.101 9.09757 25.0637 9.11307 25.035 9.14151ZM24.7078 9.27658C24.6926 9.29919 24.6396 9.33274 24.5901 9.35108L24.5001 9.38435L24.5944 9.38677C24.6463 9.38819 24.6891 9.36758 24.6894 9.34113C24.6898 9.30587 24.6996 9.30686 24.7261 9.34525C24.7513 9.38165 24.7708 9.3845 24.7908 9.35492C24.8066 9.33146 24.7949 9.31212 24.7646 9.31184C24.7247 9.31141 24.7269 9.30103 24.7727 9.27388C24.8104 9.25156 24.8155 9.23649 24.7855 9.23606C24.7581 9.23577 24.7232 9.25397 24.7078 9.27658Z" fill="#69F48C"/>
<path fill-rule="evenodd" clip-rule="evenodd" d="M15.8 1.76465C15.7726 1.7948 15.7667 1.82067 15.7868 1.82195C15.807 1.82337 15.7792 1.84058 15.7251 1.86048C15.6711 1.88039 15.617 1.93101 15.605 1.97295C15.5931 2.01489 15.568 2.04049 15.549 2.02982C15.4892 1.99584 15.4394 2.10091 15.4163 2.31035C15.4107 2.36139 15.3853 2.39011 15.3552 2.37959C15.3221 2.36793 15.313 2.38357 15.3296 2.42338C15.3482 2.46788 15.34 2.47655 15.3004 2.45423C15.2578 2.43006 15.2514 2.44812 15.272 2.53428C15.2868 2.59556 15.3113 3.02125 15.3265 3.48007C15.3418 3.93903 15.3702 4.30543 15.3898 4.29448C15.4091 4.28339 15.4274 4.21912 15.4301 4.15173L15.435 4.02917L15.4616 4.14121L15.4881 4.25325L15.5469 4.11562C15.597 3.99818 15.6144 3.98566 15.6638 4.03102C15.6992 4.06358 15.767 4.07595 15.8379 4.06301C15.9758 4.0377 16.075 4.12429 16.0417 4.24074C16.0099 4.35221 16.2264 4.54372 16.3583 4.52055C16.4955 4.49652 16.5788 4.59263 16.5151 4.70154C16.4557 4.80335 16.5337 4.90828 16.6485 4.88083C16.697 4.86918 16.7248 4.88325 16.7248 4.91979C16.7248 4.95121 16.7484 4.96941 16.7771 4.96017C16.8059 4.95093 16.8241 4.91496 16.8172 4.88012C16.796 4.77136 16.9466 4.80946 17.0964 4.95079C17.174 5.02401 17.2277 5.10776 17.2154 5.1369C17.1997 5.17415 17.2229 5.18681 17.2931 5.17984C17.3508 5.17401 17.389 5.18851 17.3837 5.21425C17.3755 5.25406 17.4402 5.25804 17.6766 5.23231C17.7045 5.22918 17.7192 5.21496 17.7094 5.20046C17.6997 5.18595 17.7209 5.14117 17.7566 5.10107C17.82 5.02998 17.821 5.03012 17.7971 5.10505C17.7735 5.17885 17.7749 5.17913 17.8327 5.11088C17.8659 5.07178 17.9126 5.05088 17.9365 5.06439C17.9606 5.07804 18.0131 5.05387 18.0535 5.01065C18.1521 4.90501 18.4129 4.90415 18.5273 5.00894C18.5736 5.05131 18.6592 5.08586 18.7178 5.08586C18.7957 5.08586 18.8211 5.10377 18.8121 5.15226C18.8051 5.19022 18.8267 5.21894 18.8627 5.21937C18.8973 5.21994 18.932 5.23771 18.9396 5.25875C18.9665 5.33198 19.0401 5.39226 19.077 5.37136C19.0975 5.35984 19.1143 5.37179 19.1143 5.39809C19.1143 5.42439 19.1527 5.48354 19.1997 5.52932C19.2649 5.59288 19.2885 5.67591 19.2992 5.87767C19.3165 6.20596 19.311 6.18293 19.3898 6.25516C19.4467 6.30734 19.4471 6.31558 19.3932 6.31558C19.3438 6.31558 19.3322 6.36449 19.3378 6.54606C19.3417 6.67288 19.3601 6.77668 19.3787 6.77668C19.3974 6.77668 19.4011 6.75933 19.3868 6.73829C19.3725 6.7171 19.3829 6.69976 19.4098 6.69976C19.4371 6.69976 19.4475 6.72663 19.4332 6.76061C19.4192 6.79402 19.4077 6.828 19.4077 6.83625C19.4077 6.84435 19.3795 6.84108 19.3449 6.829C19.2975 6.81236 19.2819 6.83554 19.2819 6.92284C19.2819 7.03772 19.3274 7.05834 19.4392 6.99421C19.4698 6.97672 19.4915 6.98284 19.4915 7.009C19.4915 7.04781 19.6798 7.20905 19.7422 7.22369C19.915 7.26436 19.9531 7.29151 19.9302 7.35777C19.9129 7.40739 19.9257 7.42986 19.9708 7.42986C20.0069 7.42986 20.0366 7.45474 20.0366 7.48502C20.0366 7.64626 20.1202 7.74948 20.1982 7.68479C20.3099 7.59208 20.4782 7.60644 20.5729 7.71678C20.6176 7.76896 20.6662 7.80066 20.6807 7.7873C20.7049 7.76512 20.7226 7.84232 20.7191 7.95521C20.7184 7.97995 20.7437 7.99118 20.7754 7.97995C20.8593 7.95052 20.8462 8.03398 20.7597 8.08005C20.7194 8.10166 20.7065 8.11986 20.7312 8.12043C20.8397 8.12327 20.9494 7.93858 20.943 7.76398C20.9382 7.63388 20.9492 7.59877 20.986 7.62678C21.0183 7.65123 21.0446 7.65038 21.0625 7.62393C21.0774 7.60175 21.0743 7.58341 21.0556 7.58298C21.037 7.5827 21.0488 7.56677 21.0819 7.54758C21.1343 7.51715 21.1343 7.50379 21.0819 7.44464C21.0488 7.40725 21.0429 7.38834 21.0688 7.40256C21.1017 7.42061 21.1178 7.34526 21.1222 7.15232C21.1258 6.98895 21.1484 6.86497 21.1774 6.84848C21.2481 6.80838 21.255 6.12776 21.1856 6.02283C21.156 5.97804 21.1262 5.81653 21.1194 5.66411C21.1126 5.51155 21.0922 5.37833 21.0741 5.36809C21.0561 5.35785 21.0539 5.3307 21.0694 5.3078C21.0856 5.28392 21.0781 5.27709 21.0521 5.29188C20.9879 5.32828 20.9596 5.27098 20.9519 5.08927C20.9482 5.00283 20.9274 4.93216 20.9055 4.93216C20.8838 4.93216 20.876 4.90842 20.8881 4.87927C20.9019 4.84657 20.8836 4.82823 20.8402 4.83121C20.8017 4.83391 20.7702 4.81017 20.7702 4.77846C20.7702 4.70837 20.7011 4.62988 20.6465 4.63799C20.6244 4.64126 20.6055 4.60941 20.6044 4.56704C20.603 4.51244 20.577 4.49254 20.5143 4.49837C20.4416 4.50505 20.4296 4.48984 20.4457 4.41192C20.4647 4.32164 20.4257 4.29434 20.3091 4.31595C20.286 4.32021 20.2804 4.31154 20.2965 4.29676C20.3365 4.26007 20.2261 4.16353 20.1444 4.16353C20.1081 4.16353 20.0784 4.14832 20.0784 4.12955C20.0784 4.11092 20.029 4.06585 19.9685 4.0296C19.908 3.9932 19.8714 3.98253 19.8872 4.00585C19.9382 4.08163 19.8422 4.05064 19.7602 3.9649C19.686 3.88756 19.6857 3.88343 19.7558 3.90689C19.8036 3.92282 19.8213 3.91727 19.8039 3.89154C19.7889 3.86922 19.7524 3.85941 19.7228 3.86993C19.6931 3.88031 19.6291 3.84689 19.5805 3.79571C19.5318 3.74438 19.4703 3.70244 19.4434 3.70244C19.4157 3.70244 19.4288 3.73955 19.4743 3.78888L19.5539 3.87533L19.4493 3.79329C19.2934 3.67087 17.9088 3.65978 17.814 3.78021C17.7811 3.82201 17.7088 3.85614 17.6531 3.85614C17.5976 3.85614 17.5152 3.89509 17.4703 3.94258C17.4253 3.99021 17.3665 4.02917 17.3395 4.02917C17.3127 4.02917 17.2906 4.04993 17.2906 4.07552C17.2906 4.11732 17.1537 4.23619 17.102 4.23917C17.0905 4.23988 17.0854 3.79841 17.0907 3.25812C17.1002 2.29826 17.08 2.1275 16.9654 2.1912C16.9477 2.20086 16.9219 2.15679 16.9081 2.09309C16.8863 1.99314 16.7248 1.79892 16.7248 1.87257C16.7248 1.88721 16.6873 1.88067 16.6413 1.85821C16.5954 1.8356 16.5624 1.79693 16.568 1.77205C16.5839 1.70067 15.8642 1.69371 15.8 1.76465ZM15.6452 3.78519C15.6249 3.85642 15.6216 3.85614 15.561 3.77666C15.5084 3.70798 15.5073 3.68879 15.5548 3.66192C15.6261 3.6214 15.6736 3.68595 15.6452 3.78519ZM16.8117 4.60372C16.8324 4.59192 16.8383 4.60913 16.8245 4.64197C16.8109 4.67467 16.7839 4.70154 16.7647 4.70154C16.7083 4.70154 16.6753 4.62861 16.709 4.57856C16.7332 4.54273 16.7439 4.54273 16.7569 4.57884C16.7662 4.60429 16.7909 4.61553 16.8117 4.60372ZM21.8785 5.14643C21.8126 5.21923 21.7868 5.32686 21.8428 5.29515C21.8639 5.28321 21.8811 5.24994 21.8811 5.22122C21.8811 5.19264 21.9047 5.16136 21.9336 5.15197C21.9624 5.14259 21.9745 5.1234 21.9604 5.10946C21.9464 5.09539 21.9095 5.11216 21.8785 5.14643ZM21.76 5.46634C21.7327 5.50017 21.7234 5.50344 21.7394 5.47373C21.7585 5.43833 21.7515 5.42937 21.7192 5.44757C21.6922 5.46292 21.6803 5.49037 21.6925 5.50856C21.7048 5.52676 21.6956 5.5525 21.6722 5.56586C21.6488 5.57909 21.6296 5.60724 21.6296 5.62842C21.6296 5.64946 21.6503 5.65501 21.6758 5.64065C21.7087 5.62203 21.7094 5.63567 21.6784 5.68899C21.6227 5.7844 21.6195 7.38123 21.6748 7.41265C21.6969 7.42502 21.7021 7.45403 21.6866 7.47692C21.6705 7.50095 21.6779 7.50763 21.704 7.49284C21.7636 7.45914 21.7927 7.50649 21.8053 7.65734C21.8109 7.72488 21.8444 7.80081 21.8797 7.82597C21.9368 7.86678 21.9373 7.86322 21.8835 7.79498C21.8272 7.7236 21.8279 7.72232 21.8942 7.77749C21.9336 7.81005 21.9717 7.90517 21.9793 7.98877C21.988 8.08602 22.0136 8.14076 22.0504 8.14076C22.082 8.14076 22.1182 8.17545 22.1307 8.21768C22.1433 8.25991 22.1772 8.29631 22.2059 8.29844C22.3367 8.30796 22.3507 8.31834 22.3302 8.39057C22.3181 8.4328 22.3257 8.4773 22.3469 8.48924C22.3682 8.50133 22.3744 8.52778 22.3607 8.54797C22.3473 8.56816 22.3541 8.57996 22.3759 8.57413C22.398 8.5683 22.4608 8.60725 22.5154 8.66086C22.6212 8.76437 22.6418 8.77489 22.7405 8.77489C22.775 8.77489 22.8034 8.80133 22.8034 8.83375C22.8034 8.86602 22.8365 8.90385 22.8768 8.9175C22.9171 8.93129 22.9826 8.97593 23.0221 9.01688C23.0738 9.07005 23.1244 9.08427 23.2004 9.06679C23.2877 9.04674 23.3065 9.05612 23.3065 9.11996C23.3065 9.16261 23.3254 9.19972 23.3483 9.20243C23.3714 9.20498 23.4139 9.20996 23.4426 9.21323C23.4715 9.21664 23.509 9.20143 23.5259 9.17968C23.5469 9.15266 23.557 9.15309 23.5574 9.1811C23.5577 9.20385 23.6562 9.22631 23.7778 9.23143C23.9131 9.23712 24.0102 9.26115 24.0302 9.29399C24.0504 9.32698 24.1109 9.34191 24.1878 9.33295C24.2576 9.32484 24.3127 9.33636 24.3127 9.35911C24.3127 9.39537 24.4015 9.3901 24.6783 9.33764C24.7063 9.33224 24.744 9.31304 24.762 9.29499C24.78 9.27693 24.7682 9.27622 24.7358 9.29342C24.6963 9.31446 24.6868 9.3102 24.7068 9.28034C24.7232 9.25603 24.7923 9.23598 24.8601 9.23598C24.9278 9.23598 24.9834 9.21693 24.9834 9.19347C24.9834 9.17001 25.0107 9.16048 25.0442 9.17228C25.0847 9.1865 25.0971 9.17513 25.0815 9.13802C25.0687 9.10731 25.0791 9.08228 25.1047 9.08228C25.1301 9.08228 25.151 9.04119 25.151 8.99086C25.151 8.94067 25.1807 8.87697 25.2168 8.84953C25.2529 8.82195 25.2736 8.76792 25.2627 8.72953C25.2517 8.691 25.2646 8.65929 25.2913 8.65901C25.321 8.65858 25.3175 8.6455 25.282 8.62489C25.2502 8.6064 25.237 8.57228 25.2526 8.5491C25.2706 8.52252 25.257 8.51527 25.216 8.52963C25.151 8.55252 25.134 8.51484 25.1489 8.38104C25.1538 8.3364 25.1272 8.31379 25.0698 8.31379C25.0069 8.31379 24.982 8.28749 24.9781 8.21768C24.9753 8.16479 24.9705 8.09995 24.9677 8.07351C24.964 8.03995 24.8489 8.02218 24.585 8.01436C24.1755 8.00242 24.0964 7.98891 24.113 7.93431C24.1191 7.91483 24.1081 7.89863 24.0885 7.89863C24.0691 7.89863 24.0018 7.85341 23.939 7.79824C23.8762 7.74294 23.8089 7.71109 23.7895 7.72715C23.7701 7.74336 23.7656 7.72758 23.7794 7.69218C23.8042 7.62848 23.7184 7.52625 23.6742 7.56678C23.6618 7.57815 23.631 7.5335 23.6058 7.46739C23.5807 7.40142 23.5439 7.35649 23.5241 7.36772C23.5044 7.37895 23.487 7.36729 23.4855 7.3417C23.4841 7.31625 23.4704 7.09658 23.4551 6.85345C23.4243 6.36378 23.4245 6.39037 23.4512 6.19245C23.4701 6.05113 23.4696 6.0507 23.3884 6.1252C23.3054 6.20127 23.2775 6.25971 23.3414 6.22345C23.3606 6.2125 23.3764 6.22715 23.3764 6.25587C23.3764 6.28473 23.3511 6.29937 23.3204 6.28857C23.2897 6.27776 23.2646 6.25132 23.2646 6.22985C23.2646 6.20625 23.2412 6.20866 23.2053 6.23582C23.1329 6.29099 22.9292 6.07061 22.9292 5.93724C22.9292 5.89174 22.9106 5.85435 22.888 5.85435C22.8653 5.85435 22.798 5.76634 22.7384 5.65856C22.6336 5.46889 22.6277 5.46492 22.5492 5.53003C22.4735 5.59274 22.4628 5.59302 22.3913 5.53373C22.2908 5.45027 22.2584 5.45354 22.2584 5.54695C22.2584 5.59657 22.2305 5.62387 22.1797 5.62387C22.0848 5.62387 21.9897 5.52833 22.0178 5.46108C22.048 5.38814 21.8196 5.39283 21.76 5.46634ZM23.5224 5.60866C23.4912 5.64093 23.474 5.67492 23.4842 5.6843C23.4943 5.69354 23.5368 5.66653 23.5787 5.62402C23.6206 5.58165 23.6378 5.54766 23.6168 5.54838C23.5961 5.54923 23.5536 5.57638 23.5224 5.60866ZM22.5143 6.01942C22.4605 6.06876 22.4059 6.03065 22.4457 5.97165C22.4613 5.94876 22.4931 5.94094 22.5165 5.95416C22.5452 5.97037 22.5444 5.99184 22.5143 6.01942ZM29.8588 6.50767C29.8588 6.62397 29.8667 6.67146 29.8763 6.61331C29.886 6.55516 29.886 6.46004 29.8763 6.40203C29.8667 6.34388 29.8588 6.39137 29.8588 6.50767ZM19.4833 6.46928C19.4748 6.57165 19.3659 6.64288 19.3659 6.54606C19.3659 6.52502 19.3846 6.50767 19.4077 6.50767C19.4309 6.50767 19.4496 6.47312 19.4496 6.43075C19.4496 6.38852 19.4594 6.35397 19.4713 6.35397C19.4831 6.35397 19.4886 6.40587 19.4833 6.46928ZM23.1617 6.38952C23.1486 6.409 23.1684 6.43061 23.2058 6.43757C23.2658 6.44852 23.2646 6.45762 23.1952 6.51492C23.1203 6.57705 23.1164 6.57478 23.1116 6.46701C23.1088 6.40473 23.1244 6.35397 23.1462 6.35397C23.1679 6.35397 23.1749 6.3699 23.1617 6.38952ZM27.6342 6.50767C27.6342 6.5816 27.6427 6.61189 27.6533 6.57492C27.6638 6.53795 27.6638 6.47739 27.6533 6.44042C27.6427 6.40345 27.6342 6.43373 27.6342 6.50767ZM20.33 7.23137C20.33 7.28142 20.2802 7.31469 20.2396 7.29166C20.1963 7.2672 20.2337 7.19938 20.2906 7.19938C20.3122 7.19938 20.33 7.21374 20.33 7.23137ZM19.2086 7.39275C19.1462 7.41564 19.1163 7.45715 19.12 7.51516L19.1258 7.60289L19.1439 7.51644C19.1538 7.46881 19.188 7.42986 19.2196 7.42986C19.2511 7.42986 19.2886 7.41265 19.3029 7.39147C19.333 7.34696 19.3328 7.34696 19.2086 7.39275ZM26.3879 8.39086C26.4298 8.43323 26.4727 8.45996 26.4833 8.45029C26.5059 8.42953 26.3865 8.31379 26.3423 8.31379C26.3255 8.31379 26.3462 8.34849 26.3879 8.39086ZM26.5621 8.48441C26.5329 8.55422 26.5822 8.58849 26.6538 8.54797C26.6947 8.52479 26.693 8.5083 26.6462 8.47275C26.599 8.43678 26.581 8.43934 26.5621 8.48441ZM26.6907 8.60598C26.6542 8.63953 26.7791 8.77545 26.8449 8.77361C26.8701 8.77304 26.8608 8.75143 26.8242 8.72555C26.7876 8.69982 26.7495 8.65616 26.7395 8.6283C26.7296 8.60057 26.7076 8.59062 26.6907 8.60598ZM27.219 8.95958C27.1864 8.97821 27.19 9.0011 27.2308 9.03579C27.2784 9.07617 27.2892 9.07617 27.2897 9.03579C27.2902 9.00067 27.3023 9.00309 27.331 9.04389C27.3533 9.0756 27.3719 9.082 27.3722 9.05811C27.3732 8.99399 27.2722 8.92901 27.219 8.95958ZM27.5214 9.11811C27.4963 9.15536 27.566 9.20939 27.6553 9.2219C27.6936 9.22716 27.6959 9.20982 27.6643 9.15565C27.6181 9.07631 27.5599 9.0611 27.5214 9.11811ZM28.2638 9.29442C28.3359 9.36664 28.3383 9.36664 28.4104 9.29442C28.4803 9.22446 28.4803 9.22347 28.4104 9.27167C28.3497 9.31347 28.3245 9.31347 28.2638 9.27167C28.1938 9.22347 28.1938 9.22446 28.2638 9.29442ZM16.1104 9.36096C16.0997 9.37674 16.1382 9.38968 16.1957 9.38968C16.2534 9.38968 16.311 9.37432 16.3237 9.35541C16.3364 9.3365 16.2981 9.32356 16.2384 9.32655C16.1788 9.32954 16.1211 9.34503 16.1104 9.36096ZM6.74728 9.50499L6.64258 9.5357L6.75782 9.53954C6.82127 9.54167 6.87307 9.52617 6.87307 9.50499C6.87307 9.4838 6.86842 9.4683 6.86268 9.47044C6.85679 9.47257 6.80498 9.48807 6.74728 9.50499Z" fill="#55F49C"/>
<path fill-rule="evenodd" clip-rule="evenodd" d="M27.6791 3.76208C27.6654 3.79478 27.6661 3.83218 27.6805 3.8454C27.6949 3.85862 27.7066 3.84185 27.7066 3.80815C27.7066 3.77445 27.7396 3.73905 27.7799 3.72938C27.8488 3.71289 27.8486 3.71147 27.7787 3.70734C27.7376 3.70478 27.6927 3.72952 27.6791 3.76208ZM29.6769 3.7372C29.6769 3.75924 29.7086 3.76621 29.747 3.75256C29.7992 3.73422 29.8106 3.7436 29.7917 3.7891C29.7771 3.82379 29.7911 3.85891 29.8241 3.87057C29.8685 3.88621 29.8742 3.87099 29.8483 3.80659C29.8134 3.72014 29.6769 3.66483 29.6769 3.7372ZM32.6954 3.77047C32.6954 3.80758 32.6596 3.85862 32.6157 3.88365C32.5615 3.91464 32.5361 3.97322 32.5361 4.06692C32.5361 4.14256 32.513 4.22986 32.4847 4.261C32.4447 4.30521 32.4446 4.32995 32.4841 4.37346C32.5119 4.40417 32.5347 4.50796 32.5347 4.60408C32.5347 4.75067 32.5476 4.77882 32.615 4.77882C32.6673 4.77882 32.6954 4.80555 32.6954 4.8556C32.6954 4.92583 32.7233 4.93252 33.0207 4.93252C33.3005 4.93252 33.3532 4.94318 33.3982 5.00929C33.4317 5.05835 33.4961 5.08621 33.5761 5.08621C33.6735 5.08621 33.7014 5.10328 33.7014 5.16299C33.7014 5.21432 33.7294 5.23991 33.7853 5.23991C33.8325 5.23991 33.8691 5.2655 33.8691 5.29849C33.8691 5.33077 33.9164 5.37356 33.9743 5.39375C34.0321 5.41394 34.0745 5.45162 34.0686 5.4775C34.0627 5.50337 34.0797 5.52541 34.1067 5.52641C34.1986 5.52968 34.2167 5.58413 34.2093 5.83366C34.2028 6.04707 34.2141 6.09015 34.287 6.13181C34.3599 6.17361 34.3721 6.22082 34.3721 6.45968C34.3721 6.65518 34.3878 6.73978 34.4246 6.74248C34.4534 6.74447 34.4317 6.75783 34.3762 6.77205C34.2625 6.8012 34.1694 6.91139 34.2197 6.95732C34.2378 6.97409 34.2722 6.95575 34.2961 6.91665C34.3369 6.84983 34.3436 6.85125 34.4083 6.94025C34.4461 6.99243 34.5088 7.03054 34.5474 7.02513C34.5885 7.01931 34.6098 7.0348 34.5983 7.0621C34.5766 7.11386 34.7782 7.21865 34.8705 7.20343C34.9063 7.1976 34.9195 7.21566 34.9048 7.25092C34.8806 7.30836 35.0014 7.43831 35.0692 7.42765C35.1632 7.41301 35.2944 7.48424 35.2944 7.55007C35.2944 7.58988 35.318 7.62301 35.3469 7.62358C35.5566 7.62855 35.7855 8.0895 35.6001 8.13358C35.5415 8.14751 35.5457 8.15249 35.6194 8.1559C35.6873 8.15917 35.7137 8.13898 35.7137 8.08353C35.7137 8.03263 35.7416 8.00661 35.7962 8.00661C35.8618 8.00661 35.8784 7.98102 35.877 7.88178C35.8761 7.8131 35.8849 7.71798 35.8969 7.67049C35.909 7.62201 35.8986 7.58405 35.8733 7.58405C35.8485 7.58405 35.8778 7.54808 35.9386 7.50429C36.0374 7.43305 36.049 7.39879 36.049 7.1777C36.049 6.9886 36.0672 6.91409 36.1266 6.85964C36.2491 6.74732 36.256 6.20276 36.1353 6.1739C36.0557 6.15485 36.049 6.12428 36.049 5.77338C36.049 5.4192 36.0435 5.39361 35.9653 5.39361C35.8953 5.39361 35.8806 5.36659 35.8766 5.23024C35.8688 4.96607 35.864 4.95143 35.7871 4.95711C35.736 4.96081 35.7137 4.93436 35.7137 4.87053C35.7137 4.80441 35.6903 4.77882 35.6299 4.77882C35.5697 4.77882 35.5445 4.75152 35.5407 4.6827C35.5316 4.51308 35.5223 4.49033 35.4671 4.50128C35.4374 4.50725 35.4027 4.47555 35.39 4.43104C35.3773 4.38654 35.3222 4.33465 35.2674 4.31559C35.2128 4.29654 35.173 4.26128 35.1789 4.23711C35.1848 4.21308 35.1534 4.18777 35.1089 4.18109C35.0645 4.17427 35.0126 4.14313 34.9935 4.11171C34.9743 4.08028 34.9057 4.04403 34.8412 4.03109C34.7767 4.01801 34.6971 3.97351 34.6645 3.93199C34.6236 3.87995 34.5561 3.85649 34.4472 3.85649C34.3344 3.85649 34.2741 3.83445 34.2367 3.77971C34.1607 3.6681 32.6954 3.65929 32.6954 3.77047ZM37.0908 3.73549C37.0872 3.74929 37.0799 3.77772 37.0746 3.79891C37.0692 3.82009 37.0627 3.87625 37.06 3.92374C37.0566 3.98317 37.0289 4.01019 36.9713 4.01019C36.8551 4.01019 36.8375 8.50709 36.9532 8.62425C37.003 8.67472 37.0065 8.69775 36.9676 8.71965C36.9329 8.73941 36.9273 8.73259 36.9504 8.69832C36.9729 8.66505 36.9679 8.65737 36.936 8.67543C36.7916 8.75718 36.8832 8.9396 37.0579 8.91813C37.2048 8.90008 37.2333 8.90861 37.2648 8.98027C37.285 9.02605 37.3026 9.04979 37.304 9.0333C37.3056 9.01666 37.3439 9.02136 37.3892 9.04354C37.4574 9.07695 37.4647 9.10112 37.4311 9.18202C37.3436 9.39316 37.8606 9.48202 38.043 9.28738C38.1046 9.22183 38.1533 9.20264 38.2108 9.22169C38.2553 9.23648 38.278 9.23449 38.2608 9.21714C38.218 9.17392 38.312 9.07752 38.3667 9.10866C38.3943 9.12415 38.4008 9.10951 38.3842 9.0697C38.3439 8.97358 38.392 8.89652 38.4792 8.91742C38.544 8.93306 38.5556 8.91387 38.5521 8.79728C38.5488 8.69519 38.5721 8.64301 38.6399 8.59951C38.7374 8.53681 38.7805 8.16045 38.6901 8.16045C38.6299 8.16045 38.6338 6.90499 38.6941 6.87073C38.7228 6.85466 38.7366 6.72656 38.7306 6.53234C38.7075 5.76669 38.7258 5.54731 38.813 5.54731C38.8651 5.54731 38.8987 5.51645 38.9073 5.46086C38.9147 5.41337 38.949 5.37441 38.9836 5.37441C39.0182 5.37441 39.0466 5.34854 39.0466 5.31683C39.0466 5.28513 39.0889 5.25356 39.1409 5.24688C39.1989 5.23934 39.2352 5.20792 39.2352 5.16527C39.2352 5.08465 39.5096 5.04626 39.864 5.07754C40.0337 5.09247 40.0735 5.10967 40.0735 5.16797C40.0735 5.21432 40.1035 5.23991 40.1575 5.23991C40.2301 5.23991 40.2412 5.26551 40.2412 5.43171C40.2412 5.58186 40.2595 5.6339 40.3251 5.67157C40.4067 5.71835 40.4089 5.76115 40.4089 7.32428C40.4089 8.90335 40.4103 8.92894 40.4928 8.92894C40.5487 8.92894 40.5766 8.95453 40.5766 9.00586C40.5766 9.05705 40.6046 9.08264 40.6605 9.08264C40.7078 9.08264 40.7444 9.10823 40.7444 9.1415C40.7444 9.17392 40.7773 9.2116 40.8176 9.22539C40.8581 9.23918 40.915 9.28112 40.9443 9.31837C41.0163 9.4098 41.5618 9.40524 41.5618 9.31325C41.5618 9.27302 41.6149 9.25198 41.7374 9.24387C41.8814 9.2342 41.9153 9.217 41.926 9.14775C41.9332 9.1014 41.9675 9.06344 42.002 9.06344C42.0647 9.06344 42.0706 9.04908 42.0805 8.87576C42.0838 8.81903 42.1178 8.77652 42.1697 8.76415C42.2521 8.74439 42.2535 8.71169 42.2535 6.93073C42.2535 5.14977 42.2521 5.11707 42.1697 5.0973C42.1002 5.08067 42.0858 5.04498 42.0858 4.88986C42.0858 4.74427 42.0672 4.69195 42.002 4.65455C41.9558 4.62825 41.9181 4.5674 41.9181 4.51934C41.9181 4.47142 41.8804 4.40261 41.8344 4.36635C41.7881 4.33024 41.7505 4.26981 41.7505 4.23228C41.7505 4.18962 41.719 4.16389 41.6665 4.16389C41.6107 4.16389 41.5828 4.13829 41.5828 4.08711C41.5828 4.03166 41.5549 4.01019 41.4824 4.01019C41.4272 4.01019 41.3715 3.98502 41.3586 3.95417C41.3458 3.92332 41.273 3.88336 41.197 3.86531C41.121 3.84725 41.0588 3.80758 41.0588 3.7773C41.0588 3.73123 40.9057 3.72014 40.1469 3.71061C39.2519 3.69938 39.2352 3.70066 39.2352 3.77787C39.2352 3.83957 39.2082 3.85649 39.1097 3.85649C39.0296 3.85649 38.9654 3.88436 38.9319 3.93341C38.9032 3.97564 38.8465 4.01019 38.8058 4.01019C38.7601 4.01019 38.7321 4.03934 38.7321 4.08711C38.7321 4.13829 38.7041 4.16389 38.6482 4.16389C38.5924 4.16389 38.5643 4.18962 38.5643 4.24081C38.5643 4.29199 38.5364 4.31773 38.4806 4.31773C38.4067 4.31773 38.3966 4.29199 38.3966 4.10275C38.3966 3.9236 38.3835 3.88464 38.3168 3.86858C38.2727 3.85806 38.2271 3.81583 38.2155 3.77459C38.1941 3.69995 37.1095 3.66213 37.0908 3.73549ZM44.4457 3.77971C44.4289 3.83801 44.3884 3.85649 44.278 3.85649C44.1674 3.85649 44.1269 3.87512 44.1102 3.93341C44.0981 3.97592 44.0531 4.01019 44.0093 4.01019C43.9583 4.01019 43.9304 4.03749 43.9304 4.08711C43.9304 4.13829 43.9025 4.16389 43.8466 4.16389C43.7906 4.16389 43.7627 4.18962 43.7627 4.24081C43.7627 4.29199 43.7348 4.31773 43.6788 4.31773C43.623 4.31773 43.595 4.34332 43.595 4.3945C43.595 4.44569 43.5671 4.47142 43.5111 4.47142C43.4553 4.47142 43.4274 4.49702 43.4274 4.5482C43.4274 4.59953 43.3994 4.62512 43.3434 4.62512C43.2741 4.62512 43.2597 4.65071 43.2597 4.77427C43.2597 4.89128 43.2415 4.92782 43.1758 4.94361C43.1122 4.95882 43.092 4.99607 43.092 5.0973C43.092 5.19868 43.0717 5.23579 43.0081 5.251C42.9318 5.26934 42.9243 5.30347 42.9243 5.63062C42.9243 5.94385 42.9139 5.99589 42.8435 6.03627C42.7325 6.09968 42.7399 6.64267 42.8528 6.71831C42.9119 6.75798 42.9243 6.83276 42.9243 7.14997C42.9243 7.48481 42.9349 7.54253 43.0081 7.60324C43.0542 7.64149 43.092 7.70633 43.092 7.74727C43.092 7.78936 43.1283 7.83045 43.1758 7.84182C43.2415 7.8576 43.2597 7.89429 43.2597 8.01116C43.2597 8.13472 43.2741 8.16045 43.3434 8.16045C43.4118 8.16045 43.4274 8.18604 43.4274 8.29851C43.4274 8.40429 43.4469 8.44126 43.5111 8.45661C43.5573 8.4677 43.595 8.50225 43.595 8.53353C43.595 8.56481 43.6327 8.59936 43.6788 8.61045C43.7253 8.62154 43.7627 8.66278 43.7627 8.70287C43.7627 8.75349 43.7926 8.77524 43.8629 8.77524C43.9325 8.77524 43.9612 8.79572 43.9572 8.84249C43.9515 8.90761 43.9709 8.91515 44.1714 8.92453C44.2363 8.92752 44.2657 8.95297 44.2657 9.00586C44.2657 9.10425 43.9136 9.12145 43.8733 9.02505C43.86 8.99335 43.8103 8.96733 43.7627 8.96733C43.7151 8.96733 43.6653 8.99335 43.6521 9.02505C43.6388 9.05676 43.5828 9.08264 43.5277 9.08264C43.4553 9.08264 43.4274 9.10411 43.4274 9.15956C43.4274 9.21074 43.3994 9.23633 43.3434 9.23633C43.2876 9.23633 43.2597 9.26193 43.2597 9.31325C43.2597 9.36444 43.2318 9.39003 43.1758 9.39003C43.1153 9.39003 43.092 9.41562 43.092 9.48188C43.092 9.54544 43.0695 9.57202 43.0193 9.56833C42.8998 9.55951 42.8868 9.96473 43.0056 9.99316C43.0655 10.0075 43.092 10.0452 43.092 10.1161C43.092 10.1744 43.1281 10.2424 43.1758 10.2738C43.2218 10.3044 43.2597 10.36 43.2597 10.3977C43.2597 10.4405 43.291 10.4661 43.3434 10.4661C43.3994 10.4661 43.4274 10.4917 43.4274 10.5428C43.4274 10.5942 43.4553 10.6198 43.5111 10.6198C43.5671 10.6198 43.595 10.6453 43.595 10.6965C43.595 10.7463 43.623 10.7735 43.674 10.7735C43.7177 10.7735 43.7627 10.8077 43.7748 10.8502C43.7917 10.9092 43.832 10.9271 43.9474 10.9271C44.0701 10.9271 44.0981 10.9414 44.0981 11.0041C44.0981 11.0722 44.126 11.0808 44.3447 11.0808C44.5561 11.0808 44.5946 11.0918 44.6133 11.1578C44.6318 11.2225 44.6704 11.2345 44.8597 11.2345C45.036 11.2345 45.0948 11.2505 45.1347 11.3088C45.2118 11.4221 46.3448 11.4227 46.5017 11.3095C46.5589 11.2682 46.6639 11.2345 46.7349 11.2345C46.8189 11.2345 46.8826 11.2075 46.9166 11.1578C46.9583 11.0963 47.0143 11.0808 47.1933 11.0808C47.3825 11.0808 47.4212 11.0688 47.4396 11.0041C47.4568 10.9438 47.4968 10.9271 47.6243 10.9271C47.7593 10.9271 47.7872 10.9139 47.7872 10.8502C47.7872 10.799 47.8151 10.7735 47.871 10.7735C47.927 10.7735 47.9549 10.7479 47.9549 10.6965C47.9549 10.6519 47.9828 10.6198 48.0217 10.6198C48.0585 10.6198 48.0984 10.5852 48.1105 10.5428C48.1226 10.5006 48.1666 10.4661 48.2083 10.4661C48.2553 10.4661 48.2896 10.4329 48.2978 10.3796C48.3051 10.332 48.3396 10.2932 48.3742 10.2932C48.4421 10.2932 48.4449 10.2835 48.4526 10.0242C48.4571 9.87842 48.4711 9.85113 48.5418 9.85113C48.6673 9.85113 48.6748 4.00166 48.5494 3.89943C48.5074 3.86531 48.4609 3.80701 48.4458 3.77005C48.4219 3.71076 48.3543 3.70279 47.871 3.70279C47.3875 3.70279 47.3203 3.71076 47.2971 3.77005C47.2826 3.80701 47.236 3.86829 47.1936 3.90611C47.1415 3.95261 47.1165 4.03038 47.1165 4.14626C47.1165 4.29199 47.1039 4.31773 47.0326 4.31773C46.9718 4.31773 46.9488 4.29199 46.9488 4.22431C46.9488 4.10829 46.8465 4.01019 46.7253 4.01019C46.6748 4.01019 46.6099 3.97564 46.5812 3.93341C46.5477 3.88436 46.4835 3.85649 46.4035 3.85649C46.3059 3.85649 46.278 3.83943 46.278 3.77971C46.278 3.70521 46.2501 3.70279 45.3728 3.70279C44.5027 3.70279 44.4666 3.70578 44.4457 3.77971ZM50.9854 3.77971C50.9718 3.82734 50.9256 3.85834 50.8635 3.86132C50.6744 3.87042 50.6588 3.87597 50.6588 3.93341C50.6588 3.97251 50.607 3.99498 50.497 4.00322C50.379 4.01204 50.3293 4.0355 50.314 4.08967C50.3023 4.13047 50.2572 4.16389 50.2138 4.16389C50.1627 4.16389 50.1348 4.19118 50.1348 4.24081C50.1348 4.29199 50.1069 4.31773 50.0511 4.31773C49.9951 4.31773 49.9671 4.34332 49.9671 4.3945C49.9671 4.44484 49.9392 4.47142 49.8862 4.47142C49.8342 4.47142 49.8006 4.50228 49.7919 4.55787C49.7846 4.60536 49.7501 4.64432 49.7156 4.64432C49.6526 4.64432 49.6467 4.65853 49.6371 4.8364C49.6332 4.90522 49.6081 4.93252 49.5479 4.93252C49.492 4.93252 49.4641 4.95811 49.4641 5.00929C49.4641 5.05166 49.4263 5.12076 49.3802 5.16299C49.3251 5.21347 49.2964 5.2911 49.2964 5.3892C49.2964 5.50607 49.2783 5.54276 49.2125 5.5584C49.1317 5.57788 49.1288 5.61086 49.1288 6.48527C49.1288 7.36623 49.1311 7.39182 49.2125 7.39182C49.2825 7.39182 49.2972 7.41898 49.3013 7.55519C49.309 7.81936 49.3138 7.834 49.3908 7.82846C49.4379 7.82505 49.4641 7.85035 49.4641 7.89926C49.4641 7.9432 49.4996 7.984 49.5479 7.99552C49.6136 8.0113 49.6318 8.04799 49.6318 8.16486C49.6318 8.28841 49.6462 8.31415 49.7156 8.31415C49.7715 8.31415 49.7995 8.33974 49.7995 8.39093C49.7995 8.44225 49.8274 8.46785 49.8832 8.46785C49.9321 8.46785 49.9671 8.49344 49.9671 8.52898C49.9671 8.56268 50.0031 8.59894 50.0472 8.60946C50.0911 8.61998 50.1365 8.66164 50.148 8.70188C50.1595 8.74226 50.199 8.77524 50.2356 8.77524C50.2738 8.77524 50.3025 8.80709 50.3025 8.84946C50.3025 8.89709 50.3362 8.92794 50.3968 8.93591C50.4488 8.94259 50.4911 8.97415 50.4911 9.00586C50.4911 9.0633 50.5068 9.0687 50.6959 9.0778C50.7577 9.08079 50.8041 9.11193 50.8178 9.15956C50.8375 9.2288 50.8749 9.23633 51.1986 9.23633C51.517 9.23633 51.5546 9.24359 51.5307 9.3006C51.5102 9.34937 51.5207 9.35904 51.5738 9.34027C51.6124 9.32676 51.644 9.33032 51.644 9.34809C51.644 9.366 51.8609 9.38122 52.1261 9.38179C52.3912 9.3825 52.6082 9.36785 52.6082 9.34923C52.6082 9.33074 52.6363 9.32548 52.6707 9.33757C52.7064 9.35022 52.7444 9.33316 52.7591 9.29804C52.7798 9.24856 52.8511 9.23633 53.1196 9.23633C53.4193 9.23633 53.4568 9.22823 53.4764 9.15956C53.4919 9.1051 53.5336 9.08264 53.6189 9.08264C53.694 9.08264 53.7591 9.05363 53.7917 9.00586C53.8206 8.96349 53.8773 8.92894 53.9178 8.92894C53.9637 8.92894 53.9917 8.89979 53.9917 8.85202C53.9917 8.80084 54.0196 8.77524 54.0754 8.77524C54.1314 8.77524 54.1593 8.74965 54.1593 8.69832C54.1593 8.64714 54.1872 8.62154 54.2432 8.62154C54.2991 8.62154 54.327 8.59595 54.327 8.54462C54.327 8.49344 54.3549 8.46785 54.4109 8.46785C54.4713 8.46785 54.4947 8.44225 54.4947 8.376C54.4947 8.31216 54.517 8.28585 54.568 8.28955C54.6392 8.29467 54.6473 8.27704 54.6575 8.0932C54.6608 8.03377 54.6887 8.00661 54.7463 8.00661C54.8161 8.00661 54.83 7.98102 54.83 7.85291C54.83 7.72495 54.844 7.69922 54.9139 7.69922C54.996 7.69922 54.9977 7.67362 54.9977 6.48527C54.9977 5.30347 54.9955 5.27062 54.9139 5.251C54.8545 5.23678 54.83 5.19868 54.83 5.12048C54.83 5.05166 54.7985 4.99195 54.7463 4.96195C54.7 4.93564 54.6624 4.88361 54.6624 4.84635C54.6624 4.80441 54.6306 4.77882 54.5786 4.77882C54.5134 4.77882 54.4947 4.75323 54.4947 4.66379C54.4947 4.59043 54.4643 4.53157 54.4109 4.50086C54.3647 4.47455 54.327 4.42251 54.327 4.38526C54.327 4.34332 54.2952 4.31773 54.2432 4.31773C54.1958 4.31773 54.1593 4.29199 54.1593 4.25886C54.1593 4.22645 54.1263 4.18863 54.086 4.17483C54.0456 4.16104 53.9879 4.11839 53.9578 4.08C53.9277 4.04161 53.8521 4.01019 53.7897 4.01019C53.7218 4.01019 53.6555 3.97948 53.624 3.93341C53.5907 3.88436 53.5263 3.85649 53.4463 3.85649C53.3768 3.85649 53.2836 3.82223 53.237 3.77971C53.1576 3.70677 53.0973 3.70279 52.0802 3.70279C51.0425 3.70279 51.0065 3.70535 50.9854 3.77971ZM30.6551 4.22161C30.6551 4.25332 30.6648 4.27024 30.6768 4.25929C30.6887 4.24834 30.7608 4.29484 30.8368 4.36237C30.913 4.43005 30.9881 4.47356 31.0039 4.4592C31.0196 4.44469 31.0093 4.43289 30.9811 4.43289C30.9527 4.43289 30.9431 4.41299 30.9595 4.38853C30.9781 4.36109 30.971 4.35469 30.9411 4.37161C30.9144 4.38668 30.8927 4.38398 30.8927 4.36564C30.8927 4.32256 30.7321 4.16389 30.6884 4.16389C30.6701 4.16389 30.6551 4.1899 30.6551 4.22161ZM26.3714 4.53299C26.3402 4.56526 26.3231 4.59939 26.3332 4.60863C26.3433 4.61787 26.3859 4.59086 26.4278 4.54849C26.4697 4.50612 26.4868 4.47199 26.466 4.47285C26.445 4.4737 26.4025 4.50071 26.3714 4.53299ZM31.0683 4.51223C31.0784 4.53995 31.1114 4.57024 31.1416 4.57948C31.173 4.58901 31.1888 4.57465 31.1782 4.54578C31.1682 4.51806 31.1351 4.48777 31.1049 4.47853C31.0735 4.46901 31.0577 4.48337 31.0683 4.51223ZM31.3119 4.96038C31.3119 5.0238 31.4166 5.23991 31.4474 5.23991C31.5331 5.23991 31.5173 5.12432 31.4194 5.0346C31.3603 4.98029 31.3119 4.94688 31.3119 4.96038ZM45.9749 5.00929C46.0082 5.05835 46.0726 5.08621 46.1527 5.08621C46.2453 5.08621 46.278 5.10427 46.278 5.15517C46.278 5.19967 46.3261 5.23707 46.4143 5.26081C46.5167 5.2884 46.5604 5.32849 46.5907 5.42247C46.6166 5.50323 46.6572 5.54731 46.7059 5.54731C46.7698 5.54731 46.781 5.58186 46.781 5.77793C46.781 5.95722 46.7998 6.0256 46.8649 6.08532C46.9375 6.15186 46.9488 6.21342 46.9488 6.542C46.9488 6.88949 46.9417 6.92348 46.8649 6.94182C46.7937 6.95888 46.781 6.99428 46.781 7.17684C46.781 7.36623 46.7711 7.39182 46.6973 7.39182C46.6414 7.39182 46.6133 7.41741 46.6133 7.46874C46.6133 7.51993 46.5854 7.54552 46.5296 7.54552C46.4736 7.54552 46.4457 7.57111 46.4457 7.62244C46.4457 7.67362 46.4177 7.69922 46.3619 7.69922C46.3157 7.69922 46.2403 7.73391 46.1942 7.77614C46.1246 7.83998 46.0545 7.85291 45.7798 7.85291C45.4846 7.85291 45.4471 7.84481 45.4274 7.77614C45.4106 7.71727 45.3703 7.69922 45.2549 7.69922C45.1322 7.69922 45.1043 7.685 45.1043 7.62244C45.1043 7.57111 45.0762 7.54552 45.0203 7.54552C44.9716 7.54552 44.9366 7.51993 44.9366 7.48452C44.9366 7.45083 44.8997 7.39466 44.8547 7.35955C44.7875 7.30722 44.7705 7.23698 44.7602 6.96912C44.7505 6.70949 44.7349 6.64253 44.685 6.64253C44.5791 6.64253 44.577 6.36328 44.6822 6.27968C44.7573 6.21996 44.7688 6.16651 44.7688 5.87902C44.7688 5.5729 44.7753 5.54731 44.8527 5.54731C44.9085 5.54731 44.9366 5.52171 44.9366 5.47053C44.9366 5.4192 44.9645 5.39361 45.0203 5.39361C45.0751 5.39361 45.1043 5.36802 45.1043 5.31982C45.1043 5.26877 45.1437 5.23806 45.2328 5.22015C45.3036 5.20593 45.3715 5.16996 45.3841 5.14024C45.3965 5.11053 45.4517 5.08621 45.5069 5.08621C45.5794 5.08621 45.6073 5.06474 45.6073 5.00929C45.6073 4.94617 45.6352 4.93252 45.7649 4.93252C45.877 4.93252 45.9375 4.9547 45.9749 5.00929ZM52.368 5.00929C52.4073 5.05166 52.4871 5.08621 52.5449 5.08621C52.6209 5.08621 52.6501 5.10683 52.6501 5.16043C52.6501 5.20806 52.6839 5.23892 52.7444 5.24688C52.7964 5.25356 52.8387 5.28513 52.8387 5.31683C52.8387 5.34854 52.8671 5.37441 52.9017 5.37441C52.9363 5.37441 52.9706 5.41337 52.978 5.46086C52.9865 5.51645 53.0202 5.54731 53.0723 5.54731C53.1404 5.54731 53.1537 5.57631 53.1567 5.72987C53.1624 6.02632 53.1781 6.09271 53.2513 6.13039C53.3527 6.18229 53.3528 6.76637 53.2515 6.83433C53.1793 6.88253 53.1626 6.95248 53.1567 7.2286C53.1537 7.36509 53.1395 7.39182 53.0694 7.39182C52.9996 7.39182 52.9854 7.41741 52.9854 7.54552C52.9854 7.67362 52.9715 7.69922 52.9017 7.69922C52.8556 7.69922 52.7801 7.73391 52.734 7.77614C52.6879 7.81836 52.6124 7.85291 52.5663 7.85291C52.5103 7.85291 52.4824 7.87865 52.4824 7.92983C52.4824 8.00021 52.4545 8.00661 52.1471 8.00661C51.8396 8.00661 51.8117 8.00021 51.8117 7.92983C51.8117 7.86571 51.7838 7.85291 51.644 7.85291C51.5043 7.85291 51.4764 7.84012 51.4764 7.77614C51.4764 7.72495 51.4485 7.69922 51.3925 7.69922C51.3366 7.69922 51.3087 7.67362 51.3087 7.62244C51.3087 7.57111 51.2806 7.54552 51.2248 7.54552C51.155 7.54552 51.141 7.51993 51.141 7.39182C51.141 7.26372 51.1269 7.23812 51.0571 7.23812C50.976 7.23812 50.9732 7.21253 50.9732 6.46963C50.9732 5.80508 50.9819 5.701 51.0374 5.701C51.0728 5.701 51.114 5.67072 51.1291 5.63375C51.1441 5.59679 51.1907 5.54389 51.2325 5.51631C51.2744 5.48873 51.3087 5.43299 51.3087 5.39261C51.3087 5.33972 51.3282 5.32607 51.3788 5.34385C51.432 5.36261 51.4424 5.35294 51.4221 5.30418C51.4011 5.25441 51.4193 5.23991 51.5026 5.23991C51.5747 5.23991 51.6172 5.21475 51.6318 5.16299C51.644 5.12048 51.689 5.08621 51.7328 5.08621C51.7838 5.08621 51.8117 5.05906 51.8117 5.00929C51.8117 4.94133 51.8396 4.93252 52.0539 4.93252C52.2443 4.93252 52.3115 4.94901 52.368 5.00929ZM28.2155 5.1664C28.1482 5.21645 28.1365 5.23991 28.179 5.23991C28.2417 5.23991 28.3616 5.13569 28.3309 5.10783C28.3219 5.09958 28.2699 5.12588 28.2155 5.1664ZM29.1739 5.11693C29.1739 5.16697 29.2698 5.23991 29.3355 5.23991C29.3839 5.23991 29.3808 5.22413 29.3206 5.16299C29.2426 5.08408 29.1739 5.06247 29.1739 5.11693ZM34.6853 7.35528C34.6454 7.41443 34.7 7.45253 34.7539 7.4032C34.784 7.37561 34.7847 7.35414 34.756 7.33793C34.7326 7.32457 34.7008 7.33253 34.6853 7.35528ZM31.5929 7.4531C31.5093 7.5559 31.5344 7.57765 31.6327 7.48751C31.6675 7.45566 31.6896 7.414 31.682 7.39509C31.6744 7.37604 31.6343 7.4022 31.5929 7.4531ZM35.9546 7.53599C35.9253 7.58988 35.9442 7.66083 35.9853 7.65116C36.0385 7.63879 36.0605 7.50713 36.0093 7.50713C35.9878 7.50713 35.9631 7.52007 35.9546 7.53599ZM28.3985 7.93012C28.4404 7.97249 28.4838 7.99879 28.4948 7.9887C28.5231 7.96282 28.4185 7.85291 28.3658 7.85291C28.3419 7.85291 28.3568 7.88761 28.3985 7.93012ZM32.5758 8.22202C32.5446 8.25429 32.5276 8.28827 32.5376 8.29766C32.5477 8.3069 32.5904 8.27988 32.6323 8.23751C32.6741 8.19514 32.6912 8.16102 32.6704 8.16187C32.6495 8.16273 32.607 8.18974 32.5758 8.22202ZM38.6482 8.39093C38.6482 8.45192 38.6315 8.51121 38.6112 8.52273C38.5908 8.53424 38.5755 8.47581 38.5772 8.39263C38.5806 8.22159 38.6482 8.22002 38.6482 8.39093ZM35.4481 8.37813C35.3999 8.42235 35.4177 8.46785 35.4832 8.46785C35.5178 8.46785 35.546 8.44183 35.546 8.41012C35.546 8.35012 35.4964 8.33391 35.4481 8.37813ZM46.8683 8.9541C46.7909 9.00373 46.781 9.04922 46.781 9.35378C46.781 9.67183 46.7748 9.69743 46.6973 9.69743C46.6414 9.69743 46.6133 9.72316 46.6133 9.77435C46.6133 9.83861 46.5843 9.85169 46.4353 9.85439C46.134 9.8598 46.0579 9.87515 46.0051 9.94127C45.9295 10.0361 45.3456 10.0354 45.3853 9.94056C45.4056 9.89193 45.3952 9.88226 45.342 9.90089C45.3034 9.91454 45.2719 9.90885 45.2719 9.88838C45.2719 9.8679 45.1964 9.85113 45.1043 9.85113C44.9645 9.85113 44.9366 9.83833 44.9366 9.77435C44.9366 9.72316 44.9085 9.69743 44.8527 9.69743C44.7968 9.69743 44.7688 9.67183 44.7688 9.62065C44.7688 9.57103 44.7408 9.54373 44.6898 9.54373C44.6462 9.54373 44.6011 9.50946 44.589 9.46695C44.5769 9.42458 44.537 9.39003 44.5003 9.39003C44.4613 9.39003 44.4334 9.3579 44.4334 9.31325C44.4334 9.26193 44.4055 9.23633 44.3496 9.23633C44.2936 9.23633 44.2657 9.21074 44.2657 9.15956C44.2657 9.09586 44.2936 9.08264 44.4286 9.08264C44.5561 9.08264 44.5961 9.09927 44.6133 9.15956C44.6343 9.23278 44.6704 9.23633 45.4055 9.23633C46.1275 9.23633 46.1795 9.2315 46.2361 9.15956C46.2715 9.11449 46.3447 9.08264 46.4126 9.08264C46.4835 9.08264 46.5493 9.05264 46.5812 9.00586C46.6099 8.96349 46.6667 8.92894 46.7073 8.92894C46.7522 8.92894 46.781 8.89993 46.781 8.85486C46.781 8.8142 46.814 8.77482 46.8544 8.76742C46.9628 8.74766 46.9732 8.88685 46.8683 8.9541ZM9.48923 8.89382C9.44611 8.95794 9.54321 9.03145 9.60107 8.97842C9.64946 8.93406 9.61922 8.85202 9.55438 8.85202C9.53406 8.85202 9.50475 8.87093 9.48923 8.89382ZM37.0742 9.06202C37.0766 9.17747 37.1199 9.21671 37.2473 9.21899C37.3683 9.22112 37.3703 9.21444 37.2753 9.12785C37.1094 8.97685 37.0721 8.96463 37.0742 9.06202ZM37.6198 9.23818C37.6541 9.18757 37.8099 9.18501 37.8099 9.2352C37.8099 9.25567 37.7833 9.26306 37.7512 9.25169C37.719 9.24046 37.6816 9.24728 37.6682 9.26705C37.6433 9.30415 37.8614 9.29335 37.9493 9.25311C37.9763 9.24074 37.9619 9.25795 37.917 9.29107C37.7857 9.38875 37.4744 9.34596 37.4744 9.23036C37.4744 9.20179 37.4931 9.20278 37.5336 9.23349C37.5739 9.26435 37.6014 9.26577 37.6198 9.23818ZM33.5756 9.35164C33.5248 9.38179 33.5308 9.38904 33.6071 9.38946C33.6589 9.38975 33.7014 9.37283 33.7014 9.35164C33.7014 9.30344 33.6569 9.30344 33.5756 9.35164ZM33.1675 9.37923C33.2313 9.38804 33.3256 9.38776 33.3771 9.37866C33.4287 9.36956 33.3766 9.36231 33.2612 9.36259C33.146 9.36287 33.1038 9.37041 33.1675 9.37923Z" fill="#04FCDB"/>
<path fill-rule="evenodd" clip-rule="evenodd" d="M23.8311 3.7468C23.8434 3.76486 23.8756 3.76742 23.9028 3.75249C23.9301 3.73756 23.9259 3.75505 23.8936 3.79159C23.7588 3.94372 23.9575 4.2396 24.1945 4.2396C24.3102 4.2396 24.4343 4.3478 24.4343 4.44847C24.4343 4.49396 24.4554 4.50903 24.4973 4.49354C24.5319 4.4806 24.586 4.46055 24.6177 4.44875C24.6493 4.43695 24.7045 4.45429 24.7404 4.48714C24.7764 4.52012 24.8272 4.547 24.8534 4.547C24.8814 4.547 24.8907 4.57757 24.8756 4.62065C24.8617 4.66117 24.8699 4.70539 24.8938 4.71904C24.9178 4.73254 24.9375 4.76098 24.9375 4.78216C24.9375 4.80321 24.9139 4.80761 24.8851 4.79169C24.8432 4.76866 24.8432 4.77477 24.8846 4.82183C24.9133 4.85425 24.9243 4.89207 24.9091 4.906C24.8939 4.91994 24.9023 4.93131 24.9276 4.93131C24.9529 4.93131 24.9795 4.89235 24.987 4.84487C24.9955 4.79013 25.0273 4.76027 25.0737 4.76368C25.114 4.76667 25.1471 4.74406 25.1471 4.71335C25.1471 4.67908 25.1269 4.66884 25.0946 4.68662C25.0546 4.70866 25.0551 4.70098 25.0962 4.65448C25.1258 4.62093 25.1471 4.5787 25.1435 4.56065C25.1272 4.47704 25.1513 4.3933 25.1914 4.3933C25.2159 4.3933 25.2242 4.41064 25.2099 4.43169C25.1804 4.47548 25.2434 4.48429 25.2887 4.44278C25.3051 4.42771 25.2769 4.38676 25.226 4.3515C25.1579 4.30444 25.1325 4.24486 25.1295 4.12543C25.1264 4.00443 25.1004 3.94472 25.0267 3.89012C24.9726 3.84988 24.942 3.8169 24.9589 3.8169C24.9758 3.8169 24.9687 3.79386 24.9433 3.76557C24.8902 3.70713 23.7919 3.68865 23.8311 3.7468ZM27.7776 3.72761C27.7373 3.73756 27.7042 3.7704 27.7042 3.80055C27.7042 3.83325 27.6578 3.8577 27.589 3.86111C27.5255 3.86438 27.4455 3.86908 27.4109 3.87164C27.3757 3.87434 27.3534 3.90576 27.3603 3.94273C27.37 3.99519 27.3416 4.00898 27.2243 4.00898C27.1216 4.00898 27.0602 4.03259 27.0238 4.0859C26.9951 4.12813 26.9383 4.16268 26.8976 4.16268C26.8519 4.16268 26.824 4.19183 26.824 4.2396C26.824 4.28425 26.7961 4.31652 26.7571 4.31652C26.7204 4.31652 26.6808 4.34951 26.6693 4.39003C26.6496 4.45913 26.4767 4.53278 26.3838 4.51174C26.3607 4.50647 26.3545 4.51373 26.3698 4.5278C26.4128 4.56719 26.2935 4.79681 26.2301 4.79681C26.1688 4.79681 26.166 4.80733 26.1584 5.08046C26.1542 5.23359 26.1378 5.27183 26.0694 5.28833C26.0233 5.29928 25.9854 5.33596 25.9854 5.36966C25.9854 5.40335 25.9594 5.43079 25.9274 5.43079C25.8789 5.43079 25.8206 5.53629 25.8184 5.62814C25.8175 5.66895 25.976 5.69312 26.0143 5.65814C26.086 5.59231 26.4657 5.90241 26.4668 6.02753C26.4672 6.09037 26.4865 6.14511 26.5096 6.14909C26.5325 6.15321 26.5488 6.13175 26.5457 6.10146C26.5392 6.03933 26.5919 6.0598 26.7281 6.17212C26.8033 6.23411 26.8565 6.24421 27.0095 6.22502C27.2192 6.19857 27.3766 6.30961 27.2803 6.41611C27.256 6.44298 27.2493 6.48492 27.2657 6.50924C27.2874 6.54137 27.3064 6.53924 27.3355 6.50127C27.3638 6.46445 27.3703 6.47952 27.3574 6.55289C27.347 6.61317 27.358 6.65355 27.3838 6.649C27.4081 6.64473 27.4289 6.66151 27.4298 6.68611C27.4309 6.71085 27.4458 6.74384 27.4629 6.75948C27.4799 6.77512 27.4739 6.81023 27.4492 6.83739C27.4151 6.87492 27.4246 6.8853 27.4886 6.8809C27.5348 6.87777 27.5635 6.86142 27.5522 6.84464C27.5409 6.82786 27.55 6.81421 27.5725 6.81421C27.595 6.81421 27.6229 6.83583 27.6346 6.86227C27.6489 6.89455 27.6568 6.89113 27.6591 6.85161C27.6609 6.81933 27.6302 6.75009 27.591 6.69791C27.542 6.63251 27.5387 6.61687 27.5806 6.64758C27.6329 6.68611 27.6423 6.6426 27.6475 6.34018C27.6594 5.65601 27.6588 5.66141 27.7247 5.66141C27.7647 5.66141 27.7965 5.60809 27.8131 5.51269C27.8316 5.40691 27.859 5.36525 27.9079 5.36852C27.9495 5.37136 27.9744 5.34648 27.971 5.30596C27.9674 5.26615 27.9943 5.23871 28.0365 5.23871C28.0756 5.23871 28.1482 5.20416 28.1976 5.16193C28.2471 5.11956 28.3309 5.07889 28.3838 5.0715C28.4367 5.06411 28.4798 5.03397 28.4798 5.00425C28.4798 4.90728 28.9578 4.90885 29.0321 5.0061C29.0653 5.04946 29.1263 5.08501 29.1674 5.08501C29.2086 5.08501 29.2766 5.11956 29.3183 5.16179C29.36 5.20416 29.4092 5.23871 29.4277 5.23871C29.4973 5.23871 29.6748 5.43776 29.6775 5.51909C29.6816 5.63596 29.7334 5.74643 29.7771 5.73151C29.8297 5.71345 29.841 5.81397 29.8493 6.37232C29.8609 7.15687 29.8517 7.27531 29.7795 7.27531C29.7449 7.27531 29.7151 7.30559 29.7134 7.34256C29.7115 7.37953 29.7022 7.4401 29.6924 7.47706C29.6827 7.51403 29.6687 7.57047 29.6616 7.60232C29.6544 7.63431 29.6234 7.6818 29.5925 7.70811C29.5482 7.74578 29.5426 7.74593 29.5659 7.70811C29.5857 7.67569 29.5735 7.66815 29.5272 7.68436C29.4792 7.70128 29.4725 7.72019 29.5041 7.74934C29.5846 7.82313 29.5513 7.88015 29.4126 7.90574C29.3056 7.9255 29.2899 7.93887 29.3393 7.96759C29.3951 8.00029 29.3951 8.00469 29.3393 8.00797C29.3047 8.0101 29.3337 8.03484 29.4038 8.06313C29.5217 8.11048 29.9405 8.49622 30.0988 8.70309C30.1603 8.78342 30.1742 8.78641 30.2456 8.73479C30.3183 8.68247 30.3199 8.68318 30.2668 8.74517C30.217 8.80347 30.2187 8.81243 30.2798 8.81243C30.3186 8.81243 30.3394 8.82849 30.3262 8.84826C30.3129 8.86788 30.32 8.89418 30.3417 8.90655C30.4021 8.94067 30.4453 8.85025 30.392 8.80148C30.3253 8.7402 30.3344 8.67081 30.4129 8.64323C30.4618 8.62603 30.4736 8.63584 30.4556 8.67906C30.4405 8.71475 30.4512 8.73508 30.4823 8.72953C30.5108 8.72456 30.58 8.7348 30.6363 8.75214C30.7179 8.77745 30.7546 8.76536 30.8192 8.69242C30.8635 8.64223 30.9212 8.60114 30.9474 8.60114C30.9737 8.60114 30.9975 8.57953 31.0003 8.55309C31.0033 8.52664 31.0079 8.48697 31.0109 8.46494C31.0138 8.4429 31.0467 8.42996 31.0839 8.43607C31.1333 8.44432 31.1564 8.41162 31.1682 8.31693C31.1772 8.24512 31.2135 8.16707 31.2488 8.14332C31.2842 8.11958 31.3374 8.0573 31.3672 8.00484C31.397 7.95237 31.441 7.91299 31.4654 7.91754C31.4896 7.92195 31.5086 7.9046 31.5077 7.87915C31.4995 7.65266 31.5303 7.50592 31.602 7.43028C31.6952 7.33161 31.7162 5.55776 31.624 5.57169C31.5369 5.58492 31.4928 5.50458 31.5055 5.35629C31.5153 5.24354 31.5044 5.20785 31.4649 5.22179C31.4151 5.23927 31.2977 5.02487 31.3132 4.94453C31.3289 4.86335 31.3034 4.81941 31.2279 4.79738C31.1739 4.78174 31.155 4.75259 31.172 4.71164C31.1913 4.66614 31.1823 4.6579 31.1385 4.68079C31.0926 4.70496 31.09 4.70112 31.1272 4.66415C31.1768 4.61467 31.0647 4.47022 30.9766 4.47022C30.955 4.47022 30.9237 4.45017 30.9073 4.42586C30.8876 4.39643 30.8959 4.39202 30.9322 4.41249C30.9688 4.43325 30.9771 4.42856 30.9567 4.39856C30.9401 4.37382 30.9115 4.36216 30.893 4.37254C30.8747 4.38292 30.8263 4.35775 30.7855 4.31652C30.7449 4.27515 30.6946 4.25098 30.6741 4.26263C30.6535 4.27415 30.6419 4.26079 30.6482 4.23292C30.6546 4.20491 30.6315 4.18202 30.5969 4.18202C30.5623 4.18202 30.5147 4.14733 30.4911 4.1051C30.4663 4.06045 30.3959 4.02277 30.3234 4.01524C30.2549 4.00813 30.1638 3.96818 30.1213 3.92652C30.0788 3.88486 30.0034 3.85372 29.9536 3.85728C29.7902 3.86908 29.7604 3.85713 29.788 3.79102C29.8085 3.74225 29.7979 3.73273 29.7447 3.75135C29.7062 3.765 29.6746 3.76116 29.6746 3.74282C29.6746 3.70884 27.9108 3.69476 27.7776 3.72761ZM23.9732 5.16179C23.9156 5.20316 23.8891 5.23743 23.9144 5.23785C23.9395 5.23828 23.9944 5.20416 24.0362 5.16179C24.1317 5.0651 24.1083 5.0651 23.9732 5.16179ZM34.2781 6.92583C34.2375 6.96948 34.2252 7.01682 34.2465 7.04839C34.2662 7.07753 34.262 7.12104 34.237 7.14862C34.2127 7.1755 34.2037 7.23706 34.2169 7.28554C34.235 7.35194 34.2181 7.38279 34.1483 7.41095C34.0852 7.4364 34.0512 7.48815 34.0424 7.57318C34.0341 7.65052 34.0062 7.69801 33.969 7.69801C33.9358 7.69801 33.8994 7.69801 33.8877 7.69801C33.8663 7.69801 33.795 7.75104 33.5972 7.91384C33.5034 7.99105 33.4413 8.00555 33.2046 8.00598C32.8477 8.00669 32.7625 8.02858 32.7107 8.1328C32.6878 8.17901 32.6492 8.21342 32.6251 8.20929C32.5682 8.19963 32.5637 8.22351 32.5397 8.67124C32.5204 9.02868 32.524 9.04987 32.6062 9.06963C32.654 9.081 32.6931 9.11484 32.6931 9.1447C32.6931 9.1747 32.7259 9.20982 32.7664 9.22304C32.8068 9.23613 32.8733 9.27323 32.9141 9.30551C32.9685 9.34831 33.07 9.36181 33.2915 9.3557C33.6983 9.34447 33.7363 9.33963 33.7277 9.29925C33.7183 9.25646 33.8128 9.2411 34.1492 9.23101C34.3424 9.22518 34.4291 9.20456 34.4807 9.15224C34.519 9.11328 34.5854 9.08143 34.6279 9.08143C34.6772 9.08143 34.7053 9.05371 34.7053 9.00466C34.7053 8.94864 34.7332 8.92774 34.8082 8.92774C34.9355 8.92774 35.5161 8.40778 35.5269 8.28408C35.5293 8.25764 35.5339 8.21015 35.5373 8.17844C35.5409 8.14673 35.573 8.12071 35.6087 8.12071C35.8019 8.12071 35.5403 7.62692 35.3445 7.62237C35.3157 7.6218 35.2921 7.58867 35.2921 7.54886C35.2921 7.48303 35.1609 7.4118 35.0669 7.42645C34.9991 7.43711 34.8783 7.30716 34.9025 7.24972C34.9172 7.21445 34.904 7.1964 34.8682 7.20223C34.7759 7.21744 34.5742 7.11265 34.596 7.0609C34.6074 7.0336 34.5862 7.0181 34.5451 7.02393C34.5065 7.02933 34.4453 6.9935 34.4097 6.94431C34.3469 6.85786 34.3424 6.8573 34.2781 6.92583ZM38.6631 7.52512C38.663 7.88441 38.6693 8.03654 38.6771 7.86322C38.6848 7.68991 38.6848 7.39602 38.6771 7.21005C38.6695 7.02407 38.6631 7.16583 38.6631 7.52512ZM34.7515 7.40199C34.6977 7.45133 34.6431 7.41322 34.683 7.35407C34.6985 7.33133 34.7303 7.32336 34.7537 7.33673C34.7824 7.35294 34.7816 7.37441 34.7515 7.40199ZM35.9268 7.50919C35.8724 7.54972 35.8499 7.58285 35.8769 7.58285C35.9039 7.58285 35.915 7.59891 35.9018 7.61853C35.8885 7.63815 35.8973 7.66545 35.9214 7.6791C35.9453 7.69261 35.9599 7.68081 35.9535 7.65294C35.9471 7.62493 35.9687 7.6073 36.0014 7.6137C36.049 7.62322 36.0507 7.61427 36.0101 7.56948C35.9702 7.52526 35.9709 7.50962 36.0135 7.49569C36.0433 7.48602 36.0583 7.46853 36.0467 7.45687C36.0352 7.44521 35.9813 7.46882 35.9268 7.50919ZM38.5749 8.39143C38.5732 8.4746 38.5885 8.53304 38.6088 8.52152C38.6554 8.49522 38.6577 8.28579 38.6119 8.25977C38.5932 8.2491 38.5764 8.30839 38.5749 8.39143ZM36.8852 8.63257C36.8852 8.70423 36.9535 8.75115 36.9867 8.70209C36.9996 8.68304 36.9819 8.64607 36.9476 8.61991C36.8969 8.58138 36.8852 8.58366 36.8852 8.63257ZM37.1157 8.91878C37.0926 8.93428 37.0683 8.98148 37.0616 9.02385C37.0523 9.08257 37.0587 9.08797 37.0887 9.04717C37.1202 9.00437 37.1536 9.01773 37.2567 9.11442C37.4086 9.25688 37.4139 9.25816 37.4424 9.15778C37.457 9.1066 37.4374 9.06707 37.3845 9.04119C37.3405 9.01958 37.3033 9.01546 37.3017 9.0321C37.3003 9.04859 37.282 9.02328 37.2612 8.97579C37.2215 8.88537 37.186 8.87143 37.1157 8.91878ZM30.2319 8.98617C30.1924 9.02541 30.1942 9.04063 30.2411 9.05712C30.312 9.082 30.3517 9.03736 30.3112 8.97821C30.2912 8.94892 30.2673 8.95119 30.2319 8.98617ZM37.472 9.23172C37.472 9.25603 37.5003 9.28589 37.5347 9.29797C37.5691 9.3102 37.5899 9.33124 37.5806 9.34489C37.5715 9.35854 37.636 9.36963 37.7241 9.36963C37.8122 9.36963 37.8767 9.36267 37.8676 9.35428C37.8583 9.34575 37.8834 9.31418 37.9234 9.28418C37.9634 9.25404 37.974 9.23954 37.947 9.25191C37.859 9.29214 37.6409 9.30295 37.6659 9.26584C37.6793 9.24608 37.7166 9.23925 37.7489 9.25048C37.781 9.26186 37.8075 9.25447 37.8075 9.23399C37.8075 9.1838 37.6518 9.18636 37.6175 9.23698C37.5991 9.26456 37.5716 9.26314 37.5313 9.23229C37.4869 9.19859 37.472 9.19845 37.472 9.23172ZM28.9823 9.27451C28.9678 9.29613 28.9052 9.3075 28.8435 9.29954C28.7819 9.29172 28.6889 9.30266 28.6371 9.32399C28.5713 9.35101 28.5079 9.34916 28.4275 9.31759C28.3205 9.27565 28.3182 9.2765 28.3935 9.33053C28.5545 9.44584 29.1297 9.39537 29.1297 9.26584C29.1297 9.22134 29.0135 9.22816 28.9823 9.27451Z" fill="#31FCB8"/>
</svg>
