<svg width="16" height="16" viewBox="0 0 16 16" fill="none" xmlns="http://www.w3.org/2000/svg">
<path d="M15.4787 14.5735L11.6734 10.6129C12.6518 9.44901 13.1879 7.98455 13.1879 6.45999C13.1879 2.89801 10.292 0 6.73261 0C3.17323 0 0.277344 2.89801 0.277344 6.45999C0.277344 10.022 3.17323 12.92 6.73261 12.92C8.06885 12.92 9.34222 12.5167 10.4309 11.751L14.2651 15.7416C14.4253 15.9082 14.6409 16 14.8719 16C15.0905 16 15.2979 15.9166 15.4554 15.7649C15.7899 15.4428 15.8006 14.9085 15.4787 14.5735ZM6.73261 1.68522C9.36355 1.68522 11.5039 3.82713 11.5039 6.45999C11.5039 9.09286 9.36355 11.2348 6.73261 11.2348C4.10167 11.2348 1.96133 9.09286 1.96133 6.45999C1.96133 3.82713 4.10167 1.68522 6.73261 1.68522Z" fill="white"/>
</svg>
